<?xml version="1.0" encoding="UTF-8" standalone="no"?>
<svg xmlns="http://www.w3.org/2000/svg" xmlns:xlink="http://www.w3.org/1999/xlink" width="102.200mm" height="67.800mm" viewBox="227.899994 -301.399994 102.200043 67.800003">
    <path transform="matrix(-1,-0,-0,1,574.100037,-432.599976)" style="stroke:#000000;stroke-width:0.050000mm;fill:none" d="M254,141.200012L254,131.200012L336.200012,131.200012L336.200012,141.200012L346.200012,141.200012L346.200012,189L336.200012,189L336.200012,199L254,199L254,189L244,189L244,141.200012L254,141.200012z"/>
    <path transform="matrix(-0.06558,0,0,-0.06558,322.529114,-291.67395)" style="stroke:#000000;stroke-width:0.762426mm;fill:none" d="M118.592857,-420.363556C115.652023,-420.363556,112.711182,-420.363556,109.638496,-420.363556C109.638496,-435.56723,109.638496,-450.121918,109.638496,-464.765869L1217.726685,-464.765869C1217.726685,-449.968964,1217.726685,-435.409119,1217.726685,-420.363617L118.592857,-420.363556z"/>
    <path transform="matrix(-0.06558,0,0,-0.06558,322.529114,-291.67395)" style="stroke:#000000;stroke-width:0.762426mm;fill:none" d="M1217.792725,-629.773987C1217.792725,-615.032715,1217.792725,-600.647949,1217.792725,-586.096436L109.743767,-586.096436C109.743767,-600.751892,109.743767,-615.141418,109.743767,-629.773193L1217.792725,-629.773987z"/>
    <path transform="matrix(-0.06558,0,0,-0.06558,322.529114,-291.67395)" style="stroke:#000000;stroke-width:0.762426mm;fill:none" d="M1217.833984,-547.358887C1217.833984,-532.568481,1217.833984,-518.151978,1217.833984,-503.552368L109.703827,-503.552368C109.703827,-518.303406,109.703827,-532.664368,109.703827,-547.358582L1217.833984,-547.358887z"/>
    <path transform="matrix(-0.06558,0,0,-0.06558,322.529114,-291.67395)" style="stroke:#000000;stroke-width:0.762426mm;fill:none" d="M579.108459,-92.212517C579.108459,-107.188957,579.108459,-121.743591,579.108459,-136.461395L1217.806152,-136.461395C1217.806152,-121.659943,1217.806152,-107.095993,1217.806152,-92.211708L579.108459,-92.212517z"/>
    <path transform="matrix(-0.06558,0,0,-0.06558,322.529114,-291.67395)" style="stroke:#000000;stroke-width:0.762426mm;fill:none" d="M579.185608,-257.108887C579.185608,-272.230988,579.185608,-286.779083,579.185608,-301.47052L1217.847534,-301.47052C1217.847534,-286.664978,1217.847534,-272.103149,1217.847534,-257.108948L579.185608,-257.108887z"/>
    <path transform="matrix(-0.06558,0,0,-0.06558,322.529114,-291.67395)" style="stroke:#000000;stroke-width:0.762426mm;fill:none" d="M1217.797241,-383.509888C1217.797241,-368.500641,1217.797241,-353.919922,1217.797241,-339.20752L579.180176,-339.20752C579.180176,-354.146637,579.180176,-368.702301,579.180176,-383.510406L1217.797241,-383.509888z"/>
    <path transform="matrix(-0.06558,0,0,-0.06558,322.529114,-291.67395)" style="stroke:#000000;stroke-width:0.762426mm;fill:none" d="M579.1073,-175.318863C579.1073,-190.346191,579.1073,-204.909164,579.1073,-219.660034L1217.870605,-219.660034C1217.870605,-204.81131,1217.870605,-190.238174,1217.870605,-175.319046L579.1073,-175.318863z"/>
    <path transform="matrix(-0.06558,0,0,-0.06558,322.529114,-291.67395)" style="stroke:#000000;stroke-width:0.762426mm;fill:none" d="M410.870575,-205.329361C413.049316,-203.827896,415.228027,-202.326431,417.569336,-200.712921C421.549408,-203.36618,425.465637,-205.976883,430.333466,-209.221939C429.156006,-204.832794,428.547821,-201.574951,427.388977,-198.526443C426.245087,-195.517288,426.903931,-193.621628,429.535797,-191.855423C432.33902,-189.974197,434.874176,-187.693451,438.716858,-184.641647C433.702942,-184.641647,430.242096,-184.44989,426.813721,-184.701279C423.982544,-184.908875,422.692047,-183.941132,421.927673,-181.172836C420.899963,-177.450485,419.295197,-173.887466,417.537689,-169.18454C415.844604,-174.097702,414.805389,-177.951508,413.141785,-181.513733C412.508209,-182.870422,410.520844,-184.238007,409.011841,-184.414398C405.411194,-184.835236,401.727997,-184.550156,398.078156,-184.550156C400.70578,-188.065292,403.746216,-190.12355,406.212128,-192.726151C407.372803,-193.951126,408.095978,-196.320816,407.848145,-197.999115C407.321625,-201.564285,406.02951,-205.016357,404.743011,-209.617172C407.318176,-207.818207,408.798737,-206.78392,410.870575,-205.329361z"/>
    <path transform="matrix(-0.06558,0,0,-0.06558,322.529114,-291.67395)" style="stroke:#000000;stroke-width:0.762426mm;fill:none" d="M318.375763,-190.203903C320.156433,-191.682983,321.937103,-193.162064,323.744629,-194.663437C322.519196,-199.281876,321.34314,-203.714294,319.877563,-209.237717C324.744873,-205.937302,328.677795,-203.270447,332.627716,-200.592102C336.648987,-203.236237,340.496948,-205.766388,345.30838,-208.930099C344.234009,-204.975189,343.787689,-202.002289,342.617706,-199.348434C341.00647,-195.693787,342.179382,-193.549805,345.269592,-191.542526C347.954529,-189.798508,350.329437,-187.577271,354.028748,-184.616608C348.680695,-184.616608,344.862274,-184.896469,341.121765,-184.478867C339.625183,-184.311798,337.679932,-182.908646,337.018707,-181.544662C335.343048,-178.088181,334.278564,-174.335419,332.568481,-169.588776C331.135162,-173.66008,329.760406,-176.398682,329.246979,-179.290207C328.427246,-183.906555,325.883301,-185.175537,321.559174,-184.714828C318.553223,-184.394562,315.485596,-184.653183,311.106598,-184.653183C314.132263,-186.967316,315.9617,-188.366547,318.375763,-190.203903z"/>
    <path transform="matrix(-0.06558,0,0,-0.06558,322.529114,-291.67395)" style="stroke:#000000;stroke-width:0.762426mm;fill:none" d="M260.569519,-204.900879C262.335602,-206.032837,264.101654,-207.164795,266.651154,-208.798889C265.414856,-203.380051,262.559845,-198.262634,263.890442,-194.715118C265.35788,-190.802719,270.666718,-188.331116,275.081055,-184.568008C271.374512,-184.568008,268.413788,-184.341019,265.502411,-184.623123C261.493317,-185.011597,258.952209,-184.0298,258.063171,-179.602982C257.436584,-176.483002,255.930527,-173.539627,254.459244,-169.545959C253.050827,-173.552628,251.669312,-176.440399,251.054001,-179.483124C250.180862,-183.800903,247.722443,-185.021362,243.668625,-184.679703C240.629807,-184.423615,237.552094,-184.62912,233.302216,-184.62912C237.100693,-187.654297,239.693024,-189.99852,242.565384,-191.925278C245.261658,-193.733917,245.657791,-195.713776,244.56926,-198.650482C243.414017,-201.767105,242.771133,-205.073669,241.601089,-209.425858C246.583298,-205.973328,250.500412,-203.258881,254.358444,-200.585373C256.442841,-202.015045,258.219849,-203.233887,260.569519,-204.900879z"/>
    <path transform="matrix(-0.06558,0,0,-0.06558,322.529114,-291.67395)" style="stroke:#000000;stroke-width:0.762426mm;fill:none" d="M332.032898,-310.820953C330.881409,-314.112946,329.544922,-317.354889,328.636566,-320.712677C327.902954,-323.42453,326.58075,-324.479736,323.718597,-324.283997C319.991791,-324.029144,316.234375,-324.221649,311.246948,-324.221649C312.965118,-325.685242,313.56543,-326.449738,314.351593,-326.827209C322.556122,-330.766815,325.128052,-336.633057,320.795654,-345.018372C320.370483,-345.841248,320.365875,-346.881409,319.925354,-348.952362C324.637085,-345.677673,328.524017,-342.976227,332.391693,-340.288147C336.52005,-343.009674,340.443298,-345.596039,345.37207,-348.845245C344.085876,-344.273071,343.267609,-340.91925,342.183533,-337.653717C341.339569,-335.111481,341.656799,-333.382751,344.119537,-331.828735C347.111328,-329.940887,349.798126,-327.569672,352.616852,-325.407562C349.191254,-324.395355,346.073395,-324.158722,343.007355,-324.456299C339.316193,-324.814484,337.2099,-323.850494,336.320557,-319.871277C335.582184,-316.567535,333.845795,-313.486847,332.032898,-310.820953z"/>
    <path transform="matrix(-0.06558,0,0,-0.06558,322.529114,-291.67395)" style="stroke:#000000;stroke-width:0.762426mm;fill:none" d="M174.654175,-171.688492C173.647949,-174.67421,172.421844,-177.607605,171.695496,-180.659927C170.922684,-183.907425,169.042023,-184.768539,165.966278,-184.581635C162.538269,-184.373322,159.08786,-184.533905,154.382004,-184.533905C158.428131,-187.788239,161.571106,-189.965469,164.23172,-192.625229C165.326645,-193.719757,166.040237,-195.963654,165.78212,-197.491272C165.155411,-201.200455,163.857346,-204.796188,162.496613,-209.61821C164.947189,-207.941391,166.435928,-206.983551,167.860229,-205.937912C175.19342,-200.554413,175.183823,-200.552292,182.76622,-205.621902C184.263565,-206.623016,185.802917,-207.561279,188.171814,-209.068756C187.038574,-204.953644,186.369019,-201.727097,185.244659,-198.667694C184.16423,-195.727844,184.687332,-193.76236,187.347061,-191.991882C190.207809,-190.08757,192.802719,-187.783905,195.513641,-185.654495C191.961761,-184.617279,188.671036,-184.401382,185.42189,-184.676559C182.013962,-184.96521,180.4263,-183.711807,179.421753,-180.400345C178.430023,-177.131149,176.480011,-174.152649,174.654175,-171.688492z"/>
    <path transform="matrix(-0.06558,0,0,-0.06558,322.529114,-291.67395)" style="stroke:#000000;stroke-width:0.762426mm;fill:none" d="M497.103821,-171.894119C496.416687,-171.986099,495.236389,-171.89064,495.11911,-172.199203C493.998718,-175.146881,492.90683,-178.123474,492.112946,-181.171524C491.452606,-183.706924,490.156372,-184.651291,487.517242,-184.495743C483.810883,-184.277298,480.082031,-184.440536,476.362793,-184.440536C478.996277,-187.785263,481.745697,-190.168381,484.696075,-192.269302C486.951996,-193.875671,487.47641,-195.474243,486.421204,-198.152786C485.121826,-201.451157,484.433685,-204.990295,483.173859,-209.534363C487.138672,-206.730377,490.240265,-204.822815,492.992554,-202.501114C495.244232,-200.601715,496.899902,-200.876022,499.051361,-202.587234C501.743958,-204.728806,504.709534,-206.527191,508.666229,-209.231735C507.449951,-204.484604,506.289825,-201.06424,505.804382,-197.550644C505.591888,-196.012589,506.294403,-193.812042,507.390167,-192.735565C510.068268,-190.104675,513.217712,-187.953583,516.774292,-185.136612C515.203308,-184.864182,514.453552,-184.653687,513.69519,-184.616135C509.729309,-184.419601,504.666901,-185.692551,502.089417,-183.71405C499.288818,-181.564301,498.798035,-176.405502,497.103821,-171.894119z"/>
    <path transform="matrix(-0.06558,0,0,-0.06558,322.529114,-291.67395)" style="stroke:#000000;stroke-width:0.762426mm;fill:none" d="M468.534882,-148.575745C463.964203,-149.527451,461.971252,-147.237564,461.036957,-143.038391C460.379578,-140.083771,459.12323,-137.262405,457.666382,-133.018463C456.028015,-137.800476,454.713989,-141.033234,453.834747,-144.380219C453.037994,-147.413177,451.586823,-148.798203,448.286285,-148.5345C444.717834,-148.24939,441.109039,-148.469955,436.152527,-148.469955C439.454132,-151.025574,441.479889,-152.973206,443.84198,-154.339172C448.123474,-156.815094,449.401733,-159.856277,447.217682,-164.514099C446.064178,-166.974075,445.68399,-169.796631,444.666534,-173.505829C449.671082,-170.024902,453.714142,-167.212738,457.659515,-164.468521C461.840027,-167.324417,465.64093,-169.92099,470.542877,-173.26973C469.184204,-168.718506,468.316528,-165.376785,467.177368,-162.13031C466.220734,-159.404022,466.602997,-157.503098,469.218933,-155.857285C472.195068,-153.984848,474.898834,-151.679413,477.721008,-149.56218C477.59613,-149.23381,477.471252,-148.905426,477.346375,-148.577057C474.71579,-148.577057,472.085175,-148.577057,468.534882,-148.575745z"/>
    <path transform="matrix(-0.06558,0,0,-0.06558,322.529114,-291.67395)" style="stroke:#000000;stroke-width:0.762426mm;fill:none" d="M422.247498,-322.557007C420.825897,-318.3815,419.404297,-314.206024,417.575623,-308.834778C416.060272,-313.198425,414.592438,-316.232635,413.999146,-319.429169C413.219391,-323.630432,410.991974,-324.736542,407.067871,-324.332458C404.03656,-324.020294,400.947388,-324.270172,397.297791,-324.270172C398.072418,-325.386475,398.246887,-325.899231,398.601105,-326.110107C406.839478,-331.014465,411.945343,-336.904449,403.98645,-347.020264C404.594238,-347.24826,405.202026,-347.476288,405.809814,-347.704285C409.721222,-345.324585,413.632629,-342.944885,417.678833,-340.483185C421.529724,-343.073334,425.424255,-345.692841,430.323151,-348.987854C429.074738,-344.561401,428.453522,-341.292419,427.217896,-338.274963C425.960846,-335.2052,426.84259,-333.353729,429.380707,-331.632965C432.236206,-329.696991,434.930267,-327.522949,438.141235,-325.117889C432.52887,-324.482422,427.556549,-323.919434,422.247498,-322.557007z"/>
    <path transform="matrix(-0.06558,0,0,-0.06558,322.529114,-291.67395)" style="stroke:#000000;stroke-width:0.762426mm;fill:none" d="M245.200745,-335.559448C244.07074,-339.669464,242.940735,-343.77948,241.461166,-349.16098C246.457153,-345.742371,250.375854,-343.060883,254.362106,-340.333221C258.403473,-343.005951,262.346924,-345.613922,267.345154,-348.919495C265.992676,-344.201813,264.671722,-340.786591,264.151794,-337.25351C263.909088,-335.604126,264.735962,-333.252319,265.921234,-332.050476C268.450378,-329.485962,271.529602,-327.463959,275.487274,-324.351624C270.410522,-324.351624,266.944794,-324.194244,263.500946,-324.401337C260.739075,-324.567444,259.330688,-323.748871,258.607086,-320.88147C257.691437,-317.253113,256.126984,-313.788513,254.442032,-309.151581C252.848251,-313.847504,251.468964,-317.383606,250.473862,-321.024689C249.784088,-323.548523,248.538025,-324.486542,245.917923,-324.344604C242.08017,-324.136719,238.222809,-324.291107,233.719193,-324.291107C238.095978,-328.233826,241.723633,-331.50174,245.200745,-335.559448z"/>
    <path transform="matrix(-0.06558,0,0,-0.06558,322.529114,-291.67395)" style="stroke:#000000;stroke-width:0.762426mm;fill:none" d="M361.799988,-168.937836C361.568695,-170.101807,361.337372,-171.265778,360.93866,-173.272186C364.804565,-170.533554,367.773193,-168.088181,371.08139,-166.255966C372.399872,-165.525757,374.790833,-165.55397,376.132324,-166.277527C379.375549,-168.026733,382.288483,-170.388336,386.427826,-173.262054C385.180969,-169.036819,384.619781,-166.087219,383.445984,-163.405807C381.732544,-159.491684,382.794983,-156.991089,386.331116,-154.864304C388.798096,-153.380569,390.938263,-151.353577,394.385956,-148.662689C389.607635,-148.662689,386.314026,-148.517532,383.039612,-148.706238C380.154022,-148.872559,378.516998,-148.193924,377.783508,-144.983444C376.948944,-141.330597,375.267639,-137.871216,373.498352,-133.09729C372.379913,-136.402557,371.655609,-138.526184,370.942474,-140.653564C368.304565,-148.52298,368.305939,-148.520782,360.250977,-148.479797C358.02063,-148.468445,355.790161,-148.478058,352.257294,-148.478058C354.573456,-150.331314,355.703522,-151.274612,356.873566,-152.165436C364.959259,-158.321564,364.961945,-158.318054,361.799988,-168.937836z"/>
    <path transform="matrix(-0.06558,0,0,-0.06558,322.529114,-291.67395)" style="stroke:#000000;stroke-width:0.762426mm;fill:none" d="M506.247375,-339.275543C504.380829,-335.666779,505.447235,-333.131592,508.844116,-331.040802C511.450317,-329.436707,513.761841,-327.353882,516.204407,-325.483948C513.950989,-324.437256,512.008667,-324.432037,510.066376,-324.438141C501.674805,-324.464508,501.672882,-324.4664,499.048248,-316.848145C498.296173,-314.665283,497.558838,-312.477386,496.394867,-309.05835C494.744995,-313.75528,493.241974,-317.23407,492.337921,-320.862122C491.61972,-323.744354,490.178406,-324.53952,487.398499,-324.373871C483.71106,-324.154175,480.000671,-324.319733,474.901489,-324.319733C478.890961,-327.409973,481.508606,-329.719269,484.404938,-331.599121C487.112366,-333.356445,487.687286,-335.23645,486.512451,-338.252319C485.262024,-341.462158,484.582489,-344.89444,483.332947,-349.381653C487.082764,-346.729401,489.754547,-345.043701,492.187164,-343.064056C494.840393,-340.904816,497.073669,-340.314148,499.944519,-342.93924C502.203064,-345.004456,505.07959,-346.39389,508.502258,-348.616394C507.698578,-345.117279,507.1138,-342.571259,506.247375,-339.275543z"/>
    <path transform="matrix(-0.06558,0,0,-0.06558,322.529114,-291.67395)" style="stroke:#000000;stroke-width:0.762426mm;fill:none" d="M530.656067,-147.694763C525.651733,-148.11731,520.6474,-148.539871,515.100159,-149.00827C516.703552,-150.296143,517.927673,-151.331482,519.204834,-152.296738C526.931152,-158.136246,526.9245,-158.127914,524.351379,-167.380173C523.888,-169.046402,523.552979,-170.748322,522.963989,-173.265671C527.636841,-170.046097,531.580322,-167.329025,535.622559,-164.543961C539.644287,-167.252975,543.535217,-169.873886,548.420776,-173.164734C547.147461,-168.773743,546.487915,-165.518295,545.250854,-162.499481C543.916504,-159.243134,544.832764,-157.287964,547.648865,-155.512268C550.47406,-153.730881,553.065796,-151.579178,555.759766,-149.589752C552.398376,-148.545883,549.423706,-148.306915,546.503418,-148.603714C542.456116,-149.015076,539.948486,-147.966888,539.10083,-143.547073C538.509155,-140.461823,537.101257,-137.533096,535.595825,-133.206299C533.719971,-138.740997,532.341736,-142.807388,530.656067,-147.694763z"/>
    <path transform="matrix(-0.06558,0,0,-0.06558,322.529114,-291.67395)" style="stroke:#000000;stroke-width:0.762426mm;fill:none" d="M184.282913,-334.765991C187.930344,-331.577972,191.577789,-328.389923,196.125641,-324.414886C191.592758,-324.414886,188.009018,-324.257843,184.446487,-324.465302C181.6689,-324.627075,180.260818,-323.755127,179.538681,-320.920685C178.60704,-317.263885,177.100693,-313.753448,175.43515,-309.025543C173.763199,-313.836182,172.720154,-317.638458,171.076675,-321.160553C170.443939,-322.516602,168.525162,-323.939178,167.05336,-324.10611C163.360428,-324.525024,159.588165,-324.244537,154.340439,-324.244537C158.295685,-327.39389,160.952499,-329.810852,163.911758,-331.771271C166.323868,-333.369263,166.637207,-335.115021,165.7789,-337.65155C164.636597,-341.027374,163.756821,-344.491974,162.339813,-349.383636C167.464081,-345.746033,171.335251,-342.997925,175.150818,-340.289337C179.301743,-343.059113,183.167542,-345.638611,188.117569,-348.94162C186.632111,-343.506622,185.550369,-339.548737,184.282913,-334.765991z"/>
    <path transform="matrix(-0.06558,0,0,-0.06558,322.529114,-291.67395)" style="stroke:#000000;stroke-width:0.762426mm;fill:none" d="M169.659683,-129.073288C171.547089,-127.733543,173.434479,-126.393791,175.310532,-125.062088C179.434219,-127.858658,183.369232,-130.527267,187.935593,-133.624054C187.658264,-132.197876,187.58255,-131.577103,187.415222,-130.982101C184.080536,-119.12294,184.078903,-119.124207,193.855072,-111.601517C194.456543,-111.138687,195.03978,-110.652153,196.866959,-109.183853C191.578247,-109.183853,187.654694,-109.465927,183.80957,-109.040031C182.345108,-108.877831,180.457916,-107.371948,179.812256,-105.988831C178.172501,-102.476082,177.125488,-98.686646,175.373306,-93.667915C173.251907,-99.657249,171.613174,-104.283821,169.864029,-109.222153C164.994766,-109.222153,160.272202,-109.222153,154.23996,-109.222153C157.245224,-111.610786,159.120377,-113.435928,161.299347,-114.761772C165.539871,-117.342041,167.313202,-120.431801,164.985458,-125.345757C163.888077,-127.662369,163.512192,-130.32074,162.413773,-134.233414C165.397614,-132.104111,167.220779,-130.80307,169.659683,-129.073288z"/>
    <path transform="matrix(-0.06558,0,0,-0.06558,322.529114,-291.67395)" style="stroke:#000000;stroke-width:0.762426mm;fill:none" d="M408.207367,-109.029579C404.667908,-109.029579,401.128479,-109.029579,396.361511,-109.029579C400.340607,-112.253563,403.054291,-114.710159,406.03421,-116.784203C408.372467,-118.411621,408.747253,-120.091881,407.791473,-122.687233C406.573883,-125.9935,405.784332,-129.457413,404.449219,-134.112167C409.669342,-130.487259,413.697052,-127.690399,417.628174,-124.960587C421.817657,-127.840828,425.627075,-130.459763,430.100708,-133.535355C428.821869,-128.158539,425.894562,-122.964287,427.154266,-119.154488C428.424225,-115.313721,433.851624,-112.84761,438.237793,-109.115227C433.756775,-109.115227,430.021118,-109.00045,426.296631,-109.155113C423.765137,-109.260239,422.407959,-108.533447,421.700409,-105.864693C420.714294,-102.14518,419.144836,-98.58033,417.359558,-93.668724C415.64209,-98.598869,414.636169,-102.280602,413.040588,-105.686073C412.378143,-107.099953,410.456085,-107.923668,408.207367,-109.029579z"/>
    <path transform="matrix(-0.06558,0,0,-0.06558,322.529114,-291.67395)" style="stroke:#000000;stroke-width:0.762426mm;fill:none" d="M263.396149,-120.52504C264.631836,-118.944099,265.671112,-117.141479,267.148071,-115.832832C269.513672,-113.736847,272.169403,-111.968277,274.702484,-110.061317C271.373169,-109.125359,268.404083,-108.843933,265.510498,-109.191383C261.18045,-109.711311,258.72406,-108.400177,257.844116,-103.847153C257.263306,-100.841904,255.786224,-98.00985,254.32103,-94.04705C252.320801,-99.683601,250.678024,-104.31282,248.877213,-109.38739C243.934753,-109.38739,239.117844,-109.38739,233.248016,-109.38739C237.039536,-112.368477,239.777191,-114.793747,242.791687,-116.803841C245.154007,-118.379051,245.638458,-120.074928,244.747574,-122.667511C243.607864,-125.984283,242.771393,-129.405243,241.448517,-134.022995C246.529282,-130.472641,250.441574,-127.738777,254.475052,-124.920258C256.514038,-126.355652,258.394135,-127.705582,260.302002,-129.015076C262.319641,-130.399902,264.363708,-131.746231,267.415771,-133.793182C265.926056,-128.874115,264.784607,-125.105148,263.396149,-120.52504z"/>
    <path transform="matrix(-0.06558,0,0,-0.06558,322.529114,-291.67395)" style="stroke:#000000;stroke-width:0.762426mm;fill:none" d="M330.895111,-98.464638C330.25415,-100.357552,329.318878,-102.207199,329.032928,-104.152313C328.418732,-108.329964,326.184174,-109.58017,322.155334,-109.123871C318.965668,-108.762619,315.702362,-109.051163,312.458679,-109.051163C312.514923,-109.786858,312.467072,-110.004784,312.545837,-110.07016C316.12027,-113.037392,321.552521,-115.383347,322.780701,-119.114357C324.058197,-122.995209,321.275574,-128.21257,320.047333,-133.86203C324.70575,-130.557663,328.681793,-127.737328,332.527039,-125.009773C336.777161,-127.867767,340.627197,-130.456726,345.489929,-133.726685C344.117889,-129.249619,343.343811,-126.020844,342.128815,-122.967522C341.030365,-120.207092,341.386597,-118.412689,343.993134,-116.70295C347.031158,-114.710159,349.75473,-112.237953,353.648865,-109.155121C348.968567,-109.155121,345.813416,-108.985237,342.684814,-109.20089C339.267883,-109.436417,337.124573,-108.680962,336.335968,-104.812172C335.652344,-101.458252,334.037689,-98.294113,332.597229,-94.405556C331.88858,-95.970558,331.48938,-96.85218,330.895111,-98.464638z"/>
    <path transform="matrix(-0.06558,0,0,-0.06558,322.529114,-291.67395)" style="stroke:#000000;stroke-width:0.762426mm;fill:none" d="M227.239594,-169.937347C226.496078,-167.39061,226.003937,-164.733429,224.945847,-162.32489C223.603622,-159.269531,224.532303,-157.476212,227.165482,-155.800064C230.065048,-153.954315,232.736206,-151.749756,235.506882,-149.701508C231.398483,-148.694778,227.456848,-148.927887,223.570267,-148.567459C222.222427,-148.442459,220.41777,-147.116119,219.849915,-145.869965C218.222717,-142.299179,217.122131,-138.488388,215.361725,-133.484985C213.934143,-137.458008,212.642151,-140.12326,212.042404,-142.936096C211.091049,-147.398087,208.965607,-149.476501,204.155334,-148.744385C201.277863,-148.306442,198.279282,-148.664017,194.107605,-148.664017C197.707703,-151.494171,200.153183,-153.734268,202.905441,-155.494766C205.917648,-157.421555,206.721436,-159.567795,205.386169,-162.955215C204.193176,-165.98172,203.575897,-169.235168,202.484909,-173.183517C204.09848,-172.211182,205.073288,-171.868652,205.709229,-171.202576C211.993912,-164.619934,218.285614,-163.868744,224.75264,-170.950592C225.267166,-171.513992,226.166855,-171.725647,226.887558,-172.100769C227.096237,-171.618774,227.304916,-171.13678,227.239594,-169.937347z"/>
    <path transform="matrix(-0.06558,0,0,-0.06558,322.529114,-291.67395)" style="stroke:#000000;stroke-width:0.762426mm;fill:none" d="M141.419098,-170.296844C142.484589,-170.987106,143.550079,-171.677353,145.077316,-172.666748C144.983688,-171.415115,145.043015,-170.757675,144.874161,-170.165253C141.613998,-158.72731,141.610504,-158.731339,150.579468,-151.427811C151.338089,-150.810043,152.045868,-150.129837,153.59787,-148.748032C149.077881,-148.748032,145.471146,-148.583466,141.887573,-148.800705C139.076782,-148.971085,137.71933,-148.064056,136.999527,-145.220337C136.072388,-141.55751,134.527405,-138.051086,132.805801,-133.240097C131.14447,-138.063278,129.776428,-141.30191,128.940506,-144.672531C128.139557,-147.902145,126.381111,-148.848251,123.233719,-148.602737C119.937683,-148.345642,116.606033,-148.545258,113.289932,-148.545258C115.755913,-151.724548,118.217484,-153.975952,120.969719,-155.785156C123.657242,-157.551849,124.213287,-159.460327,123.06469,-162.445129C121.822502,-165.673111,121.09317,-169.098434,119.846107,-173.467926C122.236343,-171.808945,123.602043,-170.878342,124.949959,-169.922668C132.791031,-164.363388,132.789627,-164.361404,141.419098,-170.296844z"/>
    <path transform="matrix(-0.06558,0,0,-0.06558,322.529114,-291.67395)" style="stroke:#000000;stroke-width:0.762426mm;fill:none" d="M492.674927,-127.170563C494.741974,-125.217651,496.628448,-124.838593,499.08136,-126.938599C501.79599,-129.26268,504.956512,-131.065918,508.9552,-133.80249C507.63147,-129.161758,506.366302,-125.743279,505.784515,-122.212196C505.533417,-120.688179,506.21347,-118.427551,507.309753,-117.378807C510.108154,-114.701874,513.378479,-112.518242,517.716492,-109.166359C512.97644,-109.166359,509.722046,-108.950684,506.509003,-109.223106C502.819885,-109.535896,500.666595,-108.54158,499.866577,-104.553886C499.219299,-101.327454,497.704773,-98.275002,496.098389,-93.825279C494.417236,-98.803246,493.060974,-102.33506,492.054626,-105.963943C491.346741,-108.516693,489.971893,-109.343147,487.406677,-109.209686C483.700714,-109.016899,479.977203,-109.160378,475.001556,-109.160378C478.84433,-112.250702,481.515289,-114.672523,484.464417,-116.687149C487.008362,-118.425011,487.316528,-120.249809,486.274658,-123.01947C485.10733,-126.122726,484.483063,-129.430252,483.296783,-133.867004C486.99649,-131.23468,489.548981,-129.41861,492.674927,-127.170563z"/>
    <path transform="matrix(-0.06558,0,0,-0.06558,322.529114,-291.67395)" style="stroke:#000000;stroke-width:0.762426mm;fill:none" d="M364.247681,-228.975449C363.235229,-233.593307,362.222778,-238.211166,361.005493,-243.763336C365.614532,-240.506989,369.509796,-237.754959,373.438019,-234.97963C377.493256,-237.70723,381.378784,-240.320679,386.224396,-243.57988C385.165802,-239.800964,384.739197,-237.144333,383.68634,-234.764816C381.731537,-230.346863,382.818542,-227.377914,386.982086,-225.012772C389.345154,-223.670395,391.340668,-221.680939,394.685089,-219.053024C389.464447,-219.053024,385.685669,-219.334274,381.986755,-218.913528C380.52301,-218.747025,378.634979,-217.306396,377.987,-215.94693C376.305267,-212.418716,375.20459,-208.613525,373.447968,-203.743271C371.350372,-209.560394,369.677856,-214.198761,367.845154,-219.281281C362.885132,-219.281281,358.098389,-219.281281,352.447601,-219.281281C356.805511,-222.721863,360.328522,-225.503342,364.247681,-228.975449z"/>
    <path transform="matrix(-0.06558,0,0,-0.06558,322.529114,-291.67395)" style="stroke:#000000;stroke-width:0.762426mm;fill:none" d="M143.48111,-304.970062C140.839676,-300.081146,142.257553,-296.64386,147.036118,-294.044617C149.171387,-292.883148,150.944443,-291.055725,153.95549,-288.685425C148.912033,-288.685425,145.1147,-288.969025,141.397842,-288.545776C139.912018,-288.376587,137.977203,-286.941833,137.337173,-285.573212C135.706818,-282.086945,134.690964,-278.313263,133.429184,-274.654602C131.522873,-277.228119,130.440781,-279.630371,129.913925,-282.148743C128.869553,-287.140869,126.367241,-289.558594,120.976318,-288.651825C118.420197,-288.221893,115.731857,-288.578003,113.103432,-288.578003C115.809502,-291.828674,118.479584,-294.072479,121.345451,-296.029572C123.575943,-297.552795,124.392754,-299.077972,123.362038,-301.832489C122.101517,-305.201141,121.394409,-308.776855,120.150871,-313.357513C124.08522,-310.568939,127.220367,-308.520447,130.149338,-306.21051C132.149612,-304.633026,133.696533,-304.415009,135.79393,-306.146759C138.556198,-308.42746,141.634323,-310.325592,145.471054,-313.015198C144.713181,-309.844482,144.223099,-307.794189,143.48111,-304.970062z"/>
    <path transform="matrix(-0.06558,0,0,-0.06558,322.529114,-291.67395)" style="stroke:#000000;stroke-width:0.762426mm;fill:none" d="M167.982117,-253.994476C163.904556,-253.994476,159.826996,-253.994476,155.851379,-253.994476C155.741226,-254.643524,155.652176,-254.901169,155.699188,-254.928986C164.82756,-260.332611,169.549591,-267.204254,161.964127,-278.213104C162.518814,-278.195984,163.073502,-278.178864,163.628189,-278.161713C167.503235,-275.465179,171.378296,-272.768677,175.275238,-270.056885C179.365097,-272.805084,183.305527,-275.45285,188.140839,-278.701935C186.969055,-274.488678,186.411758,-271.202393,185.131958,-268.226868C183.71785,-264.939056,184.686905,-263.070862,187.448013,-261.270721C190.268631,-259.431763,192.842499,-257.214386,195.524384,-255.162659C192.276611,-254.079895,189.321457,-253.752518,186.469238,-254.154877C181.935486,-254.794449,179.865692,-252.891968,178.903412,-248.636444C178.252197,-245.756531,176.874344,-243.040939,175.429321,-239.212936C174.292053,-242.273407,173.720291,-244.164017,172.899353,-245.939423C171.642975,-248.656509,170.214813,-251.294174,167.982117,-253.994476z"/>
    <path transform="matrix(-0.06558,0,0,-0.06558,322.529114,-291.67395)" style="stroke:#000000;stroke-width:0.762426mm;fill:none" d="M483.677307,-260.940948C486.883209,-262.763367,487.898254,-265.036102,486.208527,-268.714966C484.93573,-271.486115,484.582916,-274.67984,483.557129,-278.724213C488.30481,-275.384796,492.18045,-272.658722,495.960663,-269.999817C500.113647,-272.808167,503.932373,-275.390503,508.741699,-278.6427C507.690491,-274.56842,507.256409,-271.448914,506.07077,-268.647522C504.525299,-264.995941,505.674835,-262.900574,508.781097,-260.941803C511.550629,-259.195343,514.007141,-256.952454,516.601746,-254.928635C513.050354,-254.012848,510.045746,-253.781326,507.092102,-254.070557C503.269043,-254.444946,500.904755,-253.439941,499.966644,-249.332123C499.258026,-246.229126,497.780518,-243.301682,496.19693,-239.109299C494.154663,-244.785522,492.547913,-249.251266,490.761871,-254.215393C485.93161,-254.215393,481.109406,-254.215393,475.11972,-254.215393C478.4487,-256.84436,480.766968,-258.675171,483.677307,-260.940948z"/>
    <path transform="matrix(-0.06558,0,0,-0.06558,322.529114,-291.67395)" style="stroke:#000000;stroke-width:0.762426mm;fill:none" d="M525.411133,-311.725708C528.768555,-309.305115,532.125916,-306.884552,535.734009,-304.283264C537.696594,-305.739014,539.533508,-307.131775,541.402771,-308.479767C543.367615,-309.896729,545.363281,-311.270844,548.409668,-313.411407C547.113953,-308.746063,546.319275,-305.378052,545.226929,-302.109497C544.329041,-299.422913,544.53949,-297.514343,547.1922,-295.834808C550.172913,-293.947632,552.835999,-291.558716,556.747559,-288.527771C551.586792,-288.527771,547.769897,-288.81308,544.034607,-288.385345C542.569885,-288.21759,540.713379,-286.734955,540.036621,-285.358765C538.371094,-281.971893,537.286255,-278.299469,535.622192,-273.809052C534.85614,-275.566376,534.549744,-276.146973,534.343201,-276.761139C530.507324,-288.167145,530.509644,-288.16394,518.458374,-288.694153C517.664734,-288.729065,516.876831,-288.89563,516.0354,-289.007751C516.208374,-289.496857,516.228699,-289.97226,516.433228,-290.072754C525.811401,-294.680817,528.849304,-301.401276,523.540344,-311.009064C523.48938,-311.101318,524.370361,-311.708527,525.411133,-311.725708z"/>
    <path transform="matrix(-0.06558,0,0,-0.06558,322.529114,-291.67395)" style="stroke:#000000;stroke-width:0.762426mm;fill:none" d="M465.42218,-309.971741C466.770294,-310.855713,468.118408,-311.739685,470.1922,-313.099457C468.975128,-308.61795,467.703217,-305.008728,467.127197,-301.291656C466.892609,-299.778168,467.717041,-297.551819,468.847656,-296.484589C471.587219,-293.898499,474.789642,-291.802734,478.856812,-288.709961C473.890137,-288.709961,470.114258,-288.578949,466.352844,-288.755676C463.813232,-288.875031,462.486267,-288.217834,461.806366,-285.498383C460.885773,-281.816071,459.307526,-278.298126,457.531036,-273.379791C455.822601,-278.328796,454.935577,-281.914703,453.318146,-285.133606C452.56601,-286.630463,450.493134,-288.154297,448.848267,-288.371246C445.186188,-288.854187,441.416595,-288.521942,437.690826,-288.521942C440.246857,-291.721405,442.836334,-294.087524,445.780426,-295.866943C448.659821,-297.607269,448.895264,-299.595367,447.86496,-302.463654C446.700989,-305.704132,445.885162,-309.069641,444.60318,-313.458496C449.581451,-310.039673,453.618591,-307.267151,457.690308,-304.470886C460.257355,-306.289551,462.557281,-307.918976,465.42218,-309.971741z"/>
    <path transform="matrix(-0.06558,0,0,-0.06558,322.529114,-291.67395)" style="stroke:#000000;stroke-width:0.762426mm;fill:none" d="M427.709534,-269.525726C425.406067,-265.320282,427.076782,-262.569336,430.813477,-260.2836C433.251404,-258.792358,435.421967,-256.863983,437.712311,-255.131409C437.600159,-254.80632,437.488037,-254.481232,437.375885,-254.156143C432.657593,-254.156143,427.939301,-254.156143,423.32428,-254.156143C421.425598,-249.156342,419.710907,-244.641052,417.513702,-238.855209C415.789154,-243.69252,414.312958,-247.039688,413.437042,-250.537186C412.717102,-253.411758,411.249573,-254.161469,408.503876,-253.988083C405.012634,-253.767639,401.496948,-253.934723,397.991791,-253.934723C400.138153,-256.960815,402.265869,-259.095795,404.739746,-260.695465C408.081207,-262.856171,409.505341,-265.131256,407.59137,-269.148499C406.32193,-271.812988,405.907776,-274.884979,404.842957,-278.7453C409.69104,-275.399628,413.611298,-272.694244,417.545959,-269.978912C421.624329,-272.733521,425.491455,-275.345459,430.280853,-278.580322C429.261414,-275.039551,428.58197,-272.679626,427.709534,-269.525726z"/>
    <path transform="matrix(-0.06558,0,0,-0.06558,322.529114,-291.67395)" style="stroke:#000000;stroke-width:0.762426mm;fill:none" d="M322.580566,-268.746368C321.759766,-271.689941,320.938995,-274.633484,319.813721,-278.668915C324.771515,-275.298828,328.694122,-272.632385,332.564392,-270.001526C336.66333,-272.785095,340.525574,-275.407928,345.354156,-278.687012C344.281433,-274.924683,343.911438,-272.239471,342.775208,-269.931519C340.42749,-265.162872,342.174957,-262.301178,346.345764,-259.899506C348.66095,-258.566315,350.664764,-256.692383,352.808929,-255.062149C348.574677,-254.054871,344.785248,-254.337173,341.075775,-253.915787C339.594055,-253.747467,337.692719,-252.320068,337.020203,-250.954681C335.329163,-247.521317,334.229309,-243.796768,332.49469,-239.115524C330.798279,-243.888351,329.775757,-247.582108,328.135712,-250.977585C327.478943,-252.337418,325.539398,-253.742264,324.05014,-253.905151C320.267059,-254.318893,316.408478,-254.042633,312.580139,-254.042633C315.288666,-257.348907,317.979614,-259.850708,321.048981,-261.736816C323.826202,-263.443451,323.97879,-265.379242,322.580566,-268.746368z"/>
    <path transform="matrix(-0.06558,0,0,-0.06558,322.529114,-291.67395)" style="stroke:#000000;stroke-width:0.762426mm;fill:none" d="M518.166504,-218.951126C517.261536,-219.018021,516.356567,-219.0849,514.415283,-219.228378C518.22998,-222.206192,521.415771,-224.297745,524.057678,-226.93425C525.248352,-228.122528,526.038269,-230.489868,525.812012,-232.159988C525.328003,-235.733673,524.064026,-239.201706,522.789917,-243.938004C526.627869,-241.199936,529.440308,-239.43486,531.964417,-237.324921C534.498352,-235.206818,536.570618,-234.844864,539.243713,-237.231033C541.704529,-239.427704,544.642395,-241.090027,548.391418,-243.698257C547.074463,-239.170792,546.331055,-235.941437,545.183777,-232.862595C544.061218,-229.850052,544.921509,-227.946045,547.488159,-226.222931C550.359985,-224.294907,553.008728,-222.0345,556.843506,-219.079697C551.60376,-219.079697,547.961792,-218.965027,544.331238,-219.119202C541.828064,-219.22551,540.469482,-218.618103,539.790588,-215.866806C538.884094,-212.193008,537.26178,-208.695831,535.534363,-204.001816C534.645996,-206.40921,534.234009,-207.474335,533.858215,-208.552048C530.195801,-219.054108,530.19751,-219.054703,518.166504,-218.951126z"/>
    <path transform="matrix(-0.06558,0,0,-0.06558,322.529114,-291.67395)" style="stroke:#000000;stroke-width:0.762426mm;fill:none" d="M265.593109,-272.634186C265.248657,-271.526367,265.031769,-270.357574,264.536987,-269.321533C262.674561,-265.421783,263.312653,-262.600311,267.394073,-260.437195C270.042999,-259.033234,272.279205,-256.850739,274.700317,-255.017044C270.603546,-254.006729,266.853241,-253.854507,263.122437,-254.058517C260.495056,-254.202179,259.28952,-253.255386,258.584961,-250.713654C257.590881,-247.127365,256.121857,-243.672699,254.427414,-238.973511C252.789001,-243.601532,251.314163,-246.940689,250.458496,-250.43161C249.69725,-253.53743,248.018021,-254.24649,245.125931,-254.064697C241.588074,-253.842316,238.025589,-254.011749,234.502975,-254.011749C234.502975,-254.750244,234.438385,-254.978851,234.512253,-255.039856C238.077988,-257.98526,243.478577,-260.302856,244.728622,-264.018127C246.025665,-267.873108,243.305618,-273.07962,242.2034,-278.361145C246.557129,-275.364502,250.460373,-272.677887,254.379791,-269.980164C258.454346,-272.750458,262.378082,-275.418213,267.070709,-278.608734C266.491791,-276.216858,266.149658,-274.803375,265.593109,-272.634186z"/>
    <path transform="matrix(-0.06558,0,0,-0.06558,322.529114,-291.67395)" style="stroke:#000000;stroke-width:0.762426mm;fill:none" d="M225.421219,-241.77771C226.004547,-242.070541,226.587891,-242.363373,227.856323,-243.000137C226.779755,-239.152023,226.141235,-235.765411,224.867767,-232.637283C223.664352,-229.681259,224.694672,-228.053009,226.995926,-226.462769C229.88797,-224.464294,232.652679,-222.28154,235.472336,-220.178299C235.330475,-219.804886,235.188629,-219.431488,235.046768,-219.058075C230.164703,-219.058075,225.282623,-219.058075,220.697525,-219.058075C218.894196,-214.013107,217.302765,-209.560898,215.213501,-203.715958C213.045364,-209.70163,211.383774,-214.288849,209.595413,-219.226044C204.784668,-219.226044,200.080948,-219.226044,194.434845,-219.226044C197.556885,-221.722137,199.726593,-223.79393,202.213394,-225.363281C205.647186,-227.530243,206.863434,-229.981216,205.172607,-233.969772C204.024277,-236.678589,203.638062,-239.71048,202.637802,-243.68309C207.5224,-240.288132,211.317642,-237.650299,215.23468,-234.927826C218.551529,-237.132141,221.72049,-239.23819,225.421219,-241.77771z"/>
    <path transform="matrix(-0.06558,0,0,-0.06558,322.529114,-291.67395)" style="stroke:#000000;stroke-width:0.762426mm;fill:none" d="M385.296844,-309.849182C381.918945,-298.869507,381.919556,-298.870239,390.70578,-291.711578C391.555908,-291.018921,392.392578,-290.309814,394.29187,-288.729218C389.63623,-288.729218,386.222778,-288.572113,382.831146,-288.776581C379.871338,-288.955017,378.375946,-288.055054,377.649597,-284.94989C376.825378,-281.426331,375.19989,-278.090179,373.527405,-273.614563C371.897949,-278.124298,370.461243,-281.327148,369.612823,-284.678894C368.85318,-287.679779,367.293701,-288.689636,364.332428,-288.528717C360.824646,-288.338013,357.298553,-288.483917,352.368225,-288.483917C356.145447,-291.43692,358.450104,-293.654022,361.131348,-295.230865C364.562561,-297.248749,364.886566,-299.674408,363.562622,-303.103912C362.421539,-306.059845,361.788483,-309.211853,360.631927,-313.345398C365.610718,-309.899933,369.544159,-307.177856,373.554138,-304.402863C377.014801,-306.820221,380.25119,-309.146057,383.589417,-311.315247C383.936493,-311.540802,384.887756,-310.836609,385.296844,-309.849182z"/>
    <path transform="matrix(-0.06558,0,0,-0.06558,322.529114,-291.67395)" style="stroke:#000000;stroke-width:0.762426mm;fill:none" d="M297.029816,-144.525482C295.82074,-141.259995,294.611694,-137.994507,292.941772,-133.48436C291.453217,-137.743912,290.271271,-140.484909,289.551392,-143.342316C288.569122,-147.241196,286.742218,-149.29245,282.31839,-148.640396C279.304047,-148.19606,276.171204,-148.555405,271.731262,-148.555405C275.73172,-151.684525,278.467804,-154.070282,281.455414,-156.082611C283.779144,-157.647751,284.309113,-159.238724,283.344482,-161.900757C282.114502,-165.294998,281.387451,-168.871475,280.136841,-173.506363C284.236359,-170.553635,287.295898,-168.570618,290.088776,-166.264603C292.11673,-164.590134,293.677399,-164.537933,295.739807,-166.187805C298.546112,-168.43277,301.594574,-170.375061,305.787964,-173.325897C304.43338,-168.594284,303.640442,-165.276306,302.518707,-162.073486C301.558258,-159.3311,301.928894,-157.491913,304.590637,-155.871765C307.557495,-154.065857,310.217529,-151.755859,313.011108,-149.665298C308.85849,-148.754486,305.213501,-148.572723,301.596649,-148.813492C298.834076,-148.997421,297.637238,-147.788437,297.029816,-144.525482z"/>
    <path transform="matrix(-0.06558,0,0,-0.06558,322.529114,-291.67395)" style="stroke:#000000;stroke-width:0.762426mm;fill:none" d="M466.732758,-230.532867C467.632935,-229.139786,468.286743,-227.467712,469.483673,-226.410721C472.111359,-224.090332,475.013885,-222.081238,477.804199,-219.945068C473.702179,-219.009155,470.081055,-218.853928,466.480591,-219.059601C463.73407,-219.216476,462.312988,-218.511047,461.638214,-215.554123C460.812775,-211.937012,459.236816,-208.491135,457.57959,-203.829803C455.425262,-209.667603,453.718506,-214.292587,451.942413,-219.105469C446.990631,-219.105469,442.25119,-219.105469,436.410095,-219.105469C438.985199,-221.133362,440.591309,-222.798264,442.530273,-223.848648C447.916199,-226.766235,449.480774,-230.734497,446.8862,-236.407394C445.985962,-238.375732,445.632324,-240.59407,444.686981,-243.891174C449.756561,-240.347366,453.663666,-237.61618,457.602783,-234.86261C461.66214,-237.591782,465.546539,-240.203323,470.371277,-243.447067C468.984924,-238.604355,467.945923,-234.975037,466.732758,-230.532867z"/>
    <path transform="matrix(-0.06558,0,0,-0.06558,322.529114,-291.67395)" style="stroke:#000000;stroke-width:0.762426mm;fill:none" d="M224.871506,-371.7789C225.35228,-370.121643,225.336594,-367.954102,226.411896,-366.907928C229.068695,-364.32309,232.225464,-362.252136,235.18129,-359.97464C231.305283,-358.848541,227.736206,-358.714111,224.183044,-358.894073C221.661545,-359.02182,220.287949,-358.370331,219.555557,-355.692261C218.555008,-352.033661,216.955795,-348.538788,215.201614,-343.880737C213.113586,-349.666809,211.494583,-354.153198,209.692932,-359.145752C204.789261,-359.145752,199.993576,-359.145752,195.197906,-359.145752C194.873505,-359.47052,194.549103,-359.795288,194.224686,-360.120056C205.825089,-364.230988,207.587555,-371.81427,202.99762,-381.667175C202.906631,-381.862488,203.182724,-382.22879,203.408112,-382.84491C207.419037,-380.077484,211.353622,-377.362701,215.234329,-374.685089C219.379669,-377.490509,223.23822,-380.101807,228.033722,-383.347229C226.796097,-378.901245,225.910492,-375.719788,224.871506,-371.7789z"/>
    <path transform="matrix(-0.06558,0,0,-0.06558,322.529114,-291.67395)" style="stroke:#000000;stroke-width:0.762426mm;fill:none" d="M216.587997,-276.88974C216.249695,-276.211639,215.911392,-275.533569,215.180359,-274.068268C213.741592,-278.046722,212.227295,-281.195648,211.503342,-284.516846C210.720184,-288.109497,208.725006,-288.909027,205.472229,-288.706879C202.175125,-288.501923,198.855362,-288.661591,194.11673,-288.661591C198.092484,-291.733826,200.602814,-293.916809,203.355911,-295.731506C206.024612,-297.490601,206.657013,-299.425629,205.493256,-302.44458C204.317596,-305.494354,203.68457,-308.753296,202.460678,-313.20517C204.950836,-311.524414,206.414688,-310.584778,207.827942,-309.574371C215.290512,-304.238953,215.282288,-304.238129,222.772247,-309.55072C224.224472,-310.58078,225.71933,-311.55072,228.279694,-313.282257C227.143097,-309.382172,226.610992,-306.622955,225.539551,-304.092072C223.803604,-299.991394,224.191772,-296.989288,228.483215,-294.711884C230.935089,-293.410736,232.97464,-291.332611,236.014572,-288.971527C233.90062,-288.834198,233.092072,-288.748077,232.282272,-288.734161C220.851669,-288.537994,220.851624,-288.540314,216.587997,-276.88974z"/>
    <path transform="matrix(-0.06558,0,0,-0.06558,322.529114,-291.67395)" style="stroke:#000000;stroke-width:0.762426mm;fill:none" d="M152.287018,-359.148529C147.650146,-359.148529,143.01326,-359.148529,138.42009,-359.148529C136.595184,-354.069183,134.941681,-349.466919,132.843781,-343.627747C131.471481,-347.542328,130.270493,-350.068329,129.721939,-352.728912C128.72081,-357.584442,126.305656,-359.802521,121.135384,-358.937378C118.526016,-358.500763,115.783302,-358.861115,113.100891,-358.861115C115.549057,-362.006317,118.001839,-364.24234,120.744881,-366.033936C123.422607,-367.782837,123.981598,-369.728729,122.920502,-372.683289C121.766434,-375.896729,121.045898,-379.26593,119.835159,-383.660339C124.845284,-380.198608,128.878555,-377.411835,132.839523,-374.675018C136.931885,-377.467743,140.689499,-380.032013,145.04158,-383.001953C143.870682,-377.627106,141.118011,-372.519012,142.413666,-368.834503C143.725342,-365.104431,149.041931,-362.782654,152.287018,-359.148529z"/>
    <path transform="matrix(-0.06558,0,0,-0.06558,322.529114,-291.67395)" style="stroke:#000000;stroke-width:0.762426mm;fill:none" d="M135.009766,-209.599243C134.397095,-208.127899,133.784439,-206.656555,132.736374,-204.139587C131.45163,-207.741379,130.259949,-210.250198,129.678726,-212.893265C128.625702,-217.681747,126.236107,-219.947311,121.072807,-219.058624C118.506111,-218.616852,115.800568,-218.981796,111.852676,-218.981796C114.396179,-221.062714,115.661377,-222.130341,116.960373,-223.155182C124.179893,-228.851196,124.180237,-228.846939,121.736191,-237.583008C121.259949,-239.285309,120.811142,-240.995285,120.029503,-243.885773C122.69622,-242.000153,124.424431,-240.80983,126.119461,-239.57399C132.765533,-234.728271,132.755142,-234.732162,139.353134,-239.382553C141.064667,-240.588882,142.830704,-241.717834,145.531906,-243.524567C144.328888,-239.284088,143.647354,-236.05278,142.481186,-233.00705C141.342575,-230.033279,142.001923,-228.088745,144.576187,-226.301712C147.40596,-224.33728,150.001617,-222.035614,153.78801,-219.011292C147.536743,-219.011292,142.904541,-219.011292,138.204575,-219.011292C137.169327,-215.977173,136.205765,-213.153168,135.009766,-209.599243z"/>
    <path transform="matrix(-0.06558,0,0,-0.06558,322.529114,-291.67395)" style="stroke:#000000;stroke-width:0.762426mm;fill:none" d="M448.434662,-370.514465C447.327637,-374.484222,446.220612,-378.453949,444.824463,-383.460388C449.61142,-380.182892,453.522919,-377.504822,457.565125,-374.737244C461.555939,-377.428925,465.501282,-380.089935,470.2229,-383.274536C469.054108,-378.881439,467.812958,-375.434265,467.334991,-371.884338C467.110077,-370.213959,467.852905,-367.844452,469.032013,-366.670258C471.618408,-364.094635,474.762421,-362.079071,477.678772,-359.834839C473.849854,-358.870361,470.403473,-358.710175,466.979706,-358.9198C464.10791,-359.095642,462.474548,-358.420807,461.701691,-355.280823C460.829773,-351.738373,459.179138,-348.387634,457.479462,-343.938629C455.797852,-348.660431,454.773438,-352.358856,453.126953,-355.755768C452.468445,-357.114441,450.516937,-358.49942,449.018036,-358.668732C445.326111,-359.085785,441.55542,-358.805298,437.063019,-358.805298C441.414032,-362.888519,445.055267,-366.305664,448.434662,-370.514465z"/>
    <path transform="matrix(-0.06558,0,0,-0.06558,322.529114,-291.67395)" style="stroke:#000000;stroke-width:0.762426mm;fill:none" d="M304.133423,-238.20137C303.792542,-237.091446,303.589844,-235.914063,303.086731,-234.883331C300.958466,-230.52356,302.279633,-227.483643,306.309601,-225.062195C308.71933,-223.614243,310.834442,-221.67601,313.082001,-219.958145C312.913208,-219.643051,312.744415,-219.327942,312.575623,-219.012848C307.809235,-219.012848,303.042877,-219.012848,298.3461,-219.012848C296.591736,-214.106323,294.953827,-209.525513,292.874115,-203.709076C290.738861,-209.645874,289.123322,-214.137787,287.298584,-219.211273C282.542755,-219.211273,277.712738,-219.211273,271.816101,-219.211273C275.666107,-222.27063,278.427307,-224.67627,281.409882,-226.765961C283.677216,-228.354523,284.245789,-229.988968,283.283508,-232.648392C282.125549,-235.848755,281.472076,-239.231644,280.259644,-243.825912C285.27594,-240.268646,289.142944,-237.526413,292.877655,-234.877975C295.269806,-236.539368,297.16861,-237.890991,299.101929,-239.19136C300.925049,-240.417618,302.784515,-241.589874,305.453888,-243.321716C304.895874,-241.148758,304.614868,-240.054459,304.133423,-238.20137z"/>
    <path transform="matrix(-0.06558,0,0,-0.06558,322.529114,-291.67395)" style="stroke:#000000;stroke-width:0.762426mm;fill:none" d="M375.199585,-348.190796C374.741791,-347.000977,374.283997,-345.811188,373.499237,-343.771576C371.826843,-348.377625,370.713684,-352.223053,368.996735,-355.776703C368.338531,-357.139069,366.380188,-358.528473,364.877899,-358.698242C361.176178,-359.116516,357.395386,-358.835236,352.373322,-358.835236C354.630615,-360.662964,355.820801,-361.695923,357.080688,-362.635376C364.795319,-368.388245,364.792786,-368.379028,362.187439,-377.879883C361.75885,-379.442841,361.433136,-381.034027,360.834229,-383.566101C365.603394,-380.20929,369.608582,-377.390198,373.544006,-374.620239C377.698242,-377.479767,381.477509,-380.081207,386.198975,-383.331207C385.000214,-378.972595,384.339996,-375.7229,383.195679,-372.653717C382.083221,-369.670135,382.718109,-367.723846,385.352509,-365.971649C388.155243,-364.107483,390.719604,-361.884979,393.388062,-359.818939C393.25473,-359.479767,393.121399,-359.140594,392.988068,-358.801422C388.26358,-358.801422,383.539093,-358.801422,379.000153,-358.801422C377.713959,-355.1604,376.610443,-352.036499,375.199585,-348.190796z"/>
    <path transform="matrix(-0.06558,0,0,-0.06558,322.529114,-291.67395)" style="stroke:#000000;stroke-width:0.762426mm;fill:none" d="M555.223206,-359.112549C550.468445,-359.112549,545.713684,-359.112549,541.201111,-359.112549C539.248962,-353.807281,537.598267,-349.321198,535.507813,-343.640076C533.843323,-348.462463,532.530151,-351.858032,531.515503,-355.340546C530.752319,-357.959991,529.461304,-359.107025,526.57196,-358.87677C522.96991,-358.589722,519.327576,-358.807831,514.540833,-358.807831C519.484436,-362.718628,523.242554,-365.69162,526.984314,-368.651611C525.726379,-373.427856,524.547241,-377.904846,523.110291,-383.360901C527.886963,-380.072449,531.693054,-377.452271,535.612,-374.754333C539.634277,-377.478058,543.555542,-380.133362,548.262878,-383.320953C546.890808,-377.921906,543.871033,-372.806183,545.142334,-369.205505C546.509949,-365.332031,551.902527,-362.879639,555.223206,-359.112549z"/>
    <path transform="matrix(-0.06558,0,0,-0.06558,322.529114,-291.67395)" style="stroke:#000000;stroke-width:0.762426mm;fill:none" d="M273.237122,-289.131195C275.627075,-291.133301,277.803436,-293.502258,280.458893,-295.048309C284.098236,-297.167206,284.525238,-299.658752,283.034576,-303.285065C281.86145,-306.138794,281.213928,-309.208618,280.004791,-313.290344C284.070496,-310.495544,287.270569,-308.495819,290.233185,-306.190857C292.298035,-304.584381,293.868256,-304.583252,295.915466,-306.233307C298.650482,-308.437714,301.654541,-310.308289,305.673889,-313.110657C304.471069,-308.809814,303.987274,-305.836273,302.810547,-303.168365C301.112915,-299.319397,302.386932,-297.024902,305.684052,-294.994476C308.233765,-293.424316,310.514587,-291.417542,314.005554,-288.781281C308.928253,-288.781281,305.434814,-288.583862,301.975006,-288.840271C298.895538,-289.068512,297.565582,-287.945618,296.877747,-284.932739C296.094177,-281.500732,294.626526,-278.224915,293.364929,-274.620453C292.584412,-275.328552,292.187164,-275.51181,292.160889,-275.73819C290.864899,-286.898315,284.313263,-290.560638,273.237122,-289.131195z"/>
    <path transform="matrix(-0.06558,0,0,-0.06558,322.529114,-291.67395)" style="stroke:#000000;stroke-width:0.762426mm;fill:none" d="M288.920349,-377.33606C291.634491,-374.5867,294.137482,-374.896118,296.980011,-377.405884C299.219574,-379.38327,301.929901,-380.827484,305.469025,-383.206055C304.218933,-378.838898,303.572174,-375.744995,302.438507,-372.841217C301.169617,-369.591003,302.138428,-367.602051,304.930786,-365.794647C307.727386,-363.984467,310.254791,-361.758392,313.959015,-358.896606C308.634827,-358.896606,304.813171,-359.141724,301.053467,-358.766235C299.702118,-358.631256,297.910553,-357.26712,297.342285,-356.003967C295.749695,-352.463837,294.690186,-348.683807,292.986053,-343.737946C291.320831,-348.289734,289.828949,-351.419312,289.063721,-354.717499C288.245972,-358.242126,286.362183,-359.143188,283.025635,-358.863586C279.684692,-358.583588,276.301941,-358.802063,272.937531,-358.802063C275.474396,-361.965637,278.044098,-364.299286,280.929077,-366.138428C283.708862,-367.910522,284.036835,-369.887634,282.981598,-372.798035C281.843353,-375.937347,281.157959,-379.240875,279.976624,-383.564972C283.463531,-381.145538,285.898773,-379.455841,288.920349,-377.33606z"/>
    <path transform="matrix(-0.06558,0,0,-0.06558,322.529114,-291.67395)" style="stroke:#000000;stroke-width:0.762426mm;fill:none" d="M216.714355,-277.259644C220.851624,-288.540314,220.851669,-288.537994,232.282272,-288.734161C233.092072,-288.748077,233.90062,-288.834198,236.014572,-288.971527C232.97464,-291.332611,230.935089,-293.410736,228.483215,-294.711884C224.191772,-296.989288,223.803604,-299.991394,225.539551,-304.092072C226.610992,-306.622955,227.143097,-309.382172,228.279694,-313.282257C225.71933,-311.55072,224.224472,-310.58078,222.772247,-309.55072C215.282288,-304.238129,215.290512,-304.238953,207.827942,-309.574371C206.414688,-310.584778,204.950836,-311.524414,202.460678,-313.20517C203.68457,-308.753296,204.317596,-305.494354,205.493256,-302.44458C206.657013,-299.425629,206.024612,-297.490601,203.355911,-295.731506C200.602814,-293.916809,198.092484,-291.733826,194.11673,-288.661591C198.855362,-288.661591,202.175125,-288.501923,205.472229,-288.706879C208.725006,-288.909027,210.720184,-288.109497,211.503342,-284.516846C212.227295,-281.195648,213.741592,-278.046722,215.180359,-274.068268C215.911392,-275.533569,216.249695,-276.211639,216.714355,-277.259644z"/>
</svg>
