<?xml version="1.0" encoding="UTF-8" standalone="no"?>
<svg xmlns="http://www.w3.org/2000/svg" xmlns:xlink="http://www.w3.org/1999/xlink" width="90.216mm" height="41.404mm" viewBox="54.500000 -46.701897 90.215698 41.403782">
    <path transform="matrix(1,0,0,-1,-75,57.000008)" style="stroke:#000000;stroke-width:0.050000mm;fill:none" d="M166.5,82C166.5,73.866158,162.250778,66.958344,154.955093,64.479874C153.505447,63.987293,151.909958,64.185493,150.626846,65.020805C150.158325,65.324028,148.599716,65.5,148,65.5C147.400024,65.5,145.841187,65.323875,145.37236,65.020508C144.091187,64.186913,142.498688,63.988304,141.050858,64.478271C133.752014,66.954651,129.5,73.863983,129.5,82C129.5,90.132782,133.747864,97.039856,141.042114,99.519165C142.492416,100.012917,144.089111,99.815063,145.373077,98.97924C145.841614,98.675987,147.400253,98.5,148,98.5C148.6008,98.5,150.160355,98.676605,150.629578,98.980736C151.911774,99.814148,153.505249,100.011803,154.953354,99.520294C162.249969,97.042717,166.5,90.13446,166.5,82z"/>
    <path transform="matrix(1,0,0,-1,38.5,26.999954)" style="stroke:#000000;stroke-width:0.050000mm;fill:none" d="M88.715691,70.0065C90.849121,70.0065,93.685333,71.279045,94.506691,73.106506C94.651093,73.431259,94.957855,73.653816,95.311241,73.691643C95.664635,73.729462,96.011543,73.576881,96.222488,73.29084L101.682213,64.531494C104,60.999966,106.215691,57.527325,106.215691,53.003654C106.215691,48.478935,104,44.999962,101.682213,41.468506L96.222488,32.709156C96.011559,32.423138,95.664673,32.270554,95.311302,32.308353C94.957932,32.346157,94.651176,32.568665,94.506744,32.893383C93.685417,34.720898,90.849167,35.9935,88.715691,35.9935C86.578369,35.9935,84.739357,34.716312,83.917595,32.883652C83.773727,32.559196,83.467743,32.336567,83.114922,32.298069C82.762093,32.259571,82.415298,32.410969,82.203667,32.695889L76.072098,39.950912C75.347282,40.792961,74.638878,41.751392,73.881363,42.715294C73.759911,42.912376,73.603447,43.085327,73.420883,43.227669L72.326515,44.08091C71.975136,44.354874,71.542336,44.503654,71.096779,44.503654L67.784309,44.503654C66.127457,44.503654,64.784309,45.846802,64.784309,47.503654L64.784309,58.503654C64.784309,60.160507,66.127457,61.503654,67.784309,61.503654L71.094009,61.503654C71.541267,61.503654,71.975616,61.653572,72.327652,61.929451L73.432899,62.795586C73.613968,62.937485,73.769196,63.10955,73.889793,63.305466C74.606125,64.244354,75.318596,65.143417,76.072113,66.04911L82.203667,73.304108C82.415459,73.589249,82.762604,73.740646,83.115669,73.701851C83.468735,73.663055,83.774727,73.439888,83.918213,73.114967C84.74028,71.283043,86.578911,70.0065,88.715691,70.0065z"/>
</svg>
