<?xml version="1.0" encoding="UTF-8" standalone="no"?>
<svg xmlns="http://www.w3.org/2000/svg" xmlns:xlink="http://www.w3.org/1999/xlink" width="303.461mm" height="187.863mm" viewBox="4.269531 -207.862579 303.460938 187.862579">
    <path transform="matrix(-1,0,0,-1,163.830719,40.000015)" style="stroke:#000000;stroke-width:0.050000mm;fill:none" d="M105,210.992767L106,210.992767"/>
    <path transform="matrix(-1,0,0,-1,163.830719,40.000015)" style="stroke:#000000;stroke-width:0.050000mm;fill:none" d="M105,91L105,63.005508C105,62,103,60,101.013947,60.000015L77.001015,60.000015C75.016876,60,73.016876,62,73.016876,63.005508L73.01384,91L72.004272,91L69.995728,74.597458L62.144073,87.3564C62.047073,87.514008,61.995728,87.69545,61.995728,87.880508L61.995728,91L62,91L62,214L72,214L72,211.021057L73.000336,211.021057L73,210.998367C73,212.003876,75.013947,214.000015,77,214L100.998413,214.000015C102.984459,214.000031,105,211.998276,105,210.992767"/>
    <circle transform="matrix(-1,0,0,-1,74.830719,-163.499985)" style="stroke:#000000;stroke-width:0.050000mm;fill:none" r="2.25" cx="0" cy="0"/>
    <circle transform="matrix(-1,0,0,-1,74.830719,-150.999985)" style="stroke:#000000;stroke-width:0.050000mm;fill:none" r="2.25" cx="0" cy="0"/>
    <circle transform="matrix(-1,0,0,-1,74.830719,-85.999985)" style="stroke:#000000;stroke-width:0.050000mm;fill:none" r="2.25" cx="0" cy="0"/>
    <circle transform="matrix(-1,0,0,-1,74.830719,-63.999985)" style="stroke:#000000;stroke-width:0.050000mm;fill:none" r="2.25" cx="0" cy="0"/>
    <path transform="matrix(-1,0,0,-1,149,138.000015)" style="stroke:#000000;stroke-width:0.050000mm;fill:none" d="M90.169281,189L91.169304,189L93.177841,172.597458L101.029488,185.3564C101.126488,185.514008,101.177841,185.69545,101.177841,185.880508L101.177841,220.256287C101.177841,220.424896,101.220467,220.590759,101.301773,220.738449L106.706619,228.352814C106.787918,228.500519,106.830551,228.666382,106.830551,228.834991L106.830551,231.233612C106.836349,231.222778,106.836563,231.211929,106.830551,231.201126L90.169281,231.12413L90.169281,286.999939L90.169281,286.999939C90,292,94.303314,293.999969,98.169312,293.999969C101.070892,293.999969,103.560127,292.234528,104.621521,289.719238C104.710274,289.24646,105.291992,288.961395,105.773041,288.961395L105.866783,288.961395C106.419052,288.961395,106.822037,289.467224,106.822037,290.019501L106.822037,294.762482C106.822037,294.931091,106.779404,295.096954,106.698097,295.244659L101.293243,302.859009C101.211937,303.006714,101.169312,303.172577,101.169312,303.341187L101.169312,312L92.169312,312L91.169312,312L91.169312,308.992767"/>
    <path transform="matrix(1,0,0,-1,156,-205.749802)" style="stroke:#000000;stroke-width:0.050000mm;fill:none" d="M-71.865723,-1.35498L-70.602539,-1.35498L-70.602539,-0.500488L-71.865723,-0.500488C-71.875107,-0.211219,-71.870872,0.078316,-71.853027,0.367188C-71.851395,0.561048,-71.782463,0.748654,-71.658203,0.897461C-71.4599,1.059736,-71.205139,1.136513,-70.950195,1.11084C-70.733154,1.109696,-70.516647,1.089271,-70.303223,1.049805L-70.138672,2.008301C-70.685516,2.132975,-71.251602,2.147745,-71.804199,2.051758C-72.425995,1.920435,-72.885345,1.392302,-72.929199,0.758301C-72.961823,0.339543,-72.971603,-0.080667,-72.958496,-0.500488L-73.928711,-0.500488L-73.928711,-1.35498L-72.958496,-1.35498L-72.958496,-6.982422L-71.865723,-6.982422L-71.865723,-1.35498zM3.817871,-5.926758L-0.570801,-5.926758L-0.363281,-5.628418C-0.040356,-5.24625,0.320013,-4.897332,0.712402,-4.586914L1.448242,-3.961914C2.044769,-3.475048,2.595403,-2.934547,3.093262,-2.347168C3.540643,-1.827652,3.792694,-1.167897,3.805664,-0.482422C3.815815,0.66121,3.023693,1.655589,1.906738,1.901367C1.063722,2.113446,0.172629,2.016977,-0.605469,1.629395C-1.21421,1.283461,-1.645843,0.693254,-1.791016,0.008301C-1.838726,-0.187007,-1.871536,-0.385661,-1.88916,-0.585938L-0.759766,-0.702148L-0.750977,-0.49707C-0.736497,-0.052893,-0.545141,0.367966,-0.216844,0.667472C0.111453,0.966978,0.548061,1.119009,0.991699,1.092773C1.772388,1.143605,2.474436,0.619037,2.646973,-0.144043C2.725019,-0.660136,2.594303,-1.185988,2.283691,-1.605469C1.875474,-2.164383,1.39789,-2.669038,0.862305,-3.107422C0.488831,-3.42514,0.125854,-3.731842,-0.25,-4.047363L-0.637207,-4.397461C-1.129428,-4.824557,-1.536998,-5.340646,-1.838379,-5.918457C-2.016355,-6.244241,-2.105466,-6.611299,-2.09668,-6.982422L3.817871,-6.982422L3.817871,-5.926758zM-18.673828,2.001953L-19.381836,2.001953L-19.550293,1.709961C-20.17276,0.858833,-21.006672,0.185307,-21.969727,-0.244141L-21.969727,-1.306152C-21.16502,-0.997236,-20.42132,-0.548868,-19.772461,0.018555L-19.772461,-6.982422L-18.673828,-6.982422L-18.673828,2.001953zM-12.702148,-7.126953C-12.337646,-7.10747,-11.981708,-7.008821,-11.65918,-6.837891C-11.019242,-6.449603,-10.550731,-5.832541,-10.348633,-5.111816C-10.087176,-4.180048,-9.979005,-3.212106,-10.02832,-2.245605C-10.009165,-1.38666,-10.157797,-0.532024,-10.46582,0.27002C-10.65348,0.780024,-10.984756,1.225117,-11.419434,1.55127C-12.319498,2.142192,-13.478016,2.16119,-14.396973,1.600098C-15.011572,1.143039,-15.441938,0.480683,-15.609863,-0.266602C-15.83325,-1.21977,-15.912909,-2.201013,-15.846191,-3.177734C-15.827064,-3.854648,-15.715348,-4.525759,-15.51416,-5.172363C-15.351818,-5.736505,-15.022928,-6.238862,-14.570801,-6.613281C-14.034271,-7.012748,-13.367477,-7.196041,-12.702148,-7.126953zM-3.134277,-5.926758L-7.522461,-5.926758C-7.267976,-5.541229,-6.957434,-5.195799,-6.601074,-4.901855C-6.238998,-4.58419,-5.873375,-4.270966,-5.503906,-3.961914L-5.239258,-3.731445C-4.646,-3.244965,-4.114984,-2.687218,-3.658203,-2.070801C-3.066401,-1.261712,-2.981736,-0.187722,-3.439453,0.704102C-3.835651,1.395409,-4.53441,1.859861,-5.325195,1.95752C-6.085146,2.089555,-6.867334,1.974562,-7.557129,1.629395C-8.166275,1.283908,-8.598052,0.693503,-8.742676,0.008301C-8.790386,-0.187007,-8.823196,-0.385661,-8.84082,-0.585938L-7.711914,-0.702148L-7.703125,-0.49707C-7.68848,-0.052864,-7.496989,0.367958,-7.168625,0.667441C-6.840261,0.966924,-6.403636,1.118972,-5.959961,1.092773C-5.179373,1.143244,-4.477542,0.618838,-4.304688,-0.144043C-4.227233,-0.660111,-4.357892,-1.185731,-4.667969,-1.605469C-5.076253,-2.164331,-5.553828,-2.668977,-6.089355,-3.107422C-6.447968,-3.412231,-6.841461,-3.744629,-7.202148,-4.047363L-7.588867,-4.397461C-8.08102,-4.824752,-8.488714,-5.340788,-8.790527,-5.918457C-8.968233,-6.244331,-9.057166,-6.611349,-9.04834,-6.982422L-3.134277,-6.982422L-3.134277,-5.926758zM-133.249023,1.965332L-134.347656,1.965332L-134.347656,0.702148L-133.249023,0.702148L-133.249023,1.965332zM9.878418,1.965332L8.779785,1.965332L8.779785,0.702148L9.878418,0.702148L9.878418,1.965332zM61.27002,1.965332L60.171387,1.965332L60.171387,-6.982422L61.27002,-6.982422L61.27002,1.965332zM147.458008,-4.413086L148.23291,-3.668457L150.375488,-6.982422L151.730469,-6.982422L149.001953,-2.905273L151.47998,-0.500488L150.058105,-0.500488L147.458008,-3.137207L147.458008,1.965332L146.359375,1.965332L146.359375,-6.982422L147.458008,-6.982422L147.458008,-4.413086zM77.975586,-4.413086L78.750488,-3.668457L80.893066,-6.982422L82.248047,-6.982422L79.519531,-2.905273L81.997559,-0.500488L80.575684,-0.500488L77.975586,-3.137207L77.975586,1.965332L76.876953,1.965332L76.876953,-6.982422L77.975586,-6.982422L77.975586,-4.413086zM92.755371,-7.11377C93.384979,-7.057851,93.950485,-6.705268,94.277832,-6.164551L94.277832,-6.982422L95.297363,-6.982422L95.297363,1.965332L94.20459,1.965332L94.20459,-1.245117L94.050781,-1.056152C93.535202,-0.501046,92.772011,-0.246284,92.026367,-0.380371C91.106979,-0.502645,90.328514,-1.119644,89.999512,-1.986816C89.552116,-3.120579,89.564194,-4.383307,90.033203,-5.508301C90.398949,-6.356055,91.173538,-6.957596,92.085449,-7.102051C92.307434,-7.133369,92.532425,-7.137311,92.755371,-7.11377zM68.362305,-7.062012C68.577919,-7.046661,68.79216,-7.015987,69.003418,-6.970215L68.844727,-6L68.574707,-6.031738C68.376793,-6.07337,68.170372,-6.049351,67.987305,-5.963379C67.837952,-5.871451,67.749062,-5.706547,67.754395,-5.53125C67.743835,-5.402946,67.738953,-5.274244,67.739746,-5.145508L67.739746,-1.35498L68.844727,-1.35498L68.844727,-0.500488L67.739746,-0.500488L67.739746,1.76416L66.647461,1.10498L66.647461,-0.500488L65.841797,-0.500488L65.841797,-1.35498L66.647461,-1.35498L66.647461,-5.084473C66.620186,-5.521211,66.665565,-5.959466,66.781738,-6.381348C66.945,-6.723718,67.267166,-6.963062,67.64209,-7.020508C67.879601,-7.063518,68.121429,-7.077454,68.362305,-7.062012zM131.594727,-7.062012C131.810349,-7.046659,132.024582,-7.015984,132.23584,-6.970215L132.077148,-6L131.807129,-6.031738C131.609207,-6.073329,131.402786,-6.049339,131.219727,-5.963379C131.070374,-5.871452,130.981491,-5.706547,130.986816,-5.53125C130.976257,-5.402949,130.971375,-5.274241,130.972168,-5.145508L130.972168,-1.35498L132.077148,-1.35498L132.077148,-0.500488L130.972168,-0.500488L130.972168,1.76416L129.879883,1.10498L129.879883,-0.500488L129.074219,-0.500488L129.074219,-1.35498L129.879883,-1.35498L129.879883,-5.084473C129.8526,-5.521212,129.89798,-5.959464,130.01416,-6.381348C130.177399,-6.723728,130.499573,-6.963085,130.874512,-7.020508C131.112015,-7.063509,131.353851,-7.077447,131.594727,-7.062012zM-13.12793,-6.220215C-13.75135,-6.105499,-14.257864,-5.652291,-14.440918,-5.04541C-14.625803,-4.412393,-14.720634,-3.75663,-14.722656,-3.097168C-14.776554,-2.178138,-14.704765,-1.256058,-14.509277,-0.356445C-14.428913,0.058305,-14.222476,0.438593,-13.918457,0.731934C-13.348116,1.233048,-12.489246,1.212235,-11.943848,0.684082C-11.64184,0.396318,-11.436279,0.022044,-11.355469,-0.387207C-11.079268,-1.826633,-11.079266,-3.304699,-11.355469,-4.744141C-11.456608,-5.284485,-11.779715,-5.757807,-12.246094,-6.048828C-12.513457,-6.200709,-12.823141,-6.260898,-13.12793,-6.220215zM-54.074219,-3.588867C-54.087406,-3.089049,-54.000919,-2.591534,-53.819824,-2.125488C-53.576023,-1.603581,-52.974014,-1.353416,-52.432129,-1.548828C-52.290943,-1.591413,-52.155621,-1.651447,-52.029297,-1.727539L-51.650879,-0.708008C-52.036007,-0.442753,-52.502846,-0.32215,-52.968262,-0.367676C-53.315056,-0.42319,-53.623413,-0.61998,-53.819824,-0.911133C-53.955898,-1.092153,-54.077686,-1.283484,-54.184082,-1.483398L-54.184082,-0.500488L-55.172852,-0.500488L-55.172852,-6.982422L-54.074219,-6.982422L-54.074219,-3.588867zM-115.376465,-7.120117L-115.113281,-7.094727C-113.982086,-6.973544,-113.052628,-6.145421,-112.802246,-5.035645L-113.9375,-4.89502L-114.07373,-5.219238C-114.371399,-5.913006,-115.097649,-6.321986,-115.845215,-6.216797C-116.652672,-6.135846,-117.317062,-5.545314,-117.492188,-4.75293C-117.555252,-4.514041,-117.593208,-4.26923,-117.605469,-4.022461L-112.771484,-4.022461C-112.721062,-3.33433,-112.829147,-2.643724,-113.087402,-2.003906C-113.543228,-0.96916,-114.583336,-0.315662,-115.713379,-0.354004C-117.120331,-0.307968,-118.353416,-1.290627,-118.622559,-2.672363C-118.844254,-3.613019,-118.771996,-4.598793,-118.415527,-5.49707C-117.978729,-6.447985,-117.044632,-7.073483,-115.999023,-7.115234C-115.791878,-7.131656,-115.583839,-7.133291,-115.376465,-7.120117zM-110.336426,-3.588867C-110.349617,-3.08905,-110.263123,-2.591532,-110.082031,-2.125488C-109.838234,-1.603579,-109.236221,-1.353408,-108.694336,-1.548828C-108.553146,-1.591414,-108.417824,-1.651445,-108.291504,-1.727539L-107.913086,-0.708008C-108.298218,-0.442753,-108.765053,-0.32215,-109.230469,-0.367676C-109.577263,-0.423188,-109.88562,-0.61998,-110.082031,-0.911133C-110.218109,-1.092154,-110.339897,-1.283487,-110.446289,-1.483398L-110.446289,-0.500488L-111.435059,-0.500488L-111.435059,-6.982422L-110.336426,-6.982422L-110.336426,-3.588867zM23.074219,-3.619629L23.085449,-3.202637C23.085894,-2.800947,23.177561,-2.404559,23.353516,-2.043457C23.756483,-1.372313,24.60084,-1.115739,25.309082,-1.449219C25.475937,-1.547158,25.605087,-1.69832,25.675781,-1.878418C25.783728,-2.163332,25.835127,-2.466422,25.827148,-2.770996L25.827148,-6.982422L26.925781,-6.982422L26.925781,-3.216797C26.906231,-2.803476,26.993689,-2.392084,27.179688,-2.022461C27.567114,-1.400117,28.341663,-1.141322,29.025391,-1.405762C29.39679,-1.564096,29.638502,-1.92878,29.639648,-2.33252C29.659031,-2.520839,29.667833,-2.710106,29.666016,-2.899414L29.666016,-6.982422L30.758789,-6.982422L30.758789,-2.533203C30.779013,-2.068075,30.678411,-1.605613,30.466797,-1.190918C30.196529,-0.741793,29.731972,-0.444491,29.210938,-0.387207C28.243078,-0.206967,27.263683,-0.646429,26.754883,-1.489258L26.643066,-1.235352C26.361139,-0.732653,25.842873,-0.407562,25.267578,-0.372559C24.360802,-0.232831,23.456123,-0.639353,22.958496,-1.410156L22.958496,-0.500488L21.975586,-0.500488L21.975586,-6.982422L23.074219,-6.982422L23.074219,-3.619629zM42.171387,-9.590332C42.70787,-9.550653,43.222824,-9.362658,43.658691,-9.047363C44.17868,-8.649664,44.50457,-8.049203,44.554688,-7.396484C44.610798,-6.967844,44.636578,-6.535781,44.631836,-6.103516L44.631836,-0.500488L43.618652,-0.500488L43.618652,-1.281738L43.42627,-1.064453C42.878059,-0.500115,42.08532,-0.24398,41.310547,-0.380859C40.526684,-0.477458,39.834049,-0.937768,39.441406,-1.623047C38.778183,-2.825464,38.737087,-4.273628,39.331055,-5.511719C39.582363,-6.045517,40.006718,-6.478821,40.535156,-6.741211C41.222874,-7.055435,42.010601,-7.066066,42.706543,-6.770508C43.018486,-6.618726,43.294235,-6.401762,43.515137,-6.134277C43.535652,-6.605641,43.508987,-7.077883,43.435547,-7.543945C43.283653,-8.190408,42.719158,-8.657023,42.055664,-8.68457C41.631714,-8.746732,41.198841,-8.693945,40.802246,-8.531738C40.46019,-8.380483,40.230759,-8.051477,40.207031,-7.678223L39.138672,-7.519531C39.092754,-8.050842,39.284302,-8.575768,39.661621,-8.952637C40.154736,-9.366358,40.775803,-9.596841,41.419434,-9.60498C41.670086,-9.619722,41.921501,-9.614824,42.171387,-9.590332zM-88.436035,-7.115723L-88.12793,-7.075684C-87.469345,-6.948515,-86.859444,-6.639247,-86.367676,-6.183105L-86.335938,-6.404297C-86.301353,-6.605026,-86.238037,-6.799744,-86.147949,-6.982422L-85.000488,-6.982422C-85.23822,-6.531658,-85.35231,-6.025771,-85.331055,-5.516602C-85.352692,-4.40488,-85.363098,-3.294082,-85.362305,-2.182129L-85.379395,-1.957031C-85.42186,-1.297477,-85.873718,-0.734023,-86.508301,-0.549316C-87.534027,-0.231056,-88.638741,-0.287794,-89.626465,-0.709473C-90.158585,-0.967964,-90.549965,-1.44816,-90.695801,-2.021484L-90.780762,-2.350098L-89.706543,-2.496582L-89.605957,-2.177734C-89.505539,-1.842231,-89.267036,-1.565198,-88.950195,-1.416016C-88.364105,-1.208712,-87.725449,-1.206133,-87.137695,-1.408691C-86.712791,-1.558069,-86.435875,-1.970072,-86.458008,-2.419922C-86.450676,-2.569422,-86.451164,-2.719199,-86.459473,-2.868652C-87.198265,-3.084953,-87.957291,-3.225174,-88.724609,-3.287109L-88.989258,-3.328125C-89.560867,-3.390137,-90.094452,-3.64419,-90.50293,-4.048828C-91.119354,-4.735351,-91.131256,-5.771669,-90.530762,-6.472168C-90.13372,-6.884674,-89.586212,-7.118695,-89.013672,-7.120605C-88.821266,-7.13312,-88.628197,-7.13149,-88.436035,-7.115723zM-66.701172,-7.104004L-66.301758,-7.029785C-65.51268,-6.847334,-64.840919,-6.332605,-64.459473,-5.618164C-64.180672,-5.000934,-64.051994,-4.326422,-64.083984,-3.649902C-64.060425,-2.971428,-64.225571,-2.299684,-64.561035,-1.709473C-65.107819,-0.831604,-66.083733,-0.314096,-67.117188,-0.354004C-68.213997,-0.308498,-69.241417,-0.890967,-69.765625,-1.855469C-70.041603,-2.445076,-70.175529,-3.090973,-70.156738,-3.741699C-70.184441,-4.448399,-70.021339,-5.14957,-69.68457,-5.771484C-69.207207,-6.561144,-68.370537,-7.0641,-67.449219,-7.115234C-67.200127,-7.136693,-66.949509,-7.132932,-66.701172,-7.104004zM12.649414,-3.442383L12.657715,-3.143555C12.658786,-2.753582,12.754313,-2.369463,12.936035,-2.024414C13.188166,-1.65045,13.58558,-1.40003,14.031738,-1.333984C14.408418,-1.253854,14.801681,-1.314504,15.136719,-1.504395C15.468572,-1.707049,15.675888,-2.063972,15.6875,-2.452637C15.710209,-2.647434,15.720971,-2.843434,15.719727,-3.039551L15.719727,-6.982422L16.818359,-6.982422C16.833069,-5.53625,16.831757,-4.090168,16.814453,-2.644043C16.839943,-2.177345,16.741179,-1.712007,16.52832,-1.295898C16.288633,-0.883552,15.891431,-0.586312,15.428223,-0.472656C14.666539,-0.2326,13.83803,-0.341793,13.164551,-0.770996C12.917935,-0.947853,12.706072,-1.168654,12.539551,-1.422363L12.539551,-0.500488L11.550781,-0.500488L11.550781,-6.982422L12.649414,-6.982422L12.649414,-3.442383zM-93.673828,-3.588867C-93.687012,-3.08905,-93.600525,-2.591534,-93.419434,-2.125488C-93.175636,-1.603576,-92.573624,-1.353411,-92.031738,-1.548828C-91.890549,-1.591415,-91.755234,-1.65145,-91.628906,-1.727539L-91.250488,-0.708008C-91.63562,-0.442754,-92.102455,-0.322151,-92.567871,-0.367676C-92.914665,-0.423189,-93.223022,-0.619979,-93.419434,-0.911133C-93.555511,-1.092154,-93.677292,-1.283484,-93.783691,-1.483398L-93.783691,-0.500488L-94.772461,-0.500488L-94.772461,-6.982422L-93.673828,-6.982422L-93.673828,-3.588867zM-128.578613,-7.120117L-128.314941,-7.094727C-127.183929,-6.973128,-126.254684,-6.145189,-126.003906,-5.035645L-127.13916,-4.89502L-127.275391,-5.219238C-127.57325,-5.912829,-128.299362,-6.321699,-129.046875,-6.216797C-129.854507,-6.136237,-130.519104,-5.545535,-130.693848,-4.75293C-130.756775,-4.51399,-130.794891,-4.269219,-130.807617,-4.022461L-125.973633,-4.022461C-125.923225,-3.33437,-126.031136,-2.643815,-126.289063,-2.003906C-126.74501,-0.969052,-127.785339,-0.315542,-128.915527,-0.354004C-130.322418,-0.307812,-131.555466,-1.290602,-131.824219,-2.672363C-132.046127,-3.613013,-131.973877,-4.59883,-131.617188,-5.49707C-131.180481,-6.448071,-130.246338,-7.073589,-129.200684,-7.115234C-128.993698,-7.131658,-128.785828,-7.133289,-128.578613,-7.120117zM-34.096191,-7.120117C-33.923199,-7.109985,-33.751183,-7.087137,-33.581543,-7.051758C-32.557869,-6.844117,-31.751144,-6.054602,-31.521484,-5.035645L-32.656738,-4.89502L-32.792969,-5.219238C-33.090847,-5.912817,-33.816936,-6.321694,-34.564453,-6.216797C-35.372093,-6.136256,-36.036697,-5.545545,-36.211426,-4.75293C-36.274349,-4.513991,-36.312473,-4.26922,-36.325195,-4.022461L-31.491211,-4.022461C-31.440802,-3.334368,-31.548712,-2.643815,-31.806641,-2.003906C-32.262596,-0.969054,-33.302914,-0.315541,-34.433105,-0.354004C-35.839939,-0.308065,-37.072811,-1.29072,-37.341797,-2.672363C-37.563705,-3.613014,-37.491451,-4.598832,-37.134766,-5.49707C-36.698048,-6.44807,-35.763912,-7.073597,-34.718262,-7.115234C-34.51128,-7.131656,-34.303402,-7.133288,-34.096191,-7.120117zM-150.631836,-3.588867C-150.64502,-3.089051,-150.558533,-2.591532,-150.377441,-2.125488C-150.133652,-1.603574,-149.531631,-1.353407,-148.989746,-1.548828C-148.848557,-1.591408,-148.713226,-1.65144,-148.586914,-1.727539L-148.208496,-0.708008C-148.593628,-0.442753,-149.060455,-0.322154,-149.525879,-0.367676C-149.872665,-0.42319,-150.18103,-0.61998,-150.377441,-0.911133C-150.513519,-1.092153,-150.6353,-1.283487,-150.741699,-1.483398L-150.741699,-0.500488L-151.730469,-0.500488L-151.730469,-6.982422L-150.631836,-6.982422L-150.631836,-3.588867zM-41.214844,-9.590332L-40.784668,-9.521484C-40.165569,-9.402959,-39.61367,-9.055432,-39.239258,-8.54834C-38.966732,-8.118473,-38.814316,-7.623453,-38.797852,-7.114746C-38.767506,-6.778537,-38.753006,-6.44109,-38.754395,-6.103516L-38.754395,-0.500488L-39.767578,-0.500488L-39.767578,-1.281738L-39.959961,-1.064453C-40.508171,-0.500116,-41.300907,-0.243979,-42.075684,-0.380859C-42.859627,-0.477216,-43.552376,-0.937601,-43.944824,-1.623047C-44.608047,-2.825463,-44.649143,-4.273628,-44.055176,-5.511719C-43.80386,-6.045512,-43.379509,-6.478815,-42.851074,-6.741211C-42.163536,-7.055461,-41.375946,-7.066089,-40.680176,-6.770508C-40.36797,-6.618919,-40.092026,-6.401933,-39.871094,-6.134277C-39.850582,-6.605641,-39.877243,-7.077884,-39.950684,-7.543945C-40.102573,-8.19041,-40.667068,-8.657028,-41.330566,-8.68457C-41.754517,-8.746728,-42.187389,-8.693945,-42.583984,-8.531738C-42.926033,-8.380473,-43.155464,-8.051474,-43.179199,-7.678223L-44.247559,-7.519531C-44.29348,-8.050843,-44.101933,-8.575769,-43.724609,-8.952637C-43.231495,-9.366358,-42.610428,-9.596844,-41.966797,-9.60498C-41.716148,-9.619717,-41.464725,-9.614819,-41.214844,-9.590332zM-144.557617,-7.120117L-144.293945,-7.094727C-143.162933,-6.973133,-142.233688,-6.145191,-141.98291,-5.035645L-143.118164,-4.89502L-143.254395,-5.219238C-143.552277,-5.912819,-144.278366,-6.321703,-145.025879,-6.216797C-145.833511,-6.136261,-146.498123,-5.545543,-146.672852,-4.75293C-146.735779,-4.513993,-146.773895,-4.269218,-146.786621,-4.022461L-141.952637,-4.022461C-141.902237,-3.334366,-142.010132,-2.643814,-142.268066,-2.003906C-142.724014,-0.969054,-143.764343,-0.315541,-144.894531,-0.354004C-146.301422,-0.307816,-147.53447,-1.290605,-147.803223,-2.672363C-148.025131,-3.613013,-147.952881,-4.598831,-147.596191,-5.49707C-147.159485,-6.448071,-146.225342,-7.073595,-145.179688,-7.115234C-144.972702,-7.131636,-144.764832,-7.133276,-144.557617,-7.120117zM-29.055664,-3.588867C-29.069012,-3.089032,-28.982519,-2.591492,-28.80127,-2.125488C-28.557785,-1.603516,-27.955818,-1.353279,-27.414063,-1.548828C-27.272781,-1.591164,-27.13743,-1.651212,-27.01123,-1.727539L-26.632813,-0.708008C-27.017902,-0.442666,-27.484772,-0.322054,-27.950195,-0.367676C-28.2969,-0.423444,-28.605152,-0.620168,-28.801758,-0.911133C-28.937433,-1.092334,-29.059044,-1.283645,-29.165527,-1.483398L-29.165527,-0.500488L-30.154297,-0.500488L-30.154297,-6.982422L-29.055664,-6.982422L-29.055664,-3.588867zM72.080566,-7.115723C72.724098,-7.06256,73.338066,-6.821794,73.846191,-6.42334L74.148438,-6.183105L74.180664,-6.404297C74.215477,-6.604907,74.27861,-6.799566,74.368164,-6.982422L75.515625,-6.982422C75.27832,-6.531517,75.164421,-6.025702,75.185547,-5.516602C75.16391,-4.40488,75.153503,-3.294083,75.154297,-2.182129L75.136719,-1.957031C75.094337,-1.297591,74.642715,-0.734189,74.008301,-0.549316C72.982407,-0.231107,71.877548,-0.287846,70.889648,-0.709473C70.357582,-0.967899,69.966331,-1.448164,69.820801,-2.021484L69.73584,-2.350098L70.810059,-2.496582L70.910645,-2.177734C71.011063,-1.842232,71.249565,-1.565197,71.566406,-1.416016C72.152328,-1.208706,72.790833,-1.206125,73.378418,-1.408691C73.803589,-1.557705,74.080673,-1.969961,74.058105,-2.419922C74.065338,-2.569416,74.065018,-2.719189,74.057129,-2.868652C73.318329,-3.084919,72.559303,-3.22514,71.791992,-3.287109L71.527344,-3.328125C70.955704,-3.390065,70.422112,-3.644124,70.013672,-4.048828C69.397049,-4.735294,69.385147,-5.771717,69.98584,-6.472168C70.382828,-6.884762,70.930367,-7.118793,71.50293,-7.120605C71.695335,-7.133121,71.888397,-7.131487,72.080566,-7.115723zM-137.730957,-7.119141L-137.480957,-7.089355C-136.405212,-6.917175,-135.552002,-6.089925,-135.34668,-5.02002L-135.293457,-4.748535L-136.374023,-4.608398L-136.407715,-4.807617C-136.473221,-5.294441,-136.744812,-5.729661,-137.15332,-6.002441C-137.806381,-6.377823,-138.627365,-6.284648,-139.179688,-5.772461C-139.488327,-5.458491,-139.68515,-5.051614,-139.739746,-4.614746C-139.876038,-3.875299,-139.830627,-3.114002,-139.607422,-2.395996C-139.322067,-1.603614,-138.507095,-1.131388,-137.677734,-1.277832C-137.148209,-1.368561,-136.714584,-1.749688,-136.556641,-2.263184L-136.465332,-2.569824L-135.397461,-2.404785C-135.566177,-1.244472,-136.554642,-0.37784,-137.727051,-0.362305C-138.49028,-0.293245,-139.252106,-0.509496,-139.865234,-0.969238C-140.293854,-1.322874,-140.601028,-1.801813,-140.743652,-2.338867C-141.011917,-3.274477,-141.00972,-4.266764,-140.737305,-5.201172C-140.411179,-6.283442,-139.444244,-7.047792,-138.315918,-7.115234C-138.121338,-7.132053,-137.925735,-7.13336,-137.730957,-7.119141zM47.390625,-6.311035L47.541016,-6.480469C48.040573,-6.991873,48.760441,-7.224644,49.464844,-7.102539C50.397625,-6.963929,51.191895,-6.351034,51.5625,-5.483887C52.094326,-4.238472,52.04023,-2.82089,51.415039,-1.619629C50.956932,-0.817952,50.095924,-0.331949,49.172852,-0.354004C48.415863,-0.328348,47.700741,-0.704485,47.292969,-1.342773L47.292969,-0.500488L46.291992,-0.500488L46.291992,-9.466797L47.390625,-9.466797L47.390625,-6.311035zM34.549805,-7.115723C35.193493,-7.062611,35.807636,-6.82184,36.315918,-6.42334L36.618164,-6.183105L36.649902,-6.404297C36.68446,-6.605031,36.74778,-6.799752,36.837891,-6.982422L37.985352,-6.982422C37.74762,-6.531657,37.633533,-6.025769,37.654785,-5.516602C37.633804,-4.405419,37.623398,-3.293593,37.623535,-2.182129L37.606445,-1.957031C37.563984,-1.297476,37.112125,-0.734022,36.477539,-0.549316C35.451809,-0.231054,34.347095,-0.287795,33.359375,-0.709473C32.827255,-0.967962,32.435875,-1.448159,32.290039,-2.021484L32.205078,-2.350098L33.279297,-2.496582L33.379883,-2.177734C33.480297,-1.842229,33.718796,-1.565193,34.035645,-1.416016C34.621738,-1.208713,35.260395,-1.206133,35.848145,-1.408691C36.273045,-1.558074,36.549965,-1.970073,36.527832,-2.419922C36.535164,-2.569418,36.534672,-2.719203,36.526367,-2.868652C35.787571,-3.084955,35.028545,-3.225175,34.26123,-3.287109L33.996582,-3.328125C33.424969,-3.390138,32.891392,-3.644192,32.48291,-4.048828C31.866556,-4.73537,31.854654,-5.771653,32.455078,-6.472168C32.852112,-6.884687,33.399628,-7.118706,33.972168,-7.120605C34.164574,-7.133117,34.357635,-7.131484,34.549805,-7.115723zM86.118652,-7.120117C87.353531,-7.09991,88.416573,-6.239275,88.693359,-5.035645L87.558105,-4.89502L87.421875,-5.219238C87.124008,-5.912826,86.397911,-6.321698,85.650391,-6.216797C84.842751,-6.136262,84.178146,-5.545547,84.003418,-4.75293C83.940491,-4.513994,83.902367,-4.269219,83.889648,-4.022461L88.723633,-4.022461C88.77404,-3.334367,88.66613,-2.643813,88.408203,-2.003906C87.952248,-0.969053,86.911926,-0.315543,85.781738,-0.354004C84.374924,-0.308111,83.142075,-1.290753,82.873047,-2.672363C82.651138,-3.613012,82.723389,-4.59883,83.080078,-5.49707C83.51683,-6.448036,84.450951,-7.073547,85.496582,-7.115234C85.70356,-7.131665,85.911446,-7.133294,86.118652,-7.120117zM-61.709473,-3.588867C-61.722816,-3.089034,-61.636326,-2.591496,-61.455078,-2.125488C-61.21159,-1.603518,-60.609627,-1.353283,-60.067871,-1.548828C-59.92659,-1.591164,-59.791241,-1.651212,-59.665039,-1.727539L-59.286621,-0.708008C-59.671711,-0.442666,-60.13858,-0.322055,-60.604004,-0.367676C-60.95071,-0.423446,-61.258961,-0.620169,-61.455566,-0.911133C-61.59124,-1.09233,-61.712852,-1.283646,-61.819336,-1.483398L-61.819336,-0.500488L-62.808105,-0.500488L-62.808105,-6.982422L-61.709473,-6.982422L-61.709473,-3.588867zM100.071289,-7.104004C100.878204,-7.018729,101.613846,-6.603651,102.104004,-5.957031C102.445389,-5.447907,102.639488,-4.854642,102.665039,-4.242188C102.738983,-3.5798,102.674805,-2.909283,102.476563,-2.272949C102.062157,-1.081458,100.915688,-0.301672,99.655273,-0.354004C98.558464,-0.308499,97.531052,-0.890969,97.006836,-1.855469C96.730865,-2.445077,96.596931,-3.090971,96.615723,-3.741699C96.588013,-4.4484,96.751122,-5.149571,97.087891,-5.771484C97.565277,-6.561117,98.401939,-7.064061,99.323242,-7.115234C99.572334,-7.136698,99.822952,-7.132933,100.071289,-7.104004zM114.102051,-3.442383L114.110352,-3.143555C114.11142,-2.753582,114.206955,-2.369463,114.388672,-2.024414C114.640991,-1.650633,115.0383,-1.400272,115.484375,-1.333984C115.861053,-1.253851,116.254318,-1.314503,116.589355,-1.504395C116.921204,-1.707055,117.128525,-2.063972,117.140137,-2.452637C117.162842,-2.647435,117.173607,-2.843435,117.172363,-3.039551L117.172363,-6.982422L118.270996,-6.982422C118.285683,-5.536103,118.28437,-4.090132,118.26709,-2.644043C118.292648,-2.177337,118.193886,-1.711987,117.980957,-1.295898C117.741272,-0.883552,117.34407,-0.586311,116.880859,-0.472656C116.119179,-0.232599,115.290665,-0.341794,114.617188,-0.770996C114.370575,-0.947854,114.158707,-1.168655,113.992188,-1.422363L113.992188,-0.500488L113.003418,-0.500488L113.003418,-6.982422L114.102051,-6.982422L114.102051,-3.442383zM126.131348,-7.112305C126.685905,-7.077528,127.217934,-6.879403,127.660156,-6.542969C128.395355,-5.969538,128.588181,-4.938539,128.109863,-4.138184C127.862129,-3.806151,127.511009,-3.56582,127.111816,-3.455078C126.341705,-3.213535,125.567612,-2.985508,124.789551,-2.770996L124.655762,-2.708984C124.349731,-2.582939,124.179794,-2.253603,124.254395,-1.931152C124.394058,-1.563121,124.738213,-1.312481,125.131348,-1.29248C125.569435,-1.214314,126.020172,-1.256653,126.436035,-1.415039C126.78083,-1.593546,127.012833,-1.933234,127.053711,-2.319336L128.12793,-2.172852C128.085052,-1.730741,127.89695,-1.31487,127.593262,-0.990723C127.218765,-0.67414,126.7612,-0.47231,126.274902,-0.40918C125.581001,-0.277161,124.863342,-0.354333,124.213379,-0.630859C123.345108,-1.009735,122.941658,-2.01586,123.307617,-2.889648C123.52227,-3.342785,123.919868,-3.682668,124.400879,-3.824219C125.103638,-4.048809,125.812241,-4.25478,126.525879,-4.441895L126.655762,-4.487305C126.852379,-4.53055,127.023872,-4.650689,127.13018,-4.821644C127.236481,-4.992599,127.268372,-5.199546,127.220215,-5.39502C127.10746,-5.773907,126.798828,-6.061981,126.413086,-6.148438C125.882629,-6.293822,125.318108,-6.251923,124.814941,-6.029785C124.483055,-5.853319,124.23922,-5.547071,124.141602,-5.184082L124.075195,-4.876953L122.98877,-5.047852C123.066628,-5.653879,123.368317,-6.209,123.834473,-6.604004C124.309227,-6.936761,124.873871,-7.116905,125.453613,-7.120605C125.679436,-7.134057,125.905922,-7.131284,126.131348,-7.112305zM-82.546875,-6.311035C-82.135674,-6.831459,-81.507492,-7.133212,-80.844238,-7.128906C-79.767647,-7.119267,-78.798912,-6.47376,-78.375488,-5.483887C-77.843567,-4.238482,-77.897659,-2.82087,-78.522949,-1.619629C-78.980751,-0.817888,-79.841675,-0.331829,-80.764648,-0.354004C-81.521675,-0.328151,-82.2369,-0.704344,-82.644531,-1.342773L-82.644531,-0.500488L-83.645508,-0.500488L-83.645508,-9.466797L-82.546875,-9.466797L-82.546875,-6.311035zM136.197754,-7.104004C137.004807,-7.018784,137.740631,-6.603692,138.230957,-5.957031C138.571823,-5.447652,138.765869,-4.85454,138.791992,-4.242188C138.89032,-3.474562,138.783997,-2.694292,138.483887,-1.980957C137.988968,-0.947799,136.926392,-0.308036,135.781738,-0.354004C134.805786,-0.31958,133.876846,-0.774165,133.305176,-1.565918C132.974686,-2.088688,132.786087,-2.688323,132.757813,-3.306152C132.682114,-4.049728,132.789398,-4.800548,133.070313,-5.493164C133.498978,-6.435073,134.41629,-7.060431,135.449707,-7.115234C135.698792,-7.136698,135.949417,-7.132933,136.197754,-7.104004zM142.975586,-7.119141C144.155884,-7.045024,145.13707,-6.181372,145.360352,-5.02002L145.413086,-4.748535L144.333008,-4.608398L144.298828,-4.807617C144.233688,-5.294437,143.962204,-5.729733,143.553711,-6.002441C142.900482,-6.377762,142.079391,-6.284589,141.526855,-5.772461C141.218719,-5.458143,141.021973,-5.051443,140.966797,-4.614746C140.8311,-3.875259,140.876495,-3.11411,141.099121,-2.395996C141.384583,-1.603725,142.199478,-1.131536,143.028809,-1.277832C143.558487,-1.368434,143.99234,-1.749583,144.150391,-2.263184L144.241211,-2.569824L145.30957,-2.404785C145.140442,-1.244495,144.151932,-0.377999,142.979492,-0.362305C142.216278,-0.293314,141.454453,-0.509562,140.841309,-0.969238C140.412949,-1.323027,140.105988,-1.801918,139.963379,-2.338867C139.694992,-3.274463,139.697189,-4.266774,139.969727,-5.201172C140.295807,-6.283489,141.262756,-7.047858,142.391113,-7.115234C142.585526,-7.132054,142.780975,-7.13337,142.975586,-7.119141zM9.878418,-0.500488L8.779785,-0.500488L8.779785,-6.982422L9.878418,-6.982422L9.878418,-0.500488zM-133.249023,-0.500488L-134.347656,-0.500488L-134.347656,-6.982422L-133.249023,-6.982422L-133.249023,-0.500488zM55.751465,-7.111816C56.465084,-7.032228,57.104721,-6.634801,57.492188,-6.030273L57.492188,-6.982422L58.474609,-6.982422L58.474609,-0.500488L57.375977,-0.500488L57.375977,-3.973633C57.395016,-4.403153,57.334084,-4.832484,57.196289,-5.239746C56.915512,-5.832723,56.310577,-6.202919,55.654785,-6.183105C55.216537,-6.207972,54.796749,-6.00298,54.546875,-5.64209C54.389664,-5.340004,54.314133,-5.002388,54.327637,-4.662109C54.322968,-4.542049,54.320202,-4.421907,54.319336,-4.301758L54.318359,-0.500488L53.219727,-0.500488C53.203735,-1.948248,53.205048,-3.395937,53.223633,-4.84375C53.206928,-5.306759,53.306667,-5.766659,53.513672,-6.181152C53.7061,-6.513609,54.006084,-6.770372,54.364258,-6.90918C54.800854,-7.097394,55.279274,-7.16728,55.751465,-7.111816zM-119.345215,-0.500488L-120.474121,-0.500488C-121.005051,-1.933014,-121.525375,-3.363953,-122.038574,-4.802734C-122.142288,-5.095114,-122.237389,-5.390503,-122.32373,-5.688477L-122.521973,-5.023438L-122.73877,-4.382324L-124.130371,-0.500488L-125.290039,-0.500488L-122.824219,-6.982422L-121.798828,-6.982422L-119.345215,-0.500488zM-100.131348,-1.996094L-99.880859,-3.100586L-98.849609,-6.982422L-97.708008,-6.982422L-95.681641,-0.500488L-96.75,-0.500488L-97.86084,-4.248047L-98.23291,-5.499512C-98.667236,-3.841995,-99.102417,-2.16069,-99.526855,-0.500488L-100.65625,-0.500488L-101.6875,-4.296875L-102.023438,-5.633789L-103.439453,-0.500488L-104.574707,-0.500488L-102.59082,-6.982422L-101.443359,-6.982422L-100.131348,-1.996094zM107.632324,-1.996094L107.882813,-3.100586L108.914063,-6.982422L110.055664,-6.982422L112.082031,-0.500488L111.013672,-0.500488L109.902832,-4.248047L109.530762,-5.499512C109.096375,-3.841888,108.661316,-2.160919,108.236816,-0.500488L107.107422,-0.500488L106.076172,-4.296875L105.740234,-5.633789L104.324219,-0.500488L103.188965,-0.500488L105.172852,-6.982422L106.320313,-6.982422L107.632324,-1.996094zM-48.490234,-7.111816L-48.190918,-7.060059C-47.596596,-6.913774,-47.080868,-6.545198,-46.75,-6.030273L-46.75,-6.982422L-45.76709,-6.982422L-45.76709,-0.500488L-46.865723,-0.500488L-46.865723,-3.973633C-46.846546,-4.403194,-46.90765,-4.832584,-47.045898,-5.239746C-47.326385,-5.832744,-47.931229,-6.203011,-48.586914,-6.183105C-49.025166,-6.207992,-49.444958,-6.002994,-49.694824,-5.64209C-49.852032,-5.34,-49.927563,-5.002388,-49.914063,-4.662109C-49.918583,-4.542072,-49.921513,-4.421876,-49.922852,-4.301758L-49.923828,-0.500488L-51.022461,-0.500488C-51.040443,-1.948619,-51.038979,-3.395627,-51.018066,-4.84375C-51.034912,-5.306776,-50.935165,-5.7667,-50.728027,-6.181152C-50.535965,-6.513731,-50.236088,-6.77055,-49.87793,-6.90918C-49.44117,-7.097419,-48.962585,-7.167304,-48.490234,-7.111816zM-81.094238,-6.216309C-81.724472,-6.127587,-82.250351,-5.690362,-82.452637,-5.086914C-82.760399,-4.154321,-82.722816,-3.143017,-82.34668,-2.23584C-82.122658,-1.763361,-81.709785,-1.407396,-81.209473,-1.255371C-80.54882,-1.110605,-79.870087,-1.409788,-79.53125,-1.995117C-79.246849,-2.511908,-79.111801,-3.097371,-79.141113,-3.686523C-79.119499,-4.224422,-79.219826,-4.76026,-79.43457,-5.253906C-79.724556,-5.896683,-80.392326,-6.283902,-81.094238,-6.216309zM48.84375,-6.216309L48.673828,-6.187988C48.039845,-6.017271,47.553905,-5.507605,47.413574,-4.866211C47.212627,-4.067698,47.241909,-3.22885,47.498047,-2.446289C47.695045,-1.875992,48.152088,-1.433639,48.728516,-1.255371C49.389034,-1.110676,50.067581,-1.409862,50.40625,-1.995117C50.690765,-2.51187,50.825813,-3.097356,50.796387,-3.686523C50.818588,-4.224463,50.718239,-4.760435,50.50293,-5.253906C50.213253,-5.896725,49.545567,-6.284023,48.84375,-6.216309zM-117.544434,-3.119141C-117.541283,-2.364375,-117.090981,-1.68277,-116.397949,-1.383789C-115.674675,-1.08608,-114.841782,-1.291834,-114.340332,-1.89209C-114.153214,-2.139792,-114.029091,-2.429067,-113.978516,-2.735352L-113.925293,-3.119141L-117.544434,-3.119141zM-36.26416,-3.119141C-36.260605,-2.364352,-35.810196,-1.682886,-35.117188,-1.383789C-34.393913,-1.086128,-33.561039,-1.291876,-33.05957,-1.89209C-32.872849,-2.139964,-32.74892,-2.429185,-32.698242,-2.735352L-32.644531,-3.119141L-36.26416,-3.119141zM-130.746582,-3.119141C-130.743027,-2.364352,-130.292618,-1.682886,-129.599609,-1.383789C-128.876343,-1.08613,-128.043457,-1.291878,-127.541992,-1.89209C-127.35527,-2.139962,-127.231339,-2.429184,-127.180664,-2.735352L-127.126953,-3.119141L-130.746582,-3.119141zM-146.725586,-3.119141C-146.722031,-2.364352,-146.271622,-1.682889,-145.578613,-1.383789C-144.855347,-1.086131,-144.022461,-1.291882,-143.520996,-1.89209C-143.334274,-2.139965,-143.210342,-2.429185,-143.159668,-2.735352L-143.105957,-3.119141L-146.725586,-3.119141zM83.950684,-3.119141L83.97168,-2.912109C84.016708,-2.422807,84.256081,-1.971482,84.637566,-1.661789C85.019051,-1.352097,85.509933,-1.210587,85.998047,-1.26709C86.783989,-1.343862,87.413414,-1.95244,87.516602,-2.735352L87.570313,-3.119141L83.950684,-3.119141zM-67.318848,-6.21582C-68.082176,-6.129836,-68.710442,-5.576446,-68.89209,-4.830078C-69.102974,-4.040023,-69.076309,-3.205647,-68.81543,-2.430664C-68.499382,-1.586157,-67.607704,-1.104129,-66.728027,-1.302246C-66.054283,-1.460058,-65.523552,-1.97819,-65.349609,-2.647949C-65.13932,-3.437062,-65.165634,-4.270161,-65.425293,-5.044434C-65.707558,-5.827222,-66.492386,-6.312729,-67.318848,-6.21582zM92.393555,-6.21582L92.223633,-6.187012C91.580933,-6.003557,91.088379,-5.486339,90.936523,-4.835449C90.737091,-4.035297,90.758011,-3.196444,90.99707,-2.407227C91.236755,-1.601463,92.060593,-1.118223,92.880859,-1.302246C93.455238,-1.454353,93.912804,-1.88747,94.096191,-2.452637C94.367455,-3.317022,94.368645,-4.242826,94.099609,-5.10791C93.858521,-5.829406,93.150734,-6.289034,92.393555,-6.21582zM-41.748535,-6.063965C-42.47176,-5.977705,-43.059784,-5.440906,-43.211426,-4.728516C-43.411659,-3.956591,-43.38607,-3.14355,-43.137695,-2.385742C-42.865051,-1.592167,-42.041862,-1.126357,-41.221191,-1.30127C-40.576565,-1.46793,-40.074448,-1.973045,-39.911621,-2.618652C-39.709133,-3.389595,-39.732857,-4.202146,-39.97998,-4.959961C-40.241291,-5.694079,-40.974243,-6.151625,-41.748535,-6.063965zM99.453613,-6.21582L99.260742,-6.187012C98.581192,-6.031847,98.047157,-5.506866,97.880371,-4.830078C97.669495,-4.040024,97.696152,-3.205648,97.957031,-2.430664C98.273079,-1.586158,99.164757,-1.104134,100.044434,-1.302246C100.718178,-1.46006,101.248901,-1.978191,101.422852,-2.647949C101.633133,-3.437061,101.606827,-4.270159,101.347168,-5.044434C101.064888,-5.827215,100.280075,-6.312714,99.453613,-6.21582zM41.637695,-6.063965L41.458984,-6.036621C40.81451,-5.884677,40.314827,-5.375687,40.174805,-4.728516C39.974571,-3.95659,40.00016,-3.143548,40.248535,-2.385742C40.521179,-1.592167,41.344368,-1.126355,42.165039,-1.30127C42.809666,-1.46793,43.311783,-1.973045,43.474609,-2.618652C43.677097,-3.389596,43.653374,-4.202146,43.40625,-4.959961C43.144943,-5.69408,42.411987,-6.151622,41.637695,-6.063965zM135.580078,-6.21582L135.387207,-6.187012C134.707718,-6.031929,134.173767,-5.506876,134.007324,-4.830078C133.796036,-4.040102,133.82251,-3.205647,134.083496,-2.430664C134.399857,-1.58618,135.291595,-1.104226,136.171387,-1.302246C136.844971,-1.460371,137.375549,-1.978357,137.549805,-2.647949C137.759933,-3.437074,137.733627,-4.270143,137.474121,-5.044434C137.191528,-5.827189,136.406631,-6.312618,135.580078,-6.21582zM71.723145,-6.25L71.460938,-6.195313C71.202423,-6.130004,70.980713,-5.96331,70.847862,-5.732137C70.715019,-5.500964,70.682625,-5.225476,70.756348,-4.969238C70.859512,-4.636945,71.130966,-4.384068,71.469727,-4.304688C72.001778,-4.188231,72.537354,-4.088572,73.075684,-4.005859L73.30957,-3.955078C73.564186,-3.899213,73.814117,-3.823794,74.057129,-3.729492C74.085777,-4.16301,74.052231,-4.598446,73.95752,-5.022461C73.752441,-5.623023,73.245483,-6.070209,72.624023,-6.19873C72.329155,-6.269193,72.024101,-6.286554,71.723145,-6.25zM34.192871,-6.25L33.930176,-6.195313C33.671646,-6.130065,33.449909,-5.963373,33.317127,-5.732159C33.184349,-5.500945,33.15213,-5.225416,33.226074,-4.969238C33.328938,-4.63695,33.600285,-4.384007,33.938965,-4.304688C34.471058,-4.188265,35.006565,-4.088621,35.544922,-4.005859L35.778809,-3.955078C36.033432,-3.899242,36.28336,-3.823823,36.526367,-3.729492C36.555626,-4.163012,36.522072,-4.598537,36.426758,-5.022461C36.262012,-5.530584,35.870468,-5.93331,35.367188,-6.112305C34.992771,-6.253033,34.589687,-6.300295,34.192871,-6.25zM-88.792969,-6.25C-89.186729,-6.230318,-89.539566,-5.999139,-89.714844,-5.645996C-89.916687,-5.205997,-89.757416,-4.684361,-89.344238,-4.432129C-89.00013,-4.273838,-88.631317,-4.176551,-88.253906,-4.144531L-87.963867,-4.100586C-87.450394,-4.032084,-86.945892,-3.907637,-86.459473,-3.729492C-86.430214,-4.163011,-86.463768,-4.598538,-86.559082,-5.022461C-86.723839,-5.530578,-87.115379,-5.933302,-87.618652,-6.112305C-87.993073,-6.253037,-88.396156,-6.300305,-88.792969,-6.25z"/>
</svg>
