<?xml version="1.0" encoding="UTF-8" standalone="no"?>
<svg xmlns="http://www.w3.org/2000/svg" xmlns:xlink="http://www.w3.org/1999/xlink" width="180.471mm" height="65.800mm" viewBox="44.550007 -94.400002 180.470718 65.800003">
    <path transform="matrix(1.375362,0,0,-1.494118,92,-54)" style="stroke:#000000;stroke-width:0.036354mm;fill:none" d="M34.5,-12C34.5,-14.761421,32.261429,-17,29.5,-17L-29.5,-17C-32.261421,-17,-34.5,-14.761421,-34.5,-12L-34.5,12C-34.5,14.761421,-32.261421,17,-29.5,17L29.5,17C32.261429,17,34.5,14.761421,34.5,12L34.5,-12z"/>
    <path transform="matrix(1,0,0,-1,-1,10.579437)" style="stroke:#000000;stroke-width:0.050000mm;fill:none" d="M149,90.979439L127.144249,90.979439C127.144249,91.945938,126.286842,92.729439,125.229172,92.729439C124.171501,92.729439,123.314087,91.945938,123.314087,90.979439L71.369972,90.979439C71.369972,91.945938,70.512566,92.729439,69.454895,92.729439C68.397224,92.729439,67.539818,91.945938,67.539818,90.979439L45.550007,90.979439L45.562668,104.979439L67.401596,104.979439L67.401489,104.960487C67.401489,103.994003,68.258804,103.210487,69.316353,103.210487C70.373901,103.210487,71.231216,103.994003,71.231216,104.960487L71.231117,104.979439L123.26683,104.979439C123.26683,104.012939,124.124153,103.229439,125.181686,103.229439C126.239243,103.229439,127.096558,104.012939,127.096558,104.979439L149.00528,104.979439L149,90.979439z"/>
    <path transform="matrix(1,0,0,-1,164.959381,-89.252251)" style="stroke:#000000;stroke-width:0.050000mm;fill:none" d="M4.258789,2.001953L3.550781,2.001953L3.382324,1.709961C2.759853,0.85883,1.925941,0.185306,0.962891,-0.244141L0.962891,-1.306152C1.767583,-0.997208,2.511282,-0.54884,3.160156,0.018555L3.160156,-6.982422L4.258789,-6.982422L4.258789,2.001953zM-3.523438,-4.425293C-2.967087,-5.281006,-2.405411,-6.133606,-1.838867,-6.982422L-0.489746,-6.982422L-2.900879,-3.552246L-0.660645,-0.500488L-1.973145,-0.500488C-2.517807,-1.237858,-3.047012,-1.986889,-3.560059,-2.746582L-3.652344,-2.591309C-4.088009,-1.884253,-4.539379,-1.187254,-5.006348,-0.500488L-6.379883,-0.500488L-4.188477,-3.613281L-6.556641,-6.982422L-5.226074,-6.982422L-3.523438,-4.425293z"/>
    <path transform="matrix(1,0,0,-1,184.993912,-37.668419)" style="stroke:#000000;stroke-width:0.050000mm;fill:none" d="M-29.199219,2.001953L-29.907227,2.001953L-30.075684,1.709961C-30.698153,0.858831,-31.532066,0.185306,-32.495117,-0.244141L-32.495117,-1.306152C-31.690424,-0.997208,-30.946728,-0.548843,-30.297852,0.018555L-30.297852,-6.982422L-29.199219,-6.982422L-29.199219,2.001953zM22.235352,1.965332L21.136719,1.965332L21.136719,-6.982422L22.235352,-6.982422L22.235352,1.965332zM-4.168945,1.965332L-5.267578,1.965332L-5.267578,-6.982422L-4.168945,-6.982422L-4.168945,1.965332zM-10.033203,-7.115723C-9.510674,-7.075325,-9.006057,-6.906952,-8.563965,-6.625488C-8.353915,-6.492799,-8.153839,-6.344945,-7.965332,-6.183105L-7.933105,-6.404297C-7.898286,-6.604905,-7.835153,-6.799564,-7.745605,-6.982422L-6.598145,-6.982422C-6.835404,-6.531501,-6.949303,-6.025695,-6.928223,-5.516602C-6.94986,-4.404881,-6.960266,-3.29408,-6.959473,-2.182129L-6.976563,-1.957031C-7.019453,-1.297636,-7.471131,-0.734406,-8.105469,-0.549316C-9.131367,-0.231102,-10.236219,-0.287841,-11.224121,-0.709473C-11.756151,-0.967933,-12.147397,-1.448189,-12.292969,-2.021484L-12.37793,-2.350098L-11.303711,-2.496582L-11.203125,-2.177734C-11.102711,-1.84223,-10.864211,-1.565194,-10.547363,-1.416016C-9.961437,-1.208702,-9.322933,-1.206121,-8.735352,-1.408691C-8.310251,-1.557874,-8.033082,-1.969946,-8.055176,-2.419922C-8.048552,-2.569434,-8.04904,-2.719185,-8.056641,-2.868652C-8.79544,-3.084934,-9.554463,-3.225154,-10.321777,-3.287109L-10.586426,-3.328125C-11.158052,-3.390098,-11.691641,-3.644154,-12.100098,-4.048828C-12.716688,-4.735305,-12.728593,-5.771711,-12.12793,-6.472168C-11.730928,-6.884742,-11.183397,-7.118769,-10.61084,-7.120605C-10.418435,-7.133117,-10.225368,-7.131485,-10.033203,-7.115723zM31.274414,-3.588867L31.285645,-3.248047C31.304794,-2.863073,31.386934,-2.483879,31.528809,-2.125488C31.772579,-1.603541,32.374611,-1.353365,32.916504,-1.548828C33.057693,-1.59141,33.193016,-1.651445,33.319336,-1.727539L33.697754,-0.708008C33.312458,-0.44272,32.845455,-0.322118,32.379883,-0.367676C32.033218,-0.423532,31.724987,-0.620241,31.52832,-0.911133C31.392647,-1.092332,31.271034,-1.283646,31.164551,-1.483398L31.164551,-0.500488L30.175781,-0.500488L30.175781,-6.982422L31.274414,-6.982422L31.274414,-3.588867zM37.396973,-7.104004C38.204056,-7.018866,38.939899,-6.603763,39.430176,-5.957031C39.771461,-5.447863,39.965549,-4.854617,39.991211,-4.242188C40.089657,-3.474558,39.983337,-2.694266,39.683105,-1.980957C39.188332,-0.947885,38.125969,-0.308124,36.981445,-0.354004C35.884548,-0.308655,34.857063,-0.891054,34.33252,-1.855469C34.057018,-2.445217,33.923275,-3.091042,33.941895,-3.741699C33.914326,-4.448328,34.077244,-5.149419,34.413574,-5.771484C34.891155,-6.560925,35.727699,-7.063802,36.648926,-7.115234C36.898018,-7.136695,37.14864,-7.132932,37.396973,-7.104004zM0.532227,-7.120117C1.76708,-7.099854,2.830099,-6.239237,3.106934,-5.035645L1.97168,-4.89502L1.835449,-5.219238C1.537424,-5.912914,0.811129,-6.321794,0.063477,-6.216797C-0.743969,-6.136037,-1.408314,-5.545377,-1.583008,-4.75293C-1.645934,-4.513994,-1.684057,-4.269218,-1.696777,-4.022461L3.137207,-4.022461C3.187748,-3.334323,3.079661,-2.6437,2.821289,-2.003906C2.365503,-0.969121,1.325377,-0.315609,0.195313,-0.354004C-1.211598,-0.307782,-2.444653,-1.290583,-2.713379,-2.672363C-2.935287,-3.613012,-2.863033,-4.598832,-2.506348,-5.49707C-2.069657,-6.448095,-1.13551,-7.073628,-0.089844,-7.115234C0.117134,-7.131655,0.32502,-7.133286,0.532227,-7.120117zM-21.508789,-3.619629C-21.527176,-3.161216,-21.467402,-2.703007,-21.332031,-2.264648C-21.041451,-1.53609,-20.248671,-1.144859,-19.493652,-1.357422C-19.22637,-1.427698,-19.008486,-1.62127,-18.907227,-1.878418C-18.799055,-2.163258,-18.747807,-2.466427,-18.756348,-2.770996L-18.756348,-6.982422L-17.657715,-6.982422L-17.657715,-3.216797C-17.676838,-2.803456,-17.589226,-2.392132,-17.40332,-2.022461C-17.016146,-1.400101,-16.241682,-1.141263,-15.558105,-1.405762C-15.186404,-1.563718,-14.944528,-1.928649,-14.943848,-2.33252C-14.924605,-2.520851,-14.91564,-2.710104,-14.916992,-2.899414L-14.916992,-6.982422L-13.824707,-6.982422L-13.824707,-2.533203C-13.804049,-2.068096,-13.904498,-1.605562,-14.116211,-1.190918C-14.386499,-0.741818,-14.851049,-0.44452,-15.37207,-0.387207C-16.340065,-0.2069,-17.319647,-0.646358,-17.828613,-1.489258L-17.939941,-1.235352C-18.222094,-0.73286,-18.740223,-0.407855,-19.31543,-0.372559C-20.222315,-0.233032,-21.127031,-0.639485,-21.625,-1.410156L-21.625,-0.500488L-22.607422,-0.500488L-22.607422,-6.982422L-21.508789,-6.982422L-21.508789,-3.619629zM17.207031,-7.120117C18.441885,-7.099853,19.504904,-6.239236,19.781738,-5.035645L18.646484,-4.89502L18.510254,-5.219238C18.212229,-5.912915,17.485933,-6.321795,16.738281,-6.216797C15.93085,-6.136011,15.266515,-5.545361,15.091797,-4.75293C15.02887,-4.513992,14.990747,-4.26922,14.978027,-4.022461L19.812012,-4.022461C19.862553,-3.33432,19.754465,-2.643698,19.496094,-2.003906C19.040308,-0.969121,18.000183,-0.315609,16.870117,-0.354004C15.463206,-0.307782,14.230152,-1.290583,13.961426,-2.672363C13.739517,-3.613011,13.811771,-4.59883,14.168457,-5.49707C14.605148,-6.448096,15.539296,-7.073629,16.584961,-7.115234C16.791941,-7.131655,16.999821,-7.133286,17.207031,-7.120117zM26.810547,-7.119141C27.990833,-7.045004,28.972004,-6.181355,29.195313,-5.02002L29.248047,-4.748535L28.167969,-4.608398L28.133789,-4.807617C28.068682,-5.294577,27.796991,-5.729961,27.388184,-6.002441C26.735115,-6.377777,25.914162,-6.284604,25.361816,-5.772461C25.053553,-5.45822,24.856791,-5.05149,24.801758,-4.614746C24.66596,-3.875264,24.711357,-3.1141,24.934082,-2.395996C25.219511,-1.603689,26.034431,-1.13148,26.86377,-1.277832C27.393446,-1.368432,27.827295,-1.749584,27.985352,-2.263184L28.076172,-2.569824L29.144531,-2.404785C28.975348,-1.244533,27.98687,-0.37806,26.814453,-0.362305C26.051231,-0.293274,25.289404,-0.509523,24.67627,-0.969238C24.247952,-1.323149,23.940859,-1.801969,23.797852,-2.338867C23.529415,-3.274471,23.531784,-4.266861,23.804688,-5.201172C24.130678,-6.283345,25.097401,-7.047673,26.225586,-7.115234C26.42016,-7.132061,26.615768,-7.133368,26.810547,-7.119141zM-36.981445,-4.425293C-36.42511,-5.280975,-35.863403,-6.133636,-35.296875,-6.982422L-33.947754,-6.982422L-36.358887,-3.552246L-34.118652,-0.500488L-35.431152,-0.500488C-35.975262,-1.238483,-36.504238,-1.987194,-37.018066,-2.746582L-37.110352,-2.591309C-37.546013,-1.884266,-37.997383,-1.187263,-38.464355,-0.500488L-39.837891,-0.500488L-37.646484,-3.613281L-40.014648,-6.982422L-38.684082,-6.982422L-36.981445,-4.425293zM13.23877,-0.500488L12.109375,-0.500488C11.578461,-1.933014,11.058136,-3.363953,10.544922,-4.802734C10.440923,-5.094967,10.345981,-5.390378,10.260254,-5.688477L10.061523,-5.023438L9.845215,-4.382324L8.453613,-0.500488L7.293945,-0.500488L9.759766,-6.982422L10.785156,-6.982422L13.23877,-0.500488zM-1.635742,-3.119141C-1.621733,-2.795616,-1.536884,-2.479056,-1.387207,-2.191895C-0.928033,-1.355917,0.099462,-1.017115,0.96582,-1.416016C1.489065,-1.665016,1.851755,-2.161212,1.930176,-2.735352L1.983887,-3.119141L-1.635742,-3.119141zM15.039063,-3.119141L15.060059,-2.912109C15.10499,-2.422771,15.344378,-1.971421,15.725882,-1.661713C16.107386,-1.352005,16.598299,-1.210491,17.086426,-1.26709C17.872362,-1.343873,18.501781,-1.952446,18.60498,-2.735352L18.658691,-3.119141L15.039063,-3.119141zM36.779785,-6.21582L36.586914,-6.187012C35.907368,-6.031841,35.373329,-5.506866,35.206543,-4.830078C34.99509,-4.040093,35.021755,-3.205541,35.283203,-2.430664C35.599255,-1.586159,36.490932,-1.104131,37.370605,-1.302246C38.044308,-1.460119,38.575016,-1.978232,38.749023,-2.647949C38.987011,-3.5102,38.927525,-4.426722,38.580078,-5.250977C38.243149,-5.91945,37.522987,-6.305414,36.779785,-6.21582zM-10.390137,-6.25C-10.783888,-6.230293,-11.136715,-5.999125,-11.312012,-5.645996C-11.514078,-5.206149,-11.354995,-4.684407,-10.941895,-4.432129C-10.597587,-4.273913,-10.22863,-4.176636,-9.851074,-4.144531L-9.561523,-4.100586C-9.047881,-4.03215,-8.54321,-3.907702,-8.056641,-3.729492C-8.027992,-4.163009,-8.061538,-4.598443,-8.15625,-5.022461C-8.321101,-5.53051,-8.712614,-5.93321,-9.21582,-6.112305C-9.590238,-6.253035,-9.99332,-6.300299,-10.390137,-6.25z"/>
    <path transform="matrix(1,0,0,-1,187.042358,-59.458466)" style="stroke:#000000;stroke-width:0.050000mm;fill:none" d="M-20.840332,2.001953L-21.54834,2.001953L-21.717285,1.709961C-22.339451,0.858738,-23.173235,0.18518,-24.13623,-0.244141L-24.13623,-1.306152C-23.331633,-0.997006,-22.587975,-0.548664,-21.938965,0.018555L-21.938965,-6.982422L-20.840332,-6.982422L-20.840332,2.001953zM-13.174316,1.965332L-14.272949,1.965332L-14.272949,-6.982422L-13.174316,-6.982422L-13.174316,1.965332zM6.997559,1.965332L5.898926,1.965332L5.898926,0.702148L6.997559,0.702148L6.997559,1.965332zM24.490234,-7.062012C24.705851,-7.046663,24.920092,-7.015986,25.131348,-6.970215L24.972656,-6L24.702637,-6.031738C24.504721,-6.073377,24.298298,-6.049357,24.115234,-5.963379C23.965887,-5.871444,23.877007,-5.706545,23.882324,-5.53125C23.871765,-5.402944,23.866877,-5.274246,23.867676,-5.145508L23.867676,-1.35498L24.972656,-1.35498L24.972656,-0.500488L23.867676,-0.500488L23.867676,1.76416L22.775391,1.10498L22.775391,-0.500488L21.969727,-0.500488L21.969727,-1.35498L22.775391,-1.35498L22.775391,-5.084473C22.748119,-5.52121,22.793495,-5.959462,22.909668,-6.381348C23.072926,-6.723718,23.395094,-6.963057,23.77002,-7.020508C24.007526,-7.063519,24.249361,-7.077455,24.490234,-7.062012zM-9.310059,-7.115723C-8.787529,-7.075325,-8.282911,-6.906952,-7.84082,-6.625488C-7.6305,-6.492967,-7.43025,-6.345105,-7.241699,-6.183105L-7.209961,-6.404297C-7.175398,-6.60503,-7.112081,-6.799751,-7.021973,-6.982422L-5.874512,-6.982422C-6.112242,-6.531659,-6.226328,-6.025771,-6.205078,-5.516602C-6.226723,-4.404882,-6.237129,-3.294081,-6.236328,-2.182129L-6.253418,-1.957031C-6.295881,-1.297477,-6.747738,-0.734023,-7.382324,-0.549316C-8.408051,-0.231054,-9.512765,-0.287795,-10.500488,-0.709473C-11.03261,-0.967962,-11.423987,-1.448159,-11.569824,-2.021484L-11.654785,-2.350098L-10.580566,-2.496582L-10.47998,-2.177734C-10.379565,-1.84223,-10.141067,-1.565194,-9.824219,-1.416016C-9.238127,-1.208713,-8.599468,-1.206132,-8.011719,-1.408691C-7.58682,-1.558073,-7.309899,-1.970073,-7.332031,-2.419922C-7.324701,-2.569424,-7.325191,-2.719199,-7.333496,-2.868652C-8.07229,-3.084954,-8.831317,-3.225174,-9.598633,-3.287109L-9.863281,-3.328125C-10.434894,-3.390139,-10.968472,-3.644191,-11.376953,-4.048828C-11.993376,-4.735351,-12.005278,-5.771669,-11.404785,-6.472168C-11.007751,-6.884686,-10.460237,-7.118705,-9.887695,-7.120605C-9.695288,-7.133117,-9.502225,-7.131485,-9.310059,-7.115723zM-3.420898,-3.619629C-3.439893,-3.161191,-3.380106,-2.702874,-3.244141,-2.264648C-2.953698,-1.536215,-2.161129,-1.144984,-1.40625,-1.357422C-1.138867,-1.427735,-0.920859,-1.621258,-0.819336,-1.878418C-0.711163,-2.163259,-0.659917,-2.466426,-0.668457,-2.770996L-0.668457,-6.982422L0.430176,-6.982422L0.430176,-3.216797C0.410542,-2.80342,0.498184,-2.391957,0.68457,-2.022461C1.071717,-1.400056,1.846204,-1.141211,2.529785,-1.405762C2.90123,-1.564049,3.142959,-1.928756,3.144043,-2.33252C3.163286,-2.520859,3.172251,-2.710097,3.170898,-2.899414L3.170898,-6.982422L4.263184,-6.982422L4.263184,-2.533203C4.283841,-2.068095,4.183392,-1.605561,3.97168,-1.190918C3.701216,-0.741974,3.236772,-0.444744,2.71582,-0.387207C1.747825,-0.2069,0.768244,-0.646358,0.259277,-1.489258L0.147949,-1.235352C-0.134214,-0.732873,-0.652341,-0.407871,-1.227539,-0.372559C-2.134435,-0.232978,-3.039172,-0.639439,-3.537109,-1.410156L-3.537109,-0.500488L-4.519531,-0.500488L-4.519531,-6.982422L-3.420898,-6.982422L-3.420898,-3.619629zM9.768555,-3.442383L9.776855,-3.143555C9.777927,-2.753581,9.873453,-2.369463,10.055176,-2.024414C10.307306,-1.650451,10.70472,-1.40003,11.150879,-1.333984C11.527558,-1.253855,11.920822,-1.314504,12.255859,-1.504395C12.587712,-1.707049,12.795029,-2.063972,12.806641,-2.452637C12.82935,-2.64743,12.840111,-2.843441,12.838867,-3.039551L12.838867,-6.982422L13.9375,-6.982422C13.952209,-5.536253,13.950897,-4.090163,13.933594,-2.644043C13.959084,-2.177346,13.860319,-1.712008,13.647461,-1.295898C13.407773,-0.883552,13.010571,-0.586312,12.547363,-0.472656C11.785679,-0.2326,10.95717,-0.341794,10.283691,-0.770996C10.037075,-0.947853,9.825212,-1.168655,9.658691,-1.422363L9.658691,-0.500488L8.669922,-0.500488L8.669922,-6.982422L9.768555,-6.982422L9.768555,-3.442383zM17.783691,-7.115723C18.427223,-7.062562,19.041191,-6.821796,19.549316,-6.42334L19.851563,-6.183105L19.883789,-6.404297C19.918608,-6.604905,19.981741,-6.799564,20.071289,-6.982422L21.21875,-6.982422C20.981443,-6.531518,20.867542,-6.025703,20.888672,-5.516602C20.86705,-4.404878,20.856644,-3.294079,20.857422,-2.182129L20.839844,-1.957031C20.797462,-1.297591,20.34584,-0.734186,19.711426,-0.549316C18.685526,-0.231107,17.580677,-0.287846,16.592773,-0.709473C16.060709,-0.967897,15.669455,-1.448164,15.523926,-2.021484L15.438965,-2.350098L16.513184,-2.496582L16.61377,-2.177734C16.714184,-1.84223,16.952684,-1.565194,17.269531,-1.416016C17.855457,-1.208706,18.493959,-1.206126,19.081543,-1.408691C19.506714,-1.557704,19.783808,-1.96996,19.76123,-2.419922C19.768469,-2.569418,19.768143,-2.719187,19.760254,-2.868652C19.021458,-3.084918,18.262428,-3.225141,17.495117,-3.287109L17.230469,-3.328125C16.658737,-3.390227,16.125034,-3.644257,15.716309,-4.048828C15.100165,-4.735545,15.088474,-5.771723,15.688965,-6.472168C16.085953,-6.884762,16.63349,-7.118792,17.206055,-7.120605C17.39846,-7.133118,17.591524,-7.131486,17.783691,-7.115723zM29.044922,-7.120117C30.279762,-7.10009,31.342764,-6.239324,31.619141,-5.035645L30.483887,-4.89502L30.347656,-5.219238C30.049988,-5.913002,29.323736,-6.32197,28.576172,-6.216797C27.768715,-6.135842,27.104317,-5.545315,26.929199,-4.75293C26.866137,-4.51404,26.828171,-4.269232,26.815918,-4.022461L31.649902,-4.022461C31.700323,-3.334329,31.592237,-2.643726,31.333984,-2.003906C30.878174,-0.969146,29.83806,-0.315643,28.708008,-0.354004C27.301056,-0.307966,26.06797,-1.290626,25.798828,-2.672363C25.577137,-3.613017,25.649387,-4.598792,26.005859,-5.49707C26.442841,-6.447848,27.376816,-7.073267,28.422363,-7.115234C28.629505,-7.131657,28.837551,-7.133288,29.044922,-7.120117zM-28.622559,-4.425293C-28.066254,-5.28096,-27.504547,-6.133621,-26.937988,-6.982422L-25.588867,-6.982422L-28,-3.552246L-25.759766,-0.500488L-27.072266,-0.500488C-27.616926,-1.237865,-28.146132,-1.986897,-28.65918,-2.746582L-28.751465,-2.591309C-29.187138,-1.884243,-29.638493,-1.187275,-30.105469,-0.500488L-31.479004,-0.500488L-29.287598,-3.613281L-31.655762,-6.982422L-30.325195,-6.982422L-28.622559,-4.425293zM6.997559,-0.500488L5.898926,-0.500488L5.898926,-6.982422L6.997559,-6.982422L6.997559,-0.500488zM26.876953,-3.119141L26.897949,-2.912109C26.942822,-2.422741,27.18214,-1.971305,27.563663,-1.661582C27.945187,-1.35186,28.436172,-1.210431,28.924316,-1.26709C29.710213,-1.343941,30.339607,-1.952488,30.442871,-2.735352L30.496094,-3.119141L26.876953,-3.119141zM-9.666992,-6.25C-10.060743,-6.230292,-10.413571,-5.999125,-10.588867,-5.645996C-10.790707,-5.205996,-10.631445,-4.684357,-10.218262,-4.432129C-9.874154,-4.273836,-9.505343,-4.176555,-9.12793,-4.144531L-8.837891,-4.100586C-8.324419,-4.032085,-7.819919,-3.907638,-7.333496,-3.729492C-7.304237,-4.163012,-7.337789,-4.598536,-7.433105,-5.022461C-7.597853,-5.530583,-7.989394,-5.933312,-8.492676,-6.112305C-8.867092,-6.253035,-9.270175,-6.300299,-9.666992,-6.25zM17.42627,-6.25L17.164063,-6.195313C16.90555,-6.130005,16.683838,-5.963311,16.550991,-5.732138C16.418142,-5.500964,16.385746,-5.225476,16.459473,-4.969238C16.562635,-4.636945,16.834089,-4.384068,17.172852,-4.304688C17.704926,-4.188223,18.240471,-4.088572,18.778809,-4.005859L19.012695,-3.955078C19.267311,-3.899213,19.517237,-3.823794,19.760254,-3.729492C19.788902,-4.163009,19.755356,-4.598445,19.660645,-5.022461C19.455566,-5.623022,18.948608,-6.070208,18.327148,-6.19873C18.032284,-6.269197,17.727226,-6.286559,17.42627,-6.25z"/>
    <path transform="matrix(1,0,0,-1,197.99881,-89.581718)" style="stroke:#000000;stroke-width:0.050000mm;fill:none" d="M-21.865723,1.965332L-22.964355,1.965332L-22.964355,-6.982422L-21.865723,-6.982422L-21.865723,1.965332zM-1.693848,1.965332L-2.79248,1.965332L-2.79248,0.702148L-1.693848,0.702148L-1.693848,1.965332zM15.798828,-7.062012C16.014444,-7.046663,16.228683,-7.015987,16.439941,-6.970215L16.28125,-6L16.01123,-6.031738C15.813315,-6.073373,15.606893,-6.049354,15.423828,-5.963379C15.274466,-5.871462,15.18559,-5.706549,15.190918,-5.53125C15.180361,-5.402948,15.175472,-5.274243,15.17627,-5.145508L15.17627,-1.35498L16.28125,-1.35498L16.28125,-0.500488L15.17627,-0.500488L15.17627,1.76416L14.083984,1.10498L14.083984,-0.500488L13.27832,-0.500488L13.27832,-1.35498L14.083984,-1.35498L14.083984,-5.084473C14.056714,-5.521211,14.102091,-5.959465,14.218262,-6.381348C14.381519,-6.723718,14.703688,-6.963058,15.078613,-7.020508C15.31612,-7.063517,15.557953,-7.077454,15.798828,-7.062012zM-18.001465,-7.115723C-17.695921,-7.090812,-17.395336,-7.023431,-17.108398,-6.915527C-16.677963,-6.739748,-16.280537,-6.492079,-15.933105,-6.183105L-15.901367,-6.404297C-15.866802,-6.60503,-15.803486,-6.79975,-15.713379,-6.982422L-14.565918,-6.982422C-14.803649,-6.531658,-14.917735,-6.02577,-14.896484,-5.516602C-14.918114,-4.404881,-14.92852,-3.294081,-14.927734,-2.182129L-14.944824,-1.957031C-14.987287,-1.297476,-15.439145,-0.734022,-16.07373,-0.549316C-17.099459,-0.231054,-18.204172,-0.287795,-19.191895,-0.709473C-19.724016,-0.967962,-20.115393,-1.448159,-20.26123,-2.021484L-20.346191,-2.350098L-19.271973,-2.496582L-19.171387,-2.177734C-19.070972,-1.84223,-18.832472,-1.565194,-18.515625,-1.416016C-17.929531,-1.208713,-17.290874,-1.206132,-16.703125,-1.408691C-16.278225,-1.558073,-16.001305,-1.970072,-16.023438,-2.419922C-16.016108,-2.569419,-16.016596,-2.719204,-16.024902,-2.868652C-16.763689,-3.084951,-17.522722,-3.225174,-18.290039,-3.287109L-18.554688,-3.328125C-19.126301,-3.390137,-19.659878,-3.644191,-20.068359,-4.048828C-20.684782,-4.735352,-20.696684,-5.77167,-20.096191,-6.472168C-19.699156,-6.884684,-19.151642,-7.118705,-18.579102,-7.120605C-18.386696,-7.133117,-18.19363,-7.131486,-18.001465,-7.115723zM-12.112305,-3.619629C-12.1313,-3.161188,-12.071512,-2.702873,-11.935547,-2.264648C-11.645103,-1.536215,-10.852535,-1.144985,-10.097656,-1.357422C-9.830274,-1.427736,-9.612266,-1.621259,-9.510742,-1.878418C-9.40257,-2.163258,-9.351323,-2.466425,-9.359863,-2.770996L-9.359863,-6.982422L-8.26123,-6.982422L-8.26123,-3.216797C-8.280864,-2.803419,-8.193222,-2.391957,-8.006836,-2.022461C-7.619689,-1.400056,-6.845202,-1.141211,-6.161621,-1.405762C-5.790176,-1.564049,-5.548447,-1.928755,-5.547363,-2.33252C-5.528121,-2.520854,-5.519155,-2.710104,-5.520508,-2.899414L-5.520508,-6.982422L-4.428223,-6.982422L-4.428223,-2.533203C-4.407566,-2.068094,-4.508015,-1.60556,-4.719727,-1.190918C-4.990191,-0.741974,-5.454635,-0.444745,-5.975586,-0.387207C-6.943581,-0.2069,-7.923162,-0.646358,-8.432129,-1.489258L-8.543457,-1.235352C-8.82562,-0.732873,-9.343746,-0.407871,-9.918945,-0.372559C-10.825843,-0.232977,-11.730579,-0.639439,-12.228516,-1.410156L-12.228516,-0.500488L-13.210938,-0.500488L-13.210938,-6.982422L-12.112305,-6.982422L-12.112305,-3.619629zM1.077148,-3.442383L1.085449,-3.143555C1.086521,-2.753581,1.182048,-2.369462,1.36377,-2.024414C1.615901,-1.65045,2.013314,-1.40003,2.459473,-1.333984C2.836153,-1.253855,3.229415,-1.314504,3.564453,-1.504395C3.896307,-1.707049,4.103623,-2.063972,4.115234,-2.452637C4.137942,-2.647433,4.148705,-2.843436,4.147461,-3.039551L4.147461,-6.982422L5.246094,-6.982422C5.260803,-5.53625,5.259491,-4.090167,5.242188,-2.644043C5.267748,-2.177337,5.168981,-1.711987,4.956055,-1.295898C4.716367,-0.883552,4.319165,-0.586312,3.855957,-0.472656C3.094273,-0.2326,2.265763,-0.341794,1.592285,-0.770996C1.34567,-0.947853,1.133806,-1.168655,0.967285,-1.422363L0.967285,-0.500488L-0.021484,-0.500488L-0.021484,-6.982422L1.077148,-6.982422L1.077148,-3.442383zM9.092285,-7.115723C9.735818,-7.062561,10.349785,-6.821796,10.85791,-6.42334L11.160156,-6.183105L11.192383,-6.404297C11.227201,-6.604905,11.290334,-6.799565,11.379883,-6.982422L12.527344,-6.982422C12.290035,-6.531518,12.176134,-6.025702,12.197266,-5.516602C12.175629,-4.404881,12.165222,-3.294081,12.166016,-2.182129L12.148438,-1.957031C12.106016,-1.297611,11.654406,-0.734221,11.02002,-0.549316C9.994121,-0.231107,8.889271,-0.287846,7.901367,-0.709473C7.369305,-0.967897,6.978049,-1.448163,6.83252,-2.021484L6.747559,-2.350098L7.821777,-2.496582L7.922363,-2.177734C8.022778,-1.84223,8.261278,-1.565194,8.578125,-1.416016C9.164051,-1.208706,9.802554,-1.206125,10.390137,-1.408691C10.815308,-1.557704,11.092401,-1.96996,11.069824,-2.419922C11.077063,-2.569418,11.076736,-2.719187,11.068848,-2.868652C10.330045,-3.084919,9.571022,-3.22514,8.803711,-3.287109L8.539063,-3.328125C7.96733,-3.390228,7.433628,-3.644257,7.024902,-4.048828C6.40876,-4.735544,6.397068,-5.771723,6.997559,-6.472168C7.394546,-6.884764,7.942083,-7.118793,8.514648,-7.120605C8.707052,-7.133118,8.900119,-7.131486,9.092285,-7.115723zM20.353516,-7.120117C21.588356,-7.100091,22.65136,-6.239326,22.927734,-5.035645L21.79248,-4.89502L21.65625,-5.219238C21.358582,-5.913002,20.63233,-6.32197,19.884766,-6.216797C19.077311,-6.135843,18.412916,-5.545313,18.237793,-4.75293C18.174728,-4.514041,18.136765,-4.269231,18.124512,-4.022461L22.958496,-4.022461C23.008919,-3.334331,22.900833,-2.643727,22.642578,-2.003906C22.186768,-0.969147,21.146654,-0.315643,20.016602,-0.354004C18.60965,-0.307966,17.376564,-1.290627,17.107422,-2.672363C16.885733,-3.613017,16.957983,-4.598792,17.314453,-5.49707C17.751434,-6.447849,18.68541,-7.073266,19.730957,-7.115234C19.938093,-7.131654,20.146145,-7.133286,20.353516,-7.120117zM-1.693848,-0.500488L-2.79248,-0.500488L-2.79248,-6.982422L-1.693848,-6.982422L-1.693848,-0.500488zM18.185547,-3.119141L18.206543,-2.912109C18.251417,-2.42274,18.490736,-1.971305,18.872259,-1.661582C19.253782,-1.351859,19.744766,-1.21043,20.23291,-1.26709C21.018806,-1.343941,21.648199,-1.952489,21.751465,-2.735352L21.804688,-3.119141L18.185547,-3.119141zM-18.358398,-6.25C-18.75215,-6.230293,-19.104979,-5.999125,-19.280273,-5.645996C-19.482115,-5.205996,-19.322851,-4.684358,-18.909668,-4.432129C-18.565561,-4.273837,-18.196751,-4.176555,-17.819336,-4.144531L-17.529297,-4.100586C-17.015825,-4.032084,-16.511326,-3.907637,-16.024902,-3.729492C-15.995644,-4.16301,-16.029196,-4.598537,-16.124512,-5.022461C-16.289261,-5.530583,-16.680799,-5.933311,-17.184082,-6.112305C-17.558498,-6.253036,-17.961582,-6.3003,-18.358398,-6.25zM8.734863,-6.25C8.565154,-6.231353,8.400311,-6.181702,8.248535,-6.103516C7.791954,-5.864771,7.6019,-5.310478,7.815918,-4.841797C7.945213,-4.571463,8.189905,-4.373987,8.481445,-4.304688C9.01349,-4.188232,9.549076,-4.088573,10.087402,-4.005859L10.320801,-3.955078C10.5756,-3.899305,10.825695,-3.823885,11.068848,-3.729492C11.097496,-4.163009,11.063951,-4.598444,10.969238,-5.022461C10.76416,-5.623021,10.257202,-6.070206,9.635742,-6.19873C9.340877,-6.2692,9.03582,-6.286561,8.734863,-6.25z"/>
</svg>
