<?xml version="1.0" encoding="UTF-8" standalone="no"?>
<svg xmlns="http://www.w3.org/2000/svg" xmlns:xlink="http://www.w3.org/1999/xlink" width="340.488mm" height="683.250mm" viewBox="15.999985 -619.999878 340.487610 683.249878">
    <path transform="matrix(1.038095,0,0,-1,125,-254)" style="stroke:#ff00ff;stroke-width:0.050000mm;fill:none" d="M105,-73C105,-74.656853,103.65686,-76,102,-76L-102,-76C-103.65686,-76,-105,-74.656853,-105,-73L-105,73C-105,74.65686,-103.65686,76,-102,76L102,76C103.65686,76,105,74.65686,105,73L105,-73z"/>
    <ellipse transform="matrix(1.013954,0,0,-1,125,-310.002533)" style="stroke:#ff00ff;stroke-width:0.050000mm;fill:none" rx="6.5" ry="5" cx="0" cy="0"/>
    <path transform="matrix(1,0,0,-1,-226.861343,-321)" style="stroke:#a00000;stroke-width:0.050000mm;fill:none" d="M335.861359,170L335.861359,157.24939C335.861359,155.943634,335.016785,154.787857,333.771729,154.394333C329.251953,152.953033,325.861359,146.931625,325.861359,139.722321C325.861359,132.515488,329.249664,126.495728,333.76712,125.051788C335.014496,124.659729,335.861359,123.502792,335.861359,122.195251L335.861359,17.999992L246.928024,17.999992C245.234344,17.999992,243.861359,19.343132,243.861359,20.999992L243.861359,167C243.861359,168.65686,245.234344,170,246.928024,170L335.861359,170z"/>
    <path transform="matrix(1.022222,0,0,-1,65,-89)" style="stroke:#ff0000;stroke-width:0.050000mm;fill:none" d="M45,-73C45,-74.656853,43.65686,-76,42,-76L-45.000004,-76L-45.000004,76L42,76C43.65686,76,45,74.65686,45,73L45,-73z"/>
    <path transform="matrix(1.026315,0,0,-1.026316,65,-148.000244)" style="stroke:#ff0000;stroke-width:0.048718mm;fill:none" d="M37.5,-2L-37.5,-2C-38,-2.000003,-38,-0.7,-38,0C-38,0.7,-38,2.000003,-37.5,2L37.5,2C38,2.000003,38.010559,0.66048,38,0C37.988811,-0.699909,38,-2.000003,37.5,-2z"/>
    <path transform="matrix(0.730263,0,0,-1,62.999969,-564.985229)" style="stroke:#000000;stroke-width:0.068468mm;fill:none" d="M37.5,-2L-37.5,-2C-38,-2.000003,-38,-0.7,-38,0C-38,0.7,-38,2.000003,-37.5,2L37.5,2C38,2.000003,38.010559,0.66048,38,0C37.988811,-0.699909,38,-2.000003,37.5,-2z"/>
    <path transform="matrix(1.022222,0,0,-1,16.999969,-460.000122)" style="stroke:#000000;stroke-width:0.050000mm;fill:none" d="M90,114.718132C90,115.536903,89.672638,116.320107,89.093811,116.886047L45.874668,159.14476C45.313969,159.693008,44.560886,159.999908,43.776695,159.999741L2.99938,159.991318C1.342768,159.990982,0,158.647934,0,156.991318L0,43C0,41.343147,1.343145,40,3,40L90.000008,40L90,114.718132z"/>
    <path transform="matrix(1,0,0,-1,60,40)" style="stroke:#000000;stroke-width:0.050000mm;fill:none" d="M38.100006,-19.25C38.100006,-21.459141,36.309143,-23.25,34.100006,-23.25L-34.099998,-23.25C-36.309135,-23.25,-38.099998,-21.459141,-38.099998,-19.25L-38.099998,19.25C-38.099998,21.459137,-36.309135,23.25,-34.099998,23.25L34.100006,23.25C36.309143,23.25,38.100006,21.459137,38.100006,19.25L38.100006,-19.25z"/>
    <path transform="matrix(1,0,0,-1,227.99733,36.98616)" style="stroke:#000000;stroke-width:0.050000mm;fill:none" d="M-81.415039,-2.709961L-78.888184,-2.709961L-78.888184,-1.000977L-81.415039,-1.000977C-81.424728,-0.508526,-81.422447,-0.015783,-81.408203,0.476563C-81.41507,0.897078,-81.307556,1.311612,-81.097168,1.675781C-80.889435,1.941562,-80.586166,2.115881,-80.251953,2.161621C-79.59922,2.253857,-78.935646,2.232884,-78.290039,2.099609L-77.960449,4.016113C-78.85656,4.21163,-79.77655,4.274477,-80.690918,4.202637C-81.32476,4.16768,-81.93454,3.946466,-82.443359,3.566895C-83.087051,3.073111,-83.487366,2.326033,-83.541992,1.516602C-83.58345,1.138663,-83.602852,0.758613,-83.600098,0.378418L-83.600098,-1.000977L-85.541016,-1.000977L-85.541016,-2.709961L-83.600098,-2.709961L-83.600098,-13.964844L-81.415039,-13.964844L-81.415039,-2.709961zM-24.444824,-2.709961L-21.917969,-2.709961L-21.917969,-1.000977L-24.444824,-1.000977C-24.454517,-0.508527,-24.452236,-0.015784,-24.437988,0.476563C-24.444855,0.897079,-24.337339,1.311613,-24.126953,1.675781C-23.919222,1.941563,-23.615953,2.115885,-23.281738,2.161621C-22.629005,2.253853,-21.965431,2.232878,-21.319824,2.099609L-20.990234,4.016113C-21.886341,4.211628,-22.806335,4.274475,-23.720703,4.202637C-24.354542,4.167681,-24.964323,3.946467,-25.473145,3.566895C-26.116837,3.073109,-26.517151,2.326033,-26.571777,1.516602C-26.613235,1.138655,-26.632637,0.758623,-26.629883,0.378418L-26.629883,-1.000977L-28.570801,-1.000977L-28.570801,-2.709961L-26.629883,-2.709961L-26.629883,-13.964844L-24.444824,-13.964844L-24.444824,-2.709961zM-97.308594,4.003906L-98.724609,4.003906L-98.880371,3.712891C-99.54409,2.665806,-100.397118,1.751847,-101.395996,1.017578C-102.175133,0.428391,-103.014641,-0.076394,-103.900391,-0.488281L-103.900391,-2.612305C-102.291313,-1.993984,-100.804031,-1.097481,-99.505859,0.036621L-99.505859,-13.964844L-97.308594,-13.964844L-97.308594,4.003906zM30.572754,3.930664L28.375488,3.930664L28.375488,-13.964844L30.572754,-13.964844L30.572754,3.930664zM83.380371,3.930664L81.183105,3.930664L81.183105,-13.964844L83.380371,-13.964844L83.380371,3.930664zM-37.213379,-14.123535C-36.782349,-14.09276,-36.354038,-14.031572,-35.931641,-13.94043L-36.249023,-11.999512L-36.533203,-12.037109C-36.959507,-12.11709,-37.398102,-12.102924,-37.818359,-11.995605C-38.198208,-11.844501,-38.442673,-11.471079,-38.429199,-11.0625C-38.450924,-10.805771,-38.460701,-10.548162,-38.458496,-10.290527L-38.458496,-2.709961L-36.249023,-2.709961L-36.249023,-1.000977L-38.458496,-1.000977L-38.458496,3.527832L-40.643555,2.209473L-40.643555,-1.000977L-42.254883,-1.000977L-42.254883,-2.709961L-40.643555,-2.709961L-40.643555,-10.168457C-40.662498,-10.905142,-40.611816,-11.641985,-40.492188,-12.369141C-40.40136,-12.842078,-40.13765,-13.264198,-39.752441,-13.553223C-39.286789,-13.892399,-38.73177,-14.0868,-38.15625,-14.112305C-37.842663,-14.139224,-37.527519,-14.142979,-37.213379,-14.123535zM-14.212402,-14.240723C-13.230673,-14.20114,-12.274173,-13.917882,-11.429199,-13.416504C-10.378517,-12.750807,-9.594116,-11.737995,-9.212402,-10.554199L-9.063965,-10.070801L-11.334473,-9.790039L-11.464844,-10.125977C-11.711884,-10.790149,-12.135343,-11.374687,-12.689453,-11.816406C-13.404619,-12.320354,-14.281551,-12.540328,-15.149902,-12.433594C-16.453358,-12.317898,-17.595072,-11.512716,-18.141602,-10.32373C-18.462111,-9.604738,-18.641766,-8.831091,-18.670898,-8.044434L-9.00293,-8.044434C-8.91351,-6.775537,-9.086728,-5.501672,-9.511719,-4.302734C-10.34568,-2.075328,-12.509653,-0.628092,-14.886719,-0.708008C-16.2213,-0.668732,-17.529114,-1.090012,-18.589844,-1.900879C-19.67592,-2.76616,-20.424152,-3.985105,-20.704102,-5.345215C-21.081459,-7.018205,-21.019569,-8.759872,-20.524414,-10.401855C-19.844263,-12.497426,-17.982962,-13.989039,-15.789551,-14.196289C-15.266321,-14.259617,-14.738371,-14.274492,-14.212402,-14.240723zM113.29248,-14.245605C114.920364,-14.171728,116.448631,-13.441845,117.529297,-12.222168C118.168808,-11.45141,118.590775,-10.523702,118.751465,-9.535156C119.001846,-8.202435,119.009293,-6.835362,118.773438,-5.5C118.462425,-3.649216,117.266403,-2.066615,115.570801,-1.262207C114.538506,-0.806054,113.406166,-0.622937,112.282715,-0.730469C110.769501,-0.818444,109.349976,-1.493083,108.326172,-2.61084C107.558456,-3.515128,107.069443,-4.622742,106.918457,-5.799316C106.668579,-7.32965,106.769241,-8.896553,107.212891,-10.382324C107.919052,-12.576254,109.906525,-14.107361,112.208008,-14.230469C112.568703,-14.260848,112.931076,-14.265908,113.29248,-14.245605zM-4.10791,-7.23877C-4.133962,-6.409479,-4.042552,-5.580542,-3.836426,-4.776855C-3.46875,-3.467019,-2.257408,-2.574864,-0.897461,-2.612305C-0.382717,-2.584099,0.126696,-2.729203,0.549316,-3.024414C0.920699,-3.343349,1.172462,-3.779199,1.263184,-4.260254C1.358856,-4.680628,1.404097,-5.110911,1.397949,-5.541992L1.397949,-13.964844L3.595215,-13.964844L3.595215,-6.433105C3.570004,-5.724481,3.689996,-5.017989,3.947754,-4.357422C4.388696,-3.361661,5.34718,-2.694374,6.434082,-2.626465C7.007634,-2.549883,7.59056,-2.669705,8.087402,-2.966309C8.600842,-3.29068,8.935068,-3.834383,8.992676,-4.438965C9.053177,-4.889492,9.081081,-5.343786,9.076172,-5.79834L9.076172,-13.964844L11.26123,-13.964844L11.26123,-5.065918C11.287857,-4.27076,11.149683,-3.478459,10.855469,-2.739258C10.445215,-1.781003,9.596642,-1.080167,8.578125,-0.858398C7.664947,-0.630176,6.706878,-0.65482,5.806641,-0.929688C4.854499,-1.259524,4.029849,-1.880061,3.449219,-2.703613L3.253418,-2.978516L3.149902,-2.717285C2.688438,-1.678631,1.724029,-0.950848,0.598633,-0.791992C-0.433061,-0.592086,-1.501425,-0.717846,-2.458496,-1.151855C-3.226804,-1.524625,-3.877712,-2.101708,-4.339844,-2.819824L-4.339844,-1.000977L-6.305176,-1.000977L-6.305176,-13.964844L-4.10791,-13.964844L-4.10791,-7.23877zM-75.006348,-7.177734C-75.014641,-6.309639,-74.891167,-5.445306,-74.640137,-4.614258C-74.441422,-3.902897,-73.908363,-3.332846,-73.211914,-3.086914C-72.726051,-2.938264,-72.206322,-2.942014,-71.722656,-3.097656C-71.440308,-3.182679,-71.169662,-3.302581,-70.916992,-3.45459L-70.160156,-1.416016C-70.831779,-0.973252,-71.614265,-0.727932,-72.418457,-0.708008C-73.252762,-0.713742,-74.030907,-1.130494,-74.498047,-1.821777C-74.768768,-2.184711,-75.012115,-2.567276,-75.226074,-2.966309L-75.226074,-1.000977L-77.203613,-1.000977L-77.203613,-13.964844L-75.006348,-13.964844L-75.006348,-7.177734zM92.53125,-14.238281C94.697105,-14.110119,96.549751,-12.63523,97.160156,-10.553223C97.268227,-10.207747,97.350479,-9.854731,97.40625,-9.49707L95.245605,-9.216309L95.177246,-9.614746C95.067375,-10.286569,94.783356,-10.917923,94.353516,-11.445801C93.750587,-12.112534,92.884781,-12.480242,91.986328,-12.451172C90.529015,-12.485785,89.220139,-11.562638,88.763672,-10.178223C88.482765,-9.303902,88.350739,-8.388774,88.373047,-7.470703C88.359711,-6.719307,88.446907,-5.969495,88.632324,-5.241211C88.796425,-4.546809,89.160683,-3.915434,89.679688,-3.425781C90.410713,-2.756635,91.391525,-2.429163,92.37793,-2.524902C93.437759,-2.598229,94.364311,-3.267435,94.76709,-4.250488C94.893639,-4.536634,94.992554,-4.834198,95.0625,-5.13916L97.19873,-4.80957C97.048317,-3.912152,96.665482,-3.069727,96.088379,-2.366211C95.415367,-1.591294,94.504692,-1.061095,93.498535,-0.858398C92.083183,-0.544464,90.603897,-0.703473,89.287598,-1.311035C88.037704,-1.886083,87.081627,-2.953745,86.647461,-4.259277C86.12944,-5.804123,85.981621,-7.44857,86.21582,-9.061035C86.343613,-10.241472,86.801239,-11.362356,87.536133,-12.294922C88.490196,-13.43924,89.874237,-14.139565,91.361328,-14.230469C91.750481,-14.264076,92.141685,-14.266693,92.53125,-14.238281zM-63.172363,-14.245605C-62.898777,-14.229097,-62.62645,-14.195831,-62.356934,-14.145996C-60.895519,-13.89773,-59.584682,-13.098753,-58.694336,-11.913574C-58.189774,-11.206259,-57.854156,-10.392511,-57.713379,-9.535156C-57.463043,-8.202433,-57.455601,-6.835362,-57.691406,-5.5C-58.002449,-3.649232,-59.198467,-2.066639,-60.894043,-1.262207C-61.926346,-0.806082,-63.058678,-0.622965,-64.182129,-0.730469C-65.695358,-0.818394,-67.114899,-1.493039,-68.138672,-2.61084C-68.906425,-3.515106,-69.395439,-4.622727,-69.546387,-5.799316C-69.79631,-7.329647,-69.695641,-8.896556,-69.251953,-10.382324C-68.545784,-12.576251,-66.558319,-14.10736,-64.256836,-14.230469C-63.896141,-14.260854,-63.533768,-14.265912,-63.172363,-14.245605zM18.843262,-14.230957C20.256855,-14.101217,21.595762,-13.536928,22.675781,-12.615723L22.97998,-12.365723L23.043945,-12.809082C23.113338,-13.210266,23.23979,-13.599481,23.419434,-13.964844L25.714355,-13.964844C25.298885,-13.203235,25.078602,-12.350458,25.073242,-11.48291C25.031158,-10.500149,25.012924,-9.516336,25.018555,-8.532715L25.018555,-5.603027C25.036736,-4.925717,24.999992,-4.24803,24.908691,-3.57666C24.799812,-2.963355,24.517054,-2.393938,24.094238,-1.936523C23.459915,-1.367358,22.674755,-0.993681,21.833008,-0.860352C20.353088,-0.596437,18.833401,-0.664135,17.382813,-1.058594C16.592718,-1.269973,15.872539,-1.686583,15.29541,-2.266113C14.773277,-2.866482,14.408354,-3.587102,14.233398,-4.363281L14.154297,-4.699707L16.302734,-4.992676L16.396973,-4.661133C16.542908,-4.118472,16.82493,-3.62199,17.216309,-3.21875C17.616636,-2.875576,18.111162,-2.660986,18.635254,-2.603027C19.468588,-2.464818,20.321617,-2.502239,21.139648,-2.712891C21.596033,-2.8316,22.009556,-3.077309,22.332031,-3.421387C22.579227,-3.747081,22.730843,-4.134994,22.77002,-4.541992C22.812328,-4.93898,22.821312,-5.338815,22.796875,-5.737305C21.728094,-6.062494,20.631716,-6.288702,19.521484,-6.413086L18.562012,-6.53418C17.860579,-6.604084,17.168385,-6.746941,16.496582,-6.960449C15.816224,-7.18621,15.202156,-7.576965,14.709473,-8.097656C13.576249,-9.370605,13.457241,-11.250563,14.420898,-12.65625C14.984888,-13.415709,15.814162,-13.93503,16.743652,-14.11084C17.433826,-14.253748,18.141289,-14.29422,18.843262,-14.230957zM39.974609,-14.240723C40.956341,-14.20114,41.912842,-13.917882,42.757813,-13.416504C43.808521,-12.750835,44.59293,-11.738017,44.974609,-10.554199L45.123535,-10.070801L42.853027,-9.790039L42.722168,-10.125977C42.475025,-10.789961,42.051777,-11.374433,41.498047,-11.816406C40.782654,-12.320257,39.905605,-12.540216,39.037109,-12.433594C37.733669,-12.317868,36.591965,-11.512693,36.04541,-10.32373C35.724701,-9.604828,35.545197,-8.831111,35.516602,-8.044434L45.18457,-8.044434C45.273499,-6.775518,45.100124,-5.50172,44.675293,-4.302734C43.841415,-2.075481,41.677681,-0.628273,39.300781,-0.708008C37.966034,-0.668631,36.658035,-1.089915,35.597168,-1.900879C34.511112,-2.766178,33.762882,-3.985115,33.48291,-5.345215C33.105587,-7.018209,33.167477,-8.759867,33.662598,-10.401855C34.342747,-12.497423,36.204048,-13.989037,38.397461,-14.196289C38.920689,-14.259622,39.448643,-14.274495,39.974609,-14.240723zM-52.75293,-6.884766C-52.768478,-6.179379,-52.68264,-5.475415,-52.498047,-4.794434C-52.369896,-4.300653,-52.104824,-3.853109,-51.733398,-3.503418C-50.742702,-2.633449,-49.355343,-2.377041,-48.119141,-2.835449C-47.548428,-3.054942,-47.095123,-3.503112,-46.869141,-4.071289C-46.669022,-4.720866,-46.582302,-5.400078,-46.612793,-6.079102L-46.612793,-13.964844L-44.415527,-13.964844C-44.404907,-11.174782,-44.405396,-8.415572,-44.416992,-5.626465C-44.406693,-5.034443,-44.447044,-4.442562,-44.537598,-3.857422C-44.656666,-3.202686,-44.936008,-2.587453,-45.350586,-2.066895C-45.719467,-1.655164,-46.178482,-1.334338,-46.691895,-1.129395C-47.967155,-0.608706,-49.386982,-0.565717,-50.691406,-1.008301C-51.631672,-1.355089,-52.432842,-1.999866,-52.972656,-2.844238L-52.972656,-1.000977L-54.950195,-1.000977L-54.950195,-13.964844L-52.75293,-13.964844L-52.75293,-6.884766zM73.324219,-14.240723C74.305946,-14.201138,75.262444,-13.917873,76.107422,-13.416504C77.158127,-12.750832,77.942535,-11.738014,78.324219,-10.554199L78.473145,-10.070801L76.202637,-9.790039L76.071777,-10.125977C75.824631,-10.789961,75.401382,-11.374434,74.847656,-11.816406C74.132263,-12.320253,73.255211,-12.540213,72.386719,-12.433594C71.083321,-12.318071,69.941681,-11.512806,69.395508,-10.32373C69.074326,-9.604964,68.894638,-8.831187,68.866211,-8.044434L78.53418,-8.044434C78.623108,-6.775521,78.44973,-5.501723,78.024902,-4.302734C77.191025,-2.075481,75.02729,-0.628273,72.650391,-0.708008C71.315643,-0.668633,70.007645,-1.089915,68.946777,-1.900879C67.860718,-2.766175,67.112495,-3.985114,66.83252,-5.345215C66.4552,-7.018207,66.51709,-8.759864,67.012207,-10.401855C67.69236,-12.497424,69.553658,-13.989036,71.74707,-14.196289C72.270302,-14.259618,72.798256,-14.274497,73.324219,-14.240723zM101.458984,-7.177734L101.481445,-6.495605C101.519318,-5.725603,101.683609,-4.967148,101.967773,-4.250488C102.381294,-3.342863,103.358299,-2.831224,104.339844,-3.008301C104.767601,-3.078133,105.177864,-3.229639,105.54834,-3.45459L106.305176,-1.416016C105.633461,-0.973447,104.851028,-0.728147,104.046875,-0.708008C103.212395,-0.713578,102.434036,-1.13035,101.966797,-1.821777C101.696014,-2.184559,101.452812,-2.567144,101.239258,-2.966309L101.239258,-1.000977L99.261719,-1.000977L99.261719,-13.964844L101.458984,-13.964844L101.458984,-7.177734zM-112.872559,-8.850098C-111.760864,-10.560944,-110.636353,-12.268097,-109.503418,-13.964844L-106.805664,-13.964844L-111.627441,-7.104492L-107.147461,-1.000977L-109.771973,-1.000977C-110.669914,-2.236969,-111.555504,-3.480682,-112.429688,-4.733398C-112.603943,-4.985308,-112.775826,-5.238337,-112.945801,-5.493164L-113.130371,-5.182617C-113.364304,-4.798508,-113.604019,-4.417614,-113.849121,-4.040527L-115.838867,-1.000977L-118.585449,-1.000977L-114.203125,-7.226563L-118.939453,-13.964844L-116.27832,-13.964844L-112.872559,-8.850098zM65.387207,-1.000977L63.128906,-1.000977C62.066956,-3.866089,61.026306,-6.727997,60,-9.605469C59.792343,-10.190125,59.602322,-10.780863,59.430176,-11.376953L59.236328,-10.705566C59.042103,-10.05289,58.829937,-9.405654,58.600098,-8.764648L55.816895,-1.000977L53.497559,-1.000977L58.429199,-13.964844L60.47998,-13.964844L65.387207,-1.000977zM-18.548828,-6.237793C-18.518948,-5.469298,-18.282824,-4.722979,-17.865234,-4.077148C-17.110563,-2.960355,-15.790577,-2.363556,-14.453613,-2.534668C-13.011853,-2.670523,-11.819736,-3.714682,-11.495117,-5.125977C-11.403399,-5.490956,-11.341509,-5.862784,-11.310059,-6.237793L-18.548828,-6.237793zM35.638672,-6.237793L35.680176,-5.824219C35.79636,-4.712709,36.399055,-3.709227,37.325684,-3.084473C38.608631,-2.267476,40.260281,-2.324891,41.483398,-3.229004C42.093391,-3.702522,42.520542,-4.373016,42.691895,-5.125977C42.783363,-5.491032,42.845409,-5.862818,42.877441,-6.237793L35.638672,-6.237793zM68.988281,-6.237793L69.029785,-5.824219C69.145973,-4.712709,69.748665,-3.709227,70.675293,-3.084473C71.958244,-2.267475,73.609886,-2.324891,74.833008,-3.229004C75.443047,-3.702486,75.870201,-4.372991,76.041504,-5.125977C76.132973,-5.491033,76.195015,-5.86282,76.227051,-6.237793L68.988281,-6.237793zM-63.995605,-12.431641C-65.354721,-12.290262,-66.515427,-11.388783,-66.98877,-10.106934C-67.290283,-9.265697,-67.434265,-8.376312,-67.413574,-7.48291C-67.425537,-6.748477,-67.333977,-6.016026,-67.141602,-5.307129C-66.89312,-4.347754,-66.280075,-3.522883,-65.433105,-3.008301C-64.181305,-2.286854,-62.622639,-2.371246,-61.456055,-3.223633C-60.775509,-3.742774,-60.283989,-4.471045,-60.057129,-5.296387C-59.819229,-6.185788,-59.732582,-7.108718,-59.800781,-8.026855C-59.827381,-8.731195,-59.964977,-9.42694,-60.208496,-10.088379C-60.628994,-11.243636,-61.609344,-12.105075,-62.809082,-12.373535C-63.199562,-12.451336,-63.599392,-12.470911,-63.995605,-12.431641zM112.469238,-12.431641L112.083496,-12.373535C110.886887,-12.107332,109.906235,-11.254848,109.476074,-10.106934C109.174355,-9.26576,109.030525,-8.376305,109.051758,-7.48291C109.039307,-6.748484,109.130707,-6.015983,109.323242,-5.307129C109.572037,-4.347891,110.184998,-3.523141,111.031738,-3.008301C112.283531,-2.286851,113.842209,-2.371242,115.008789,-3.223633C115.689331,-3.742778,116.180855,-4.471046,116.407715,-5.296387C116.645691,-6.185776,116.732346,-7.108716,116.664063,-8.026855C116.637466,-8.731194,116.49987,-9.426938,116.256348,-10.088379C115.835869,-11.243658,114.855515,-12.105106,113.655762,-12.373535C113.265282,-12.451347,112.865456,-12.470917,112.469238,-12.431641zM18.420898,-12.527344C17.903107,-12.51692,17.398014,-12.364939,16.960449,-12.087891C16.179945,-11.557857,15.896744,-10.540725,16.291016,-9.683594C16.55422,-9.146473,17.041111,-8.753208,17.621582,-8.608887C18.331755,-8.416996,19.055811,-8.28051,19.787109,-8.200684L20.329102,-8.108398C21.171272,-7.974441,21.997969,-7.756724,22.796875,-7.458496C22.831444,-8.153561,22.801693,-8.850452,22.708008,-9.540039C22.540091,-10.679991,21.795193,-11.652384,20.738281,-12.111328C20.013115,-12.442711,19.216053,-12.585798,18.420898,-12.527344z"/>
    <path transform="matrix(1,0,0,-1,241.003342,-81.015915)" style="stroke:#000000;stroke-width:0.050000mm;fill:none" d="M-71.98291,-14.246094L-71.324707,-14.174316C-69.001389,-13.86297,-66.992203,-12.398338,-65.984863,-10.281738C-65.674011,-9.644475,-65.430664,-8.976461,-65.258789,-8.288574L-67.626953,-7.69043L-67.763184,-8.237793C-68.005836,-9.194151,-68.487755,-10.073127,-69.163574,-10.791992C-70.021835,-11.648269,-71.165459,-12.158634,-72.375977,-12.225586C-74.026871,-12.377967,-75.661736,-11.801985,-76.852539,-10.648438C-77.444061,-10.014562,-77.880775,-9.252272,-78.128418,-8.421387C-78.784348,-6.284517,-78.811974,-4.004681,-78.208008,-1.852539C-77.902893,-0.613596,-77.165718,0.47632,-76.129395,1.220703C-75.259468,1.815833,-74.239265,2.153136,-73.186035,2.193848C-72.335182,2.269275,-71.478127,2.155723,-70.67627,1.861328C-69.835793,1.530986,-69.126938,0.933806,-68.658691,0.161621C-68.332832,-0.365744,-68.076324,-0.932921,-67.895508,-1.525879L-65.563965,-0.976563C-65.876419,0.175886,-66.461197,1.236432,-67.269043,2.115723C-68.201126,3.09766,-69.411728,3.770447,-70.737793,4.043457C-72.855278,4.494627,-75.064293,4.180069,-76.97168,3.155762C-78.456093,2.33432,-79.616371,1.031609,-80.26123,-0.537598C-80.825546,-1.915649,-81.103783,-3.393897,-81.079102,-4.882813C-81.105453,-6.927228,-80.597687,-8.942997,-79.605957,-10.730957C-78.569153,-12.548908,-76.755928,-13.792326,-74.686523,-14.104492C-73.793823,-14.256133,-72.886566,-14.303651,-71.98291,-14.246094zM66.636719,-14.259277C68.632248,-14.151508,70.563774,-13.517378,72.234863,-12.421387C72.692993,-12.129605,73.135178,-11.813571,73.55957,-11.474609L73.55957,-4.833984L65.979004,-4.846191L65.979004,-6.945801L71.240234,-6.945801L71.240234,-10.27832C70.466385,-10.894363,69.590111,-11.36902,68.651367,-11.680664C66.5541,-12.440649,64.229408,-12.244577,62.289063,-11.144043C61.156658,-10.450363,60.312531,-9.371494,59.911621,-8.105469C59.264233,-6.04128,59.285248,-3.825952,59.97168,-1.774414C60.327312,-0.69442,60.986324,0.260198,61.870117,0.975586C62.837654,1.691544,63.993179,2.109697,65.194824,2.178711C66.297714,2.301061,67.41391,2.1503,68.444824,1.739746C69.557724,1.306464,70.427399,0.408787,70.825195,-0.717285C70.951767,-1.025489,71.061783,-1.340223,71.154785,-1.660156L73.291016,-1.074219C73.049034,-0.013715,72.58744,0.984323,71.936035,1.855469C71.284233,2.645218,70.435944,3.249475,69.476563,3.607422C68.147881,4.111294,66.72551,4.319891,65.308105,4.21875C63.889412,4.165284,62.500397,3.79576,61.242676,3.137207C60.042278,2.490031,59.051758,1.513402,58.387695,0.322266C57.262688,-1.724083,56.804062,-4.070297,57.075684,-6.389648C57.232559,-8.002425,57.798775,-9.548306,58.720703,-10.880859C59.536663,-11.992483,60.636364,-12.864353,61.904785,-13.405273C63.394405,-14.053448,65.014503,-14.345837,66.636719,-14.259277zM109.347656,-14.259277C110.785728,-14.223118,112.182854,-13.773005,113.371582,-12.962891C115.096146,-11.751657,115.87072,-9.584664,115.304688,-7.554688C115.006851,-6.55965,114.365799,-5.702324,113.495605,-5.135254C112.70446,-4.616482,111.830582,-4.236515,110.911621,-4.011719C109.770767,-3.704834,108.624283,-3.419479,107.472656,-3.155762L107.171875,-3.075195C106.451912,-2.907226,105.758858,-2.639668,105.112793,-2.280273C104.454979,-1.834384,104.110458,-1.050814,104.226563,-0.264648C104.316406,0.385809,104.665421,0.9722,105.194336,1.361328C105.691353,1.721981,106.269531,1.954227,106.87793,2.037598C107.959923,2.224357,109.068657,2.188301,110.13623,1.931641C111.328644,1.644535,112.257988,0.708952,112.537109,-0.485352C112.606094,-0.746683,112.654907,-1.01293,112.683105,-1.281738L114.953613,-1.11084C114.928001,0.403904,114.24469,1.832552,113.081543,2.803223C112.208176,3.467583,111.183563,3.904808,110.099609,4.075684C108.638947,4.345917,107.136253,4.283331,105.703125,3.892578C104.83876,3.665299,104.040428,3.236176,103.374023,2.640625C101.986145,1.352606,101.55011,-0.664934,102.282227,-2.411133C102.680328,-3.260755,103.336723,-3.962776,104.157715,-4.416992C104.825912,-4.791606,105.539444,-5.078956,106.280762,-5.271973C107.50885,-5.594849,108.721436,-5.908325,109.95166,-6.221191L110.322754,-6.325195C111.017868,-6.491937,111.676109,-6.785958,112.26416,-7.192383C113.273537,-7.970233,113.515617,-9.393021,112.820313,-10.460938C112.423874,-11.061365,111.838737,-11.512484,111.157227,-11.743164C109.380562,-12.370213,107.430046,-12.274695,105.723145,-11.477051C104.682182,-11.003232,103.918762,-10.072898,103.657227,-8.959473C103.575142,-8.651052,103.515579,-8.337078,103.479004,-8.02002L101.245117,-8.215332C101.257523,-10.23395,102.308723,-12.103867,104.026855,-13.163574C104.990425,-13.715181,106.058975,-14.058168,107.163574,-14.17041C107.88813,-14.257535,108.618423,-14.28725,109.347656,-14.259277zM-93.859863,4.003906L-95.275879,4.003906L-95.432129,3.712891C-96.095734,2.665723,-96.948784,1.751746,-97.947754,1.017578C-98.726654,0.428295,-99.56601,-0.076496,-100.45166,-0.488281L-100.45166,-2.612305C-99.024933,-2.054489,-97.688431,-1.289501,-96.484863,-0.341797L-96.057129,0.036621L-96.057129,-13.964844L-93.859863,-13.964844L-93.859863,4.003906zM-54.593262,-14.254395C-54.017982,-14.22938,-53.446228,-14.151413,-52.885254,-14.021484C-51.505161,-13.721846,-50.280159,-12.932869,-49.436523,-11.800293C-49.02314,-11.206226,-48.7299,-10.537148,-48.573242,-9.830566C-48.324539,-8.70743,-48.20932,-7.558854,-48.22998,-6.408691L-48.22998,3.930664L-50.598145,3.930664L-50.598145,-6.396484C-50.569981,-7.440835,-50.688328,-8.484097,-50.949707,-9.495605C-51.110214,-10.170802,-51.481701,-10.777286,-52.010254,-11.227051C-52.503487,-11.599833,-53.076435,-11.853218,-53.684082,-11.967285C-54.614231,-12.158644,-55.570518,-12.186563,-56.510254,-12.049805C-57.431431,-11.930072,-58.281979,-11.491755,-58.914063,-10.811035C-59.381893,-10.246378,-59.677933,-9.559388,-59.76709,-8.831543C-59.890007,-8.025837,-59.946674,-7.211452,-59.936523,-6.396484L-59.936523,3.930664L-62.304688,3.930664L-62.304688,-6.408691C-62.32848,-7.61672,-62.199364,-8.822917,-61.92041,-9.998535C-61.716789,-10.868215,-61.300327,-11.673789,-60.708496,-12.342773C-59.976856,-13.116251,-59.041531,-13.667019,-58.010254,-13.931641C-56.895088,-14.21697,-55.742119,-14.325874,-54.593262,-14.254395zM-41.882324,-6.018066L-39.135742,-6.018066C-38.694592,-6.00585,-38.253262,-6.034455,-37.817383,-6.103516C-37.044449,-6.306105,-36.357956,-6.754509,-35.861816,-7.380859C-35.120605,-8.288388,-34.440384,-9.244123,-33.825684,-10.241699L-31.45752,-13.964844L-28.479004,-13.964844L-31.591797,-9.094238C-32.144417,-8.221455,-32.804726,-7.421704,-33.557129,-6.713867C-33.990089,-6.352747,-34.470669,-6.052898,-34.985352,-5.822754L-34.362305,-5.719238C-33.476788,-5.571641,-32.630775,-5.243874,-31.876953,-4.756348C-30.630177,-3.897448,-29.902567,-2.465572,-29.943848,-0.952148C-29.920511,0.46667,-30.508518,1.826771,-31.558105,2.781738C-32.1936,3.300476,-32.960411,3.632926,-33.773438,3.742188C-34.614029,3.877313,-35.464584,3.940366,-36.315918,3.930664L-44.250488,3.930664L-44.250488,-13.964844L-41.882324,-13.964844L-41.882324,-6.018066zM-12.133789,3.930664L-14.550781,3.930664L-19.384766,-9.069824C-19.746347,-10.032732,-20.068064,-11.010105,-20.349121,-11.999512L-20.549805,-11.303711C-20.77618,-10.552576,-21.022678,-9.807705,-21.289063,-9.069824L-25.939941,3.930664L-28.503418,3.930664L-21.569824,-13.964844L-19.140625,-13.964844L-12.133789,3.930664zM32.580566,1.818848L38.500977,1.818848L38.500977,3.930664L24.316406,3.930664L24.316406,1.818848L30.212402,1.818848L30.212402,-13.964844L32.580566,-13.964844L32.580566,1.818848zM54.333496,-11.853027L43.347168,-11.853027L43.347168,-5.761719L53.24707,-5.761719L53.24707,-3.662109L43.347168,-3.662109L43.347168,1.818848L53.918457,1.818848L53.918457,3.930664L40.979004,3.930664L40.979004,-13.964844L54.333496,-13.964844L54.333496,-11.853027zM79.455566,-6.018066L82.202148,-6.018066C82.643295,-6.005817,83.084633,-6.034421,83.520508,-6.103516C84.293449,-6.306089,84.97995,-6.754494,85.476074,-7.380859C86.217323,-8.288389,86.89753,-9.244097,87.512207,-10.241699L89.880371,-13.964844L92.858887,-13.964844L89.746094,-9.094238C89.193474,-8.221456,88.533165,-7.421706,87.780762,-6.713867C87.347801,-6.352746,86.867226,-6.052899,86.352539,-5.822754L86.975586,-5.719238C87.861153,-5.571844,88.707214,-5.244058,89.460938,-4.756348C90.70771,-3.897448,91.435318,-2.465571,91.394043,-0.952148C91.417381,0.466672,90.829369,1.826772,89.779785,2.781738C89.144287,3.300476,88.37748,3.632923,87.564453,3.742188C86.723869,3.877324,85.873299,3.940377,85.021973,3.930664L77.087402,3.930664L77.087402,-13.964844L79.455566,-13.964844L79.455566,-6.018066zM97.875977,3.930664L95.507813,3.930664L95.507813,-13.964844L97.875977,-13.964844L97.875977,3.930664zM-41.882324,-3.967285L-41.882324,1.953125L-36.218262,1.953125C-35.514561,1.97574,-34.812607,1.867442,-34.148438,1.633789C-32.921257,1.178563,-32.192383,-0.087622,-32.415039,-1.377441C-32.50948,-2.094539,-32.879841,-2.746788,-33.447266,-3.195313C-33.917694,-3.535498,-34.464134,-3.755414,-35.039063,-3.835938C-35.618587,-3.929399,-36.205006,-3.973341,-36.791992,-3.967285L-41.882324,-3.967285zM79.455566,-3.967285L79.455566,1.953125L85.119629,1.953125C85.823334,1.975739,86.525284,1.867442,87.189453,1.633789C88.416656,1.178583,89.145531,-0.087614,88.922852,-1.377441C88.828415,-2.094538,88.458054,-2.746787,87.890625,-3.195313C87.420197,-3.535494,86.873756,-3.755414,86.298828,-3.835938C85.719299,-3.929412,85.132889,-3.973352,84.545898,-3.967285L79.455566,-3.967285zM12.731934,-7.177734L12.754883,-6.495605C12.792885,-5.725663,12.957005,-4.967257,13.240723,-4.250488C13.654299,-3.342931,14.631273,-2.831316,15.612793,-3.008301C16.04055,-3.078133,16.450815,-3.229641,16.821289,-3.45459L17.578125,-1.416016C16.906487,-0.973278,16.12401,-0.727961,15.319824,-0.708008C14.4855,-0.713681,13.707337,-1.130444,13.240234,-1.821777C12.969101,-2.184419,12.725733,-2.567017,12.512207,-2.966309L12.512207,-1.000977L10.534668,-1.000977L10.534668,-13.964844L12.731934,-13.964844L12.731934,-7.177734zM2.336426,-14.245605C3.964464,-14.171815,5.492929,-13.441928,6.57373,-12.222168C7.213049,-11.451302,7.634995,-10.523628,7.795898,-9.535156C8.04578,-8.202379,8.053223,-6.83541,7.817871,-5.5C7.506435,-3.649391,6.310551,-2.066972,4.615234,-1.262207C3.582748,-0.806105,2.450272,-0.622992,1.32666,-0.730469C-0.186528,-0.818526,-1.606035,-1.493155,-2.629883,-2.61084C-3.397424,-3.515225,-3.886421,-4.622805,-4.037598,-5.799316C-4.286939,-7.329678,-4.186282,-8.896454,-3.743164,-10.382324C-3.03665,-12.576218,-1.04911,-14.107232,1.252441,-14.230469C1.61297,-14.260855,1.975196,-14.265913,2.336426,-14.245605zM-109.423828,-8.850098C-108.312073,-10.561035,-107.187683,-12.268005,-106.054688,-13.964844L-103.356934,-13.964844L-108.178711,-7.104492L-103.69873,-1.000977L-106.323242,-1.000977C-107.219322,-2.23671,-108.106468,-3.482346,-108.981445,-4.733398C-109.155624,-4.984974,-109.327621,-5.238407,-109.49707,-5.493164L-109.681641,-5.182617C-109.915741,-4.798437,-110.155304,-4.417784,-110.400391,-4.040527L-112.390137,-1.000977L-115.136719,-1.000977L-110.754395,-7.226563L-115.490723,-13.964844L-112.82959,-13.964844L-109.423828,-8.850098zM1.513184,-12.431641C0.313032,-12.310242,-0.743474,-11.588501,-1.292969,-10.514648C-1.657905,-9.755181,-1.860268,-8.928104,-1.887207,-8.085938C-1.959371,-7.152006,-1.873355,-6.212439,-1.632813,-5.307129C-1.383922,-4.347944,-0.770982,-3.523217,0.075684,-3.008301C1.327665,-2.286898,2.886441,-2.371286,4.053223,-3.223633C4.733685,-3.742847,5.225189,-4.471097,5.452148,-5.296387C5.689631,-6.185856,5.77611,-7.108748,5.708008,-8.026855C5.681406,-8.731152,5.543978,-9.426865,5.300781,-10.088379C4.879934,-11.243398,3.899742,-12.104701,2.700195,-12.373535C2.30955,-12.451336,1.90956,-12.470917,1.513184,-12.431641z"/>
    <path transform="matrix(1,0,0,-1,300.997223,-244.127548)" style="stroke:#000000;stroke-width:0.050000mm;fill:none" d="M-22.924805,4.003906L-24.34082,4.003906L-24.49707,3.712891C-25.160679,2.665723,-26.013723,1.751746,-27.012695,1.017578C-27.791592,0.428293,-28.630947,-0.076498,-29.516602,-0.488281L-29.516602,-2.612305C-28.089874,-2.054488,-26.753357,-1.289493,-25.549805,-0.341797L-25.12207,0.036621L-25.12207,-13.964844L-22.924805,-13.964844L-22.924805,4.003906zM-2.31543,-13.959961C-1.287105,-13.961123,-0.264636,-13.80553,0.716797,-13.498535C1.296314,-13.311533,1.834787,-13.015532,2.303223,-12.626465C3.850054,-11.189384,4.368734,-8.957804,3.614258,-6.98584C3.121602,-5.841962,2.162568,-4.963455,0.97998,-4.572754L0.585938,-4.443359L0.890137,-4.281738C1.877358,-3.753371,2.611818,-2.850459,2.924365,-1.775248C3.236911,-0.700038,3.100924,0.455899,2.550781,1.431152C1.977454,2.521854,0.968997,3.319003,-0.224609,3.625C-1.079896,3.8453,-1.96121,3.948133,-2.844238,3.930664L-9.558105,3.930664L-9.558105,-13.964844L-2.734375,-13.964844L-2.31543,-13.959961zM-7.189941,-3.588867L-7.189941,1.818848C-5.842072,1.828873,-4.496786,1.82756,-3.148926,1.814941C-2.463906,1.819922,-1.780074,1.757117,-1.107422,1.627441C-0.376816,1.479902,0.23243,0.977631,0.516602,0.288574C0.81736,-0.433481,0.83928,-1.241209,0.578125,-1.978516C0.289224,-2.682933,-0.321323,-3.205142,-1.062012,-3.381348C-1.80241,-3.549255,-2.561709,-3.619028,-3.320313,-3.588867L-7.189941,-3.588867zM11.256836,-14.230957C12.670373,-14.100992,14.00921,-13.536732,15.089355,-12.615723L15.393066,-12.365723L15.457031,-12.809082C15.526534,-13.210236,15.652982,-13.59944,15.83252,-13.964844L18.127441,-13.964844C17.712608,-13.20298,17.492371,-12.350369,17.486328,-11.48291C17.444794,-10.500097,17.426559,-9.516412,17.431641,-8.532715L17.431641,-5.603027C17.450378,-4.925709,17.413633,-4.247975,17.321777,-3.57666C17.217619,-3.030519,16.983105,-2.517603,16.638184,-2.081543C16.150906,-1.563917,15.52964,-1.191936,14.843262,-1.006836C13.073836,-0.549585,11.211898,-0.604771,9.472656,-1.166016C8.624018,-1.431706,7.885267,-1.967888,7.369629,-2.692383C6.975731,-3.303766,6.703371,-3.985247,6.567383,-4.699707L8.71582,-4.992676L8.810547,-4.661133C8.956373,-4.118422,9.238407,-3.621921,9.629883,-3.21875C10.03021,-2.875576,10.524736,-2.660986,11.048828,-2.603027C11.881996,-2.464794,12.734873,-2.502215,13.552734,-2.712891C14.009302,-2.831492,14.423014,-3.077212,14.745605,-3.421387C14.992574,-3.747174,15.144006,-4.13505,15.183105,-4.541992C15.225512,-4.938972,15.234495,-5.338817,15.209961,-5.737305C14.141329,-6.062448,13.045116,-6.288651,11.935059,-6.413086L10.975098,-6.53418C10.273828,-6.604126,9.581805,-6.746981,8.910156,-6.960449C8.229731,-7.186369,7.615545,-7.577092,7.122559,-8.097656C5.989333,-9.370634,5.870518,-11.250741,6.834473,-12.65625C7.398356,-13.41584,8.227667,-13.935183,9.157227,-14.11084C9.847405,-14.25376,10.554865,-14.294233,11.256836,-14.230957zM25.876953,-14.249512C27.009642,-14.226921,28.11314,-13.886328,29.061523,-13.266602C30.554272,-12.259748,31.127338,-10.337652,30.429688,-8.677734C30.033951,-7.889958,29.339695,-7.293097,28.501465,-7.02002C27.39069,-6.625069,26.261459,-6.28418,25.117676,-5.998535L24.472168,-5.818359C24.065157,-5.729424,23.669228,-5.595263,23.291992,-5.418457C22.868914,-5.229061,22.561714,-4.848914,22.465332,-4.395508C22.394787,-3.852802,22.639364,-3.317233,23.095703,-3.015137C23.43774,-2.780881,23.831425,-2.633292,24.243164,-2.584961C24.957088,-2.462442,25.688595,-2.4862,26.393066,-2.654785C27.316547,-2.897438,27.99267,-3.68865,28.088379,-4.638672L30.236816,-4.345703C30.1444,-3.626622,29.885223,-2.939054,29.47998,-2.337891C29.039816,-1.784482,28.448235,-1.370868,27.777344,-1.147461C26.163147,-0.572371,24.403154,-0.558785,22.780273,-1.108887C21.478851,-1.531715,20.534311,-2.662201,20.349609,-4.018066C20.139721,-5.544557,21.028797,-7.010454,22.479492,-7.529785C23.628761,-7.958527,24.805378,-8.310059,26.001465,-8.582031L26.387207,-8.6875C26.884653,-8.804226,27.365839,-8.98184,27.819824,-9.216309C28.34948,-9.547103,28.595182,-10.190385,28.420898,-10.790039C28.229849,-11.454314,27.728191,-11.983826,27.075195,-12.210449C26.031731,-12.547884,24.907784,-12.536922,23.871094,-12.179199C23.080137,-11.862162,22.484581,-11.191163,22.263672,-10.368164C22.20425,-10.166848,22.160019,-9.961355,22.131348,-9.753418L19.958496,-10.095215C20.077663,-10.87369,20.36134,-11.618004,20.790527,-12.27832C21.375721,-13.140047,22.261545,-13.752476,23.274414,-13.995605C24.125134,-14.205636,25.001682,-14.291152,25.876953,-14.249512zM39.333496,-14.240723C40.31525,-14.201309,41.271797,-13.918039,42.116699,-13.416504C43.167587,-12.750931,43.95219,-11.738085,44.333984,-10.554199L44.482422,-10.070801L42.211914,-9.790039L42.081055,-10.125977C41.834305,-10.790169,41.410988,-11.374743,40.856934,-11.816406C40.141716,-12.320237,39.264832,-12.540197,38.396484,-12.433594C37.092934,-12.318176,35.951084,-11.512899,35.404785,-10.32373C35.083675,-9.60494,34.903992,-8.831174,34.875488,-8.044434L44.543457,-8.044434C44.632469,-6.775512,44.459091,-5.501703,44.03418,-4.302734C43.200447,-2.075343,41.03664,-0.628089,38.659668,-0.708008C37.325069,-0.668659,36.017242,-1.089944,34.956543,-1.900879C33.870499,-2.766276,33.122147,-3.985138,32.841797,-5.345215C32.464638,-7.018218,32.526524,-8.75985,33.021484,-10.401855C33.701763,-12.49732,35.563011,-13.98889,37.756348,-14.196289C38.279583,-14.259617,38.807533,-14.274494,39.333496,-14.240723zM-38.48877,-8.850098C-37.377014,-10.560974,-36.252502,-12.268066,-35.119629,-13.964844L-32.421875,-13.964844L-37.243652,-7.104492L-32.763672,-1.000977L-35.388184,-1.000977C-36.284256,-2.236694,-37.171616,-3.482666,-38.046387,-4.733398C-38.220684,-4.985149,-38.392437,-5.238224,-38.562012,-5.493164L-38.746582,-5.182617C-38.980709,-4.798401,-39.220219,-4.41782,-39.465332,-4.040527L-41.455078,-1.000977L-44.20166,-1.000977L-39.819336,-7.226563L-44.555664,-13.964844L-41.894531,-13.964844L-38.48877,-8.850098zM34.997559,-6.237793L35.039551,-5.824219C35.155407,-4.712731,35.757973,-3.709171,36.68457,-3.084473C37.967525,-2.267518,39.619156,-2.324932,40.842285,-3.229004C41.4524,-3.702424,41.87957,-4.372949,42.050781,-5.125977C42.14283,-5.490909,42.204884,-5.862749,42.236328,-6.237793L34.997559,-6.237793zM-7.189941,-11.853027L-7.189941,-5.700684C-5.672,-5.684448,-4.155117,-5.686066,-2.637207,-5.705566C-1.892365,-5.697073,-1.150077,-5.796254,-0.433594,-6C0.763448,-6.38346,1.556206,-7.521086,1.501465,-8.776855C1.531824,-9.657303,1.166946,-10.505461,0.506836,-11.088867C-0.099169,-11.52832,-0.819269,-11.782145,-1.566895,-11.819824C-1.955547,-11.844114,-2.344967,-11.855188,-2.734375,-11.853027L-7.189941,-11.853027zM10.833984,-12.527344C10.316358,-12.516834,9.811446,-12.364853,9.374023,-12.087891C8.593253,-11.558009,8.310009,-10.54073,8.70459,-9.683594C8.96767,-9.146358,9.4546,-8.753059,10.035156,-8.608887C10.745298,-8.416842,11.469357,-8.280356,12.200684,-8.200684L12.742676,-8.108398C13.584705,-7.974498,14.411245,-7.75678,15.209961,-7.458496C15.244789,-8.153541,15.215199,-8.850448,15.121582,-9.540039C14.953238,-10.679815,14.208486,-11.652016,13.151855,-12.111328C12.426498,-12.442653,11.629293,-12.585737,10.833984,-12.527344z"/>
    <path transform="matrix(1,0,0,-1,208,-425.607666)" style="stroke:#000000;stroke-width:0.050000mm;fill:none" d="M-62.512207,4.003906L-63.928223,4.003906L-64.084473,3.712891C-64.748085,2.665718,-65.601128,1.751743,-66.600098,1.017578C-67.378998,0.428294,-68.218346,-0.076493,-69.104004,-0.488281L-69.104004,-2.612305C-67.677277,-2.05449,-66.340759,-1.289493,-65.137207,-0.341797L-64.709473,0.036621L-64.709473,-13.964844L-62.512207,-13.964844L-62.512207,4.003906zM33.410645,3.930664L31.213379,3.930664L31.213379,-13.964844L33.410645,-13.964844L33.410645,3.930664zM-26.293945,3.930664L-28.491211,3.930664L-28.491211,1.403809L-26.293945,1.403809L-26.293945,3.930664zM-17.869629,-14.250488C-17.064878,-14.22774,-16.284517,-13.968185,-15.626465,-13.504395C-15.192697,-13.185041,-14.823524,-12.786205,-14.538574,-12.329102L-14.538574,-13.964844L-12.5,-13.964844L-12.5,3.930664L-14.685059,3.930664L-14.685059,-2.490234L-14.993164,-2.112305C-15.928099,-1.099316,-17.28508,-0.58405,-18.656738,-0.721191C-20.647663,-0.836023,-22.386225,-2.109873,-23.095703,-3.973633C-23.92985,-6.107121,-23.965384,-8.468853,-23.195801,-10.626465C-22.694542,-12.008018,-21.672487,-13.139097,-20.348633,-13.777344C-19.574398,-14.138451,-18.722435,-14.301055,-17.869629,-14.250488zM7.006836,3.930664L4.80957,3.930664L4.80957,-13.964844L7.006836,-13.964844L7.006836,3.930664zM-3.96582,-14.250488C-2.600886,-14.219632,-1.344896,-13.495163,-0.634766,-12.329102L-0.634766,-13.964844L1.403809,-13.964844L1.403809,3.930664L-0.78125,3.930664L-0.78125,-2.490234L-1.089355,-2.112305C-2.024291,-1.099316,-3.381273,-0.58405,-4.75293,-0.721191C-6.743854,-0.836022,-8.482416,-2.109872,-9.191895,-3.973633C-10.02604,-6.107116,-10.061574,-8.468851,-9.291992,-10.626465C-8.790734,-12.008018,-7.768679,-13.139097,-6.444824,-13.777344C-5.670589,-14.138449,-4.818627,-14.301054,-3.96582,-14.250488zM-47.131348,-7.23877C-47.157757,-6.409496,-47.066505,-5.580527,-46.860352,-4.776855C-46.492493,-3.466957,-45.280956,-2.574806,-43.920898,-2.612305C-43.406315,-2.584191,-42.897087,-2.729293,-42.474609,-3.024414C-42.103031,-3.343247,-41.851074,-3.779134,-41.760254,-4.260254C-41.665012,-4.680696,-41.619938,-5.110941,-41.625977,-5.541992L-41.625977,-13.964844L-39.428711,-13.964844L-39.428711,-6.433105C-39.454025,-5.724436,-39.333858,-5.017879,-39.075684,-4.357422C-38.635033,-3.361419,-37.67638,-2.694016,-36.589355,-2.626465C-36.015957,-2.549767,-35.433144,-2.6696,-34.936523,-2.966309C-34.423,-3.290607,-34.088757,-3.834341,-34.03125,-4.438965C-33.970192,-4.889435,-33.942284,-5.343777,-33.947754,-5.79834L-33.947754,-13.964844L-31.762695,-13.964844L-31.762695,-5.065918C-31.736174,-4.270805,-31.87417,-3.47857,-32.167969,-2.739258C-32.578537,-1.781235,-33.426964,-1.080518,-34.445313,-0.858398C-35.35865,-0.630168,-36.316883,-0.654811,-37.217285,-0.929688C-38.169262,-1.259839,-38.99382,-1.880306,-39.574707,-2.703613L-39.770508,-2.978516L-39.873535,-2.717285C-40.335125,-1.678536,-41.299744,-0.950736,-42.425293,-0.791992C-43.456825,-0.592074,-44.525032,-0.717836,-45.481934,-1.151855C-46.25045,-1.524302,-46.901443,-2.10146,-47.363281,-2.819824L-47.363281,-1.000977L-49.328613,-1.000977L-49.328613,-13.964844L-47.131348,-13.964844L-47.131348,-7.23877zM16.408691,-14.240723C17.39045,-14.201312,18.346994,-13.91804,19.191895,-13.416504C20.242783,-12.750931,21.027384,-11.738084,21.40918,-10.554199L21.557617,-10.070801L19.287109,-9.790039L19.15625,-10.125977C18.909496,-10.790169,18.486179,-11.374743,17.932129,-11.816406C17.216908,-12.320234,16.340023,-12.540196,15.47168,-12.433594C14.16813,-12.318178,13.026279,-11.5129,12.47998,-10.32373C12.158873,-9.604939,11.979191,-8.831175,11.950684,-8.044434L21.618652,-8.044434C21.707661,-6.775508,21.534286,-5.5017,21.109375,-4.302734C20.275642,-2.075345,18.111835,-0.628089,15.734863,-0.708008C14.400267,-0.66866,13.092441,-1.089944,12.031738,-1.900879C10.945694,-2.766277,10.197342,-3.985137,9.916992,-5.345215C9.53983,-7.018215,9.601718,-8.759846,10.09668,-10.401855C10.776956,-12.49732,12.638206,-13.988892,14.831543,-14.196289C15.354774,-14.259619,15.882727,-14.274492,16.408691,-14.240723zM41.139648,-14.230957C42.553185,-14.100992,43.892021,-13.536732,44.972168,-12.615723L45.275879,-12.365723L45.339844,-12.809082C45.40934,-13.210238,45.535789,-13.599442,45.715332,-13.964844L48.010254,-13.964844C47.595421,-13.202982,47.375179,-12.350371,47.369141,-11.48291C47.327614,-10.500143,47.30938,-9.516346,47.314453,-8.532715L47.314453,-5.603027C47.333191,-4.925707,47.296448,-4.247981,47.20459,-3.57666C47.100342,-3.030552,46.865833,-2.517648,46.520996,-2.081543C46.033718,-1.563917,45.412453,-1.191936,44.726074,-1.006836C42.956646,-0.549586,41.094707,-0.604772,39.355469,-1.166016C38.506828,-1.431705,37.768082,-1.967888,37.252441,-2.692383C36.858543,-3.303766,36.586185,-3.985247,36.450195,-4.699707L38.598633,-4.992676L38.693359,-4.661133C38.839188,-4.118423,39.12122,-3.621922,39.512695,-3.21875C39.913025,-2.875577,40.407551,-2.660987,40.931641,-2.603027C41.764812,-2.464795,42.617687,-2.502217,43.435547,-2.712891C43.892117,-2.831488,44.305828,-3.077212,44.628418,-3.421387C44.875385,-3.747175,45.026817,-4.13505,45.065918,-4.541992C45.108322,-4.93897,45.11731,-5.338819,45.092773,-5.737305C44.024132,-6.062444,42.927937,-6.288644,41.817871,-6.413086L40.85791,-6.53418C40.156643,-6.604126,39.464611,-6.746984,38.792969,-6.960449C38.112587,-7.18616,37.498508,-7.576922,37.005859,-8.097656C35.87215,-9.370382,35.753117,-11.250721,36.717285,-12.65625C37.281174,-13.415835,38.110481,-13.935179,39.040039,-14.11084C39.730221,-14.253761,40.437679,-14.294235,41.139648,-14.230957zM69.216309,-14.240723C70.198067,-14.201314,71.15461,-13.918038,71.999512,-13.416504C73.050407,-12.750937,73.835007,-11.738087,74.216797,-10.554199L74.365234,-10.070801L72.094727,-9.790039L71.963867,-10.125977C71.717117,-10.790167,71.293793,-11.374741,70.739746,-11.816406C70.024521,-12.320231,69.147644,-12.54019,68.279297,-12.433594C66.975746,-12.318176,65.833893,-11.512901,65.287598,-10.32373C64.966492,-9.604938,64.786812,-8.831173,64.758301,-8.044434L74.42627,-8.044434C74.515282,-6.775513,74.341904,-5.501701,73.916992,-4.302734C73.08326,-2.075345,70.919449,-0.62809,68.54248,-0.708008C67.207886,-0.66866,65.900055,-1.089944,64.839355,-1.900879C63.753311,-2.766273,63.004955,-3.985137,62.724609,-5.345215C62.347446,-7.018219,62.409336,-8.759849,62.904297,-10.401855C63.584572,-12.49732,65.445824,-13.988894,67.63916,-14.196289C68.162392,-14.259616,68.690353,-14.274493,69.216309,-14.240723zM79.296875,-7.177734L79.319824,-6.495605C79.357834,-5.725661,79.52195,-4.967257,79.805664,-4.250488C80.219238,-3.342931,81.196213,-2.831316,82.177734,-3.008301C82.605492,-3.078131,83.015755,-3.229641,83.38623,-3.45459L84.143066,-1.416016C83.471428,-0.973279,82.68895,-0.727962,81.884766,-0.708008C81.050438,-0.71368,80.272278,-1.130443,79.805176,-1.821777C79.534042,-2.184422,79.290672,-2.567017,79.077148,-2.966309L79.077148,-1.000977L77.099609,-1.000977L77.099609,-13.964844L79.296875,-13.964844L79.296875,-7.177734zM-78.076172,-8.850098C-76.964386,-10.561035,-75.839874,-12.268188,-74.707031,-13.964844L-72.009277,-13.964844L-76.831055,-7.104492L-72.351074,-1.000977L-74.975586,-1.000977C-75.871811,-2.236908,-76.758957,-3.482544,-77.633789,-4.733398C-77.80809,-4.985142,-77.979836,-5.238209,-78.149414,-5.493164L-78.333984,-5.182617C-78.56813,-4.798374,-78.807602,-4.417847,-79.052734,-4.040527L-81.04248,-1.000977L-83.789063,-1.000977L-79.406738,-7.226563L-84.143066,-13.964844L-81.481934,-13.964844L-78.076172,-8.850098zM-26.293945,-1.000977L-28.491211,-1.000977L-28.491211,-13.964844L-26.293945,-13.964844L-26.293945,-1.000977zM52.296387,-19.218262C53.273872,-19.171698,54.173424,-18.668468,54.724609,-17.859863C55.130192,-17.278795,55.463055,-16.650284,55.71582,-15.988281C55.893581,-15.560819,56.064266,-15.130772,56.228027,-14.697754L61.352539,-1.000977L59.155273,-1.000977L56.384277,-8.557129C56.031906,-9.525397,55.730377,-10.511481,55.480957,-11.51123L55.266602,-10.73291C55.051491,-9.982937,54.809456,-9.240873,54.541016,-8.508301L51.843262,-1.000977L49.475098,-1.000977L54.394531,-13.989258L54.278809,-14.300781L54.199219,-14.526367C54.020222,-15.088946,53.795685,-15.636001,53.527832,-16.162109C53.195366,-16.702295,52.617439,-17.043907,51.983887,-17.074707C51.442219,-17.111605,50.898434,-17.050575,50.378418,-16.894531L50.622559,-18.95752C51.156055,-19.160572,51.72641,-19.24942,52.296387,-19.218262zM12.072754,-6.237793L12.114746,-5.824219C12.230601,-4.71273,12.833168,-3.709168,13.759766,-3.084473C15.042724,-2.267519,16.694351,-2.324934,17.91748,-3.229004C18.527594,-3.702423,18.954763,-4.372948,19.125977,-5.125977C19.218023,-5.490907,19.280079,-5.862749,19.311523,-6.237793L12.072754,-6.237793zM64.880371,-6.237793L64.922363,-5.824219C65.038223,-4.712729,65.640785,-3.709168,66.567383,-3.084473C67.850342,-2.267519,69.501968,-2.324935,70.725098,-3.229004C71.335213,-3.702423,71.762383,-4.372949,71.933594,-5.125977C72.025642,-5.490908,72.0877,-5.862747,72.119141,-6.237793L64.880371,-6.237793zM-4.403809,-12.432129C-5.111025,-12.34628,-5.767254,-12.019716,-6.262207,-11.507324C-6.774181,-11.002188,-7.139223,-10.367456,-7.318359,-9.670898C-7.667561,-8.223195,-7.673244,-6.714455,-7.334961,-5.26416C-7.182786,-4.576113,-6.839467,-3.944663,-6.344727,-3.442871C-5.214876,-2.305141,-3.407062,-2.211772,-2.166016,-3.227051C-1.627813,-3.666258,-1.223346,-4.247499,-0.998535,-4.904785C-0.711324,-5.800516,-0.576007,-6.737825,-0.598145,-7.678223C-0.571623,-8.5409,-0.705077,-9.40123,-0.991699,-10.215332C-1.33711,-11.170652,-2.082818,-11.926882,-3.033203,-12.285645C-3.473913,-12.433898,-3.941722,-12.483895,-4.403809,-12.432129zM-18.307617,-12.432129C-19.014832,-12.346279,-19.671061,-12.019716,-20.166016,-11.507324C-20.67799,-11.002188,-21.043032,-10.367455,-21.222168,-9.670898C-21.571369,-8.223197,-21.577053,-6.714452,-21.23877,-5.26416C-21.086596,-4.576114,-20.743277,-3.944664,-20.248535,-3.442871C-19.118687,-2.30514,-17.310871,-2.211771,-16.069824,-3.227051C-15.531621,-3.666258,-15.127154,-4.247499,-14.902344,-4.904785C-14.615132,-5.800517,-14.479815,-6.737825,-14.501953,-7.678223C-14.47543,-8.540899,-14.608885,-9.40123,-14.895508,-10.215332C-15.240919,-11.17065,-15.986626,-11.926879,-16.937012,-12.285645C-17.377722,-12.433898,-17.845531,-12.483895,-18.307617,-12.432129zM40.716797,-12.527344C40.440231,-12.513771,40.166203,-12.46772,39.900391,-12.390137C38.923893,-12.146286,38.290031,-11.201618,38.43457,-10.205566C38.538898,-9.485166,39.046265,-8.887671,39.740234,-8.667969C40.208755,-8.515989,40.6898,-8.405695,41.177734,-8.338379L42.083496,-8.200684C43.110836,-8.064905,44.120125,-7.81598,45.092773,-7.458496C45.127602,-8.153544,45.098011,-8.850448,45.004395,-9.540039C44.836044,-10.679815,44.091297,-11.652018,43.034668,-12.111328C42.309307,-12.442654,41.512104,-12.585738,40.716797,-12.527344z"/>
    <path transform="matrix(1,0,0,-1,190,-547.607605)" style="stroke:#000000;stroke-width:0.050000mm;fill:none" d="M-43.066406,4.003906L-44.482422,4.003906L-44.638672,3.712891C-45.302277,2.665725,-46.155323,1.751748,-47.154297,1.017578C-47.933193,0.428295,-48.772552,-0.076498,-49.658203,-0.488281L-49.658203,-2.612305C-48.23148,-2.054489,-46.894974,-1.289501,-45.691406,-0.341797L-45.263672,0.036621L-45.263672,-13.964844L-43.066406,-13.964844L-43.066406,4.003906zM13.964844,3.930664L11.767578,3.930664L11.767578,-13.964844L13.964844,-13.964844L13.964844,3.930664zM-26.049805,-14.123535C-25.618773,-14.092754,-25.19047,-14.031569,-24.768066,-13.94043L-25.085449,-11.999512L-25.370117,-12.037109C-25.796425,-12.117063,-26.235014,-12.102898,-26.655273,-11.995605C-27.034962,-11.844341,-27.279367,-11.470996,-27.266113,-11.0625C-27.287386,-10.805753,-27.296999,-10.54815,-27.294922,-10.290527L-27.294922,-2.709961L-25.085449,-2.709961L-25.085449,-1.000977L-27.294922,-1.000977L-27.294922,3.527832L-29.47998,2.209473L-29.47998,-1.000977L-31.091309,-1.000977L-31.091309,-2.709961L-29.47998,-2.709961L-29.47998,-10.168457C-29.499264,-10.905131,-29.448746,-11.641992,-29.329102,-12.369141C-29.23785,-12.842034,-28.974018,-13.264062,-28.588867,-13.553223C-28.123278,-13.892513,-27.568216,-14.086929,-26.992676,-14.112305C-26.679087,-14.139224,-26.363943,-14.142978,-26.049805,-14.123535zM-17.255859,-14.245605C-16.032282,-14.180094,-14.854915,-13.756453,-13.870117,-13.027344C-12.884981,-12.279696,-12.189576,-11.213638,-11.902344,-10.010742C-11.555915,-8.531067,-11.512406,-6.996922,-11.774414,-5.5C-12.08585,-3.649392,-13.281735,-2.066972,-14.977051,-1.262207C-16.009537,-0.806105,-17.142012,-0.622993,-18.265625,-0.730469C-19.778812,-0.818526,-21.198318,-1.493156,-22.222168,-2.61084C-22.98971,-3.515228,-23.478706,-4.622806,-23.629883,-5.799316C-23.879225,-7.329678,-23.778568,-8.89645,-23.335449,-10.382324C-22.628937,-12.576218,-20.641396,-14.107232,-18.339844,-14.230469C-17.979315,-14.260855,-17.617092,-14.265913,-17.255859,-14.245605zM-6.835938,-12.62207C-6.236706,-13.375034,-5.405887,-13.909291,-4.472168,-14.14209C-3.125141,-14.426363,-1.720281,-14.162819,-0.567871,-13.409668C0.476656,-12.73809,1.266172,-11.736111,1.674805,-10.563477C2.498338,-8.29408,2.40092,-5.793657,1.40332,-3.595215C0.552177,-1.794254,-1.280039,-0.662658,-3.271484,-0.708008C-4.198033,-0.670773,-5.11089,-0.942534,-5.866211,-1.480469C-6.316202,-1.817618,-6.709494,-2.224427,-7.03125,-2.685547L-7.03125,-1.000977L-9.033203,-1.000977L-9.033203,-18.933105L-6.835938,-18.933105L-6.835938,-12.62207zM21.693848,-14.230957C23.107382,-14.100992,24.44622,-13.536732,25.526367,-12.615723L25.830078,-12.365723L25.894043,-12.809082C25.963551,-13.210237,26.089994,-13.59944,26.269531,-13.964844L28.564453,-13.964844C28.14962,-13.202982,27.92938,-12.350371,27.92334,-11.48291C27.881813,-10.500103,27.863579,-9.516417,27.868652,-8.532715L27.868652,-5.603027C27.88739,-4.925704,27.850647,-4.247984,27.758789,-3.57666C27.649982,-2.963327,27.367218,-2.393895,26.944336,-1.936523C26.310192,-1.367364,25.5252,-0.993687,24.683594,-0.860352C23.203674,-0.596425,21.683983,-0.664123,20.233398,-1.058594C19.443178,-1.269673,18.722923,-1.686326,18.145996,-2.266113C17.623863,-2.866554,17.258797,-3.587125,17.083496,-4.363281L17.004395,-4.699707L19.152832,-4.992676L19.247559,-4.661133C19.393385,-4.118422,19.675419,-3.621922,20.066895,-3.21875C20.467224,-2.875576,20.961748,-2.660986,21.48584,-2.603027C22.319008,-2.464795,23.171885,-2.502216,23.989746,-2.712891C24.446316,-2.831492,24.860025,-3.077212,25.182617,-3.421387C25.429585,-3.747175,25.581017,-4.135049,25.620117,-4.541992C25.662525,-4.938972,25.671509,-5.338821,25.646973,-5.737305C24.578342,-6.062445,23.482136,-6.288649,22.37207,-6.413086L21.412109,-6.53418C20.710836,-6.604129,20.01882,-6.746984,19.347168,-6.960449C18.66674,-7.18637,18.052555,-7.577092,17.55957,-8.097656C16.426346,-9.370633,16.307529,-11.25074,17.271484,-12.65625C17.835365,-13.41584,18.664675,-13.935185,19.594238,-14.11084C20.284416,-14.253758,20.991879,-14.29423,21.693848,-14.230957zM49.770508,-14.240723C50.752266,-14.201313,51.708813,-13.918041,52.553711,-13.416504C53.604603,-12.750935,54.389206,-11.738087,54.770996,-10.554199L54.919434,-10.070801L52.648926,-9.790039L52.518066,-10.125977C52.271317,-10.790169,51.848,-11.374746,51.293945,-11.816406C50.578724,-12.320237,49.701839,-12.540197,48.833496,-12.433594C47.529945,-12.318179,46.3881,-11.512898,45.841797,-10.32373C45.520691,-9.60494,45.341007,-8.831174,45.3125,-8.044434L54.980469,-8.044434C55.069477,-6.775508,54.896103,-5.501701,54.471191,-4.302734C53.637459,-2.075345,51.473648,-0.62809,49.09668,-0.708008C47.762081,-0.668659,46.454254,-1.089945,45.393555,-1.900879C44.30751,-2.766278,43.559158,-3.985139,43.278809,-5.345215C42.901649,-7.018214,42.963539,-8.759849,43.458496,-10.401855C44.138771,-12.497322,46.000019,-13.988896,48.193359,-14.196289C48.716591,-14.259621,49.244541,-14.274494,49.770508,-14.240723zM59.851074,-7.177734L59.874023,-6.495605C59.912025,-5.725664,60.076145,-4.967258,60.359863,-4.250488C60.773445,-3.342935,61.750416,-2.831319,62.731934,-3.008301C63.159691,-3.078133,63.569958,-3.22964,63.94043,-3.45459L64.697266,-1.416016C64.025627,-0.973279,63.243153,-0.727962,62.438965,-0.708008C61.604641,-0.713681,60.826477,-1.130442,60.359375,-1.821777C60.088242,-2.184419,59.844868,-2.567024,59.631348,-2.966309L59.631348,-1.000977L57.653809,-1.000977L57.653809,-13.964844L59.851074,-13.964844L59.851074,-7.177734zM-58.630371,-8.850098C-57.518555,-10.561035,-56.394043,-12.268188,-55.26123,-13.964844L-52.563477,-13.964844L-57.385254,-7.104492L-52.905273,-1.000977L-55.529785,-1.000977C-56.425781,-2.236618,-57.313171,-3.48259,-58.187988,-4.733398C-58.362267,-4.985107,-58.534058,-5.238235,-58.703613,-5.493164L-58.888184,-5.182617C-59.122314,-4.798389,-59.361809,-4.417839,-59.606934,-4.040527L-61.59668,-1.000977L-64.343262,-1.000977L-59.960938,-7.226563L-64.697266,-13.964844L-62.036133,-13.964844L-58.630371,-8.850098zM32.850586,-19.218262C33.828079,-19.171721,34.727642,-18.668491,35.278809,-17.859863C35.684387,-17.278795,36.017254,-16.650284,36.27002,-15.988281C36.447746,-15.560907,36.6185,-15.130679,36.782227,-14.697754L41.906738,-1.000977L39.709473,-1.000977L36.938477,-8.557129C36.586102,-9.525416,36.28458,-10.511479,36.035156,-11.51123L35.820801,-10.73291C35.605679,-9.982904,35.36367,-9.240917,35.095215,-8.508301L32.397461,-1.000977L30.029297,-1.000977L34.94873,-13.989258L34.833008,-14.300781L34.753418,-14.526367C34.574429,-15.088945,34.349888,-15.636002,34.082031,-16.162109C33.749573,-16.702305,33.171642,-17.043921,32.538086,-17.074707C31.99642,-17.111599,31.452633,-17.050571,30.932617,-16.894531L31.176758,-18.95752C31.710255,-19.160572,32.280609,-19.249416,32.850586,-19.218262zM-3.930176,-12.432617C-4.758028,-12.331972,-5.512675,-11.908767,-6.030273,-11.254883C-6.486363,-10.671288,-6.785948,-9.981218,-6.900879,-9.249512C-7.135494,-7.955683,-7.092052,-6.626819,-6.773438,-5.351074C-6.495444,-4.25473,-5.783761,-3.318508,-4.801758,-2.757324C-3.630275,-2.152916,-2.199288,-2.404867,-1.304688,-3.373047C-0.805545,-3.881902,-0.451552,-4.514875,-0.279297,-5.206543C0.067559,-6.662011,0.065551,-8.178271,-0.285156,-9.632813C-0.50964,-10.589447,-1.090984,-11.424604,-1.910156,-11.967285C-2.509281,-12.351613,-3.223287,-12.516091,-3.930176,-12.432617zM45.43457,-6.237793L45.476563,-5.824219C45.592415,-4.712729,46.194984,-3.709167,47.121582,-3.084473C48.404541,-2.267519,50.056168,-2.324933,51.279297,-3.229004C51.889412,-3.702424,52.316578,-4.372949,52.487793,-5.125977C52.579842,-5.49091,52.641895,-5.862746,52.67334,-6.237793L45.43457,-6.237793zM-18.079102,-12.431641C-19.279251,-12.310244,-20.33576,-11.588502,-20.885254,-10.514648C-21.250189,-9.755183,-21.452553,-8.928104,-21.479492,-8.085938C-21.551655,-7.152003,-21.465639,-6.212435,-21.225098,-5.307129C-20.976208,-4.347944,-20.363266,-3.523216,-19.516602,-3.008301C-18.264622,-2.286898,-16.705845,-2.371285,-15.539063,-3.223633C-14.858643,-3.742884,-14.367144,-4.471123,-14.140137,-5.296387C-13.902656,-6.185855,-13.816175,-7.108744,-13.884277,-8.026855C-13.910879,-8.731155,-14.048307,-9.426864,-14.291504,-10.088379C-14.712351,-11.243398,-15.692543,-12.104702,-16.89209,-12.373535C-17.282734,-12.451335,-17.682724,-12.470916,-18.079102,-12.431641zM21.270996,-12.527344C20.831121,-12.514442,20.39933,-12.405078,20.006348,-12.207031C19.092056,-11.730729,18.711617,-10.620562,19.141602,-9.683594C19.404678,-9.146358,19.891609,-8.753057,20.472168,-8.608887C21.182314,-8.416842,21.906363,-8.280357,22.637695,-8.200684L23.179688,-8.108398C24.021709,-7.974499,24.848257,-7.756779,25.646973,-7.458496C25.681801,-8.153533,25.65221,-8.850449,25.558594,-9.540039C25.390251,-10.679816,24.645498,-11.65202,23.588867,-12.111328C22.86351,-12.442651,22.066305,-12.585735,21.270996,-12.527344z"/>
</svg>
