<?xml version="1.0" encoding="UTF-8" standalone="no"?>
<svg xmlns="http://www.w3.org/2000/svg" xmlns:xlink="http://www.w3.org/1999/xlink" width="71.416mm" height="81.998mm" viewBox="41.292126 -107.998978 71.415741 81.997986">
    <path transform="matrix(0.966667,0,0,-0.966667,77.000015,-95.098969)" style="stroke:#000000;stroke-width:0.051724mm;fill:none" d="M3,0C3,-1.656855,1.656854,-3.000001,0,-3.000001C-1.656854,-3.000001,-3,-1.656855,-3,0C-3,1.656855,-1.656854,3.000001,0,3.000001C1.656854,3.000001,3,1.656855,3,0z"/>
    <path transform="matrix(1,0,0,-1,77.000015,-54.498978)" style="stroke:#000000;stroke-width:0.050000mm;fill:none" d="M3,0C3,-1.656855,1.656854,-3.000001,0,-3.000001C-1.656854,-3.000001,-3,-1.656855,-3,0C-3,1.656855,-1.656854,3.000001,0,3.000001C1.656854,3.000001,3,1.656855,3,0z"/>
    <path transform="matrix(-0.988159,0.153435,-0.153435,-0.988159,135.560791,105.579956)" style="stroke:#000000;stroke-width:0.050000mm;fill:none" d="M50.000061,170.000168L50.000061,190.000549C50.037228,190.034225,51.278374,190.991745,52.494308,191.001862C53.710243,191.011978,54.90097,190.074677,55.000061,190.000549L55,170L54.76445,149.476364C54.727234,149.441483,53.48745,148.487671,52.272469,148.478439C51.057487,148.469193,49.867332,149.40451,49.764465,149.476364L50.000061,170.000168z"/>
    <path transform="matrix(1,0,0,-1,-2.999989,-4.498978)" style="stroke:#000000;stroke-width:0.050000mm;fill:none" d="M80,103.5C76.410156,103.5,73.160141,102.026993,70.807617,99.645477C70.244568,99.0755,69.732941,98.453476,69.280426,97.787262L59.370842,85.729675L49.265289,79.853409C45.677235,77.766991,43.750999,73.681015,44.424721,69.58548L48.04805,47.559441L51.262753,28.192051C51.903439,24.332142,55.242054,21.502008,59.154774,21.50201L80,21.502014"/>
    <path transform="matrix(0.988159,0.153435,0.153435,-0.988159,18.43922,105.579956)" style="stroke:#000000;stroke-width:0.050000mm;fill:none" d="M50.000061,170.000168L50.000061,190.000549C50.037228,190.034225,51.278374,190.991745,52.494308,191.001862C53.710243,191.011978,54.90097,190.074677,55.000061,190.000549L55,170L54.76445,149.476364C54.727234,149.441483,53.48745,148.487671,52.272469,148.478439C51.057487,148.469193,49.867332,149.40451,49.764465,149.476364L50.000061,170.000168z"/>
    <path transform="matrix(-1,0,0,-1,156.999969,-4.498978)" style="stroke:#000000;stroke-width:0.050000mm;fill:none" d="M80,103.5C76.410156,103.5,73.160141,102.026993,70.807617,99.645477C70.244568,99.0755,69.732941,98.453476,69.280426,97.787262L59.370842,85.729675L49.265289,79.853409C45.677235,77.766991,43.750999,73.681015,44.424721,69.58548L48.04805,47.559441L51.262753,28.192051C51.903439,24.332142,55.242054,21.502008,59.154774,21.50201L80,21.502014"/>
</svg>
