<?xml version="1.0" encoding="UTF-8" standalone="no"?>
<svg xmlns="http://www.w3.org/2000/svg" xmlns:xlink="http://www.w3.org/1999/xlink" width="191.200mm" height="234.833mm" viewBox="15.163509 -309.986877 191.200363 234.832825">
    <circle transform="matrix(-1,-0,-0,1,107.000015,-242.845947)" style="stroke:#000000;stroke-width:0.050000mm;fill:none" r="2.5" cx="0" cy="0"/>
    <circle transform="matrix(1,0,0,-1,106.999985,-85.154037)" style="stroke:#000000;stroke-width:0.050000mm;fill:none" r="2.5" cx="0" cy="0"/>
    <path transform="matrix(-1,-0,-0,1,199.700012,-292.845947)" style="stroke:#000000;stroke-width:0.050000mm;fill:none" d="M105.399986,132.691895L105.399986,129.345947L105.399986,126L105.399986,44.999996C105.399986,42.238571,103.161423,39.999996,100.399986,39.999996L85,39.999996C82.238579,39.999996,80,42.238571,80,44.999996L80,126L80,129.345947L80,132.691895L80.000008,212.691895C80.000008,215.453323,82.238586,217.691895,85.000008,217.691895L100.400009,217.691895C103.16143,217.691895,105.400009,215.453323,105.400009,212.691895L105.399986,132.691895z"/>
    <path transform="matrix(-0,1,0.98,0,87.399994,-273.654053)" style="stroke:#000000;stroke-width:0.051020mm;fill:none" d="M153.5,17.5C154.880707,17.5,156,18.619287,156,20C156,21.380711,154.880707,22.5,153.5,22.5L143.5,22.5C142.119293,22.5,141,21.380713,141,20C141,18.619289,142.119293,17.5,143.5,17.5L153.5,17.5z"/>
    <path transform="matrix(-0,1,0.98,0,87.399979,-269.654053)" style="stroke:#000000;stroke-width:0.051020mm;fill:none" d="M173.5,17.5L163.5,17.5C162.119293,17.5,161,18.619289,161,20C161,21.380713,162.119293,22.5,163.5,22.5L173.5,22.5C174.880707,22.5,176,21.380711,176,20C176,18.619287,174.880707,17.5,173.5,17.5z"/>
    <path transform="matrix(-0,1,0.98,0,87.399994,-277.654053)" style="stroke:#000000;stroke-width:0.051020mm;fill:none" d="M123.5,22.500031C122.119293,22.500031,121,21.380743,121,20.000031C121,18.61932,122.119293,17.500031,123.5,17.500031L133.5,17.500031C134.880707,17.500031,136,18.619318,136,20.000031C136,21.380741,134.880707,22.500031,133.5,22.500031L123.5,22.500031z"/>
    <path transform="matrix(1,0,0,-1,110.761345,-305.719025)" style="stroke:#000000;stroke-width:0.050000mm;fill:none" d="M-82.529785,-19.213867C-81.649429,-19.189026,-80.772629,-19.091856,-79.908203,-18.92334C-77.193176,-18.394855,-74.764221,-16.893454,-73.077637,-14.701172C-72.850677,-14.397442,-72.652397,-14.073288,-72.485352,-13.73291L-74.694824,-13.73291L-74.980469,-14.110352C-75.658669,-14.910267,-76.481865,-15.574921,-77.406738,-16.069336C-78.527718,-16.699284,-79.760033,-17.10652,-81.035645,-17.268555C-83.188744,-17.579552,-85.383278,-17.433304,-87.476074,-16.839355C-88.529022,-16.548521,-89.524948,-16.080532,-90.420898,-15.455566C-91.781219,-14.465246,-92.787399,-13.06398,-93.291016,-11.458496C-94.259659,-8.314588,-93.847557,-4.907722,-92.157227,-2.085449C-91.106064,-0.351557,-89.513046,0.988003,-87.624512,1.726074C-85.218399,2.676748,-82.551613,2.731668,-80.108398,1.880859C-78.881897,1.448808,-77.770782,0.740978,-76.86084,-0.187988C-74.746948,-2.475725,-74.284378,-5.838819,-75.702148,-8.612305C-76.359627,-9.999866,-77.472046,-11.12089,-78.854492,-11.789063C-79.13662,-11.93598,-79.456329,-11.995668,-79.772461,-11.960449C-80.188164,-11.893779,-80.483139,-11.519372,-80.450684,-11.099609C-80.350601,-10.488374,-80.230431,-9.880663,-80.090332,-9.277344L-78.33252,-1.086426L-80.517578,-1.086426L-80.932617,-2.978516L-81.11084,-2.703613C-81.825844,-1.578274,-83.026329,-0.852093,-84.35498,-0.741211C-85.188889,-0.702123,-86.017799,-0.888856,-86.754395,-1.281738C-87.853035,-1.834243,-88.779297,-2.677577,-89.432129,-3.719727C-90.29538,-5.00551,-90.814247,-6.491497,-90.938965,-8.035156C-91.067154,-9.550964,-90.656288,-11.063522,-89.778809,-12.306152C-88.878677,-13.574799,-87.324631,-14.205634,-85.794922,-13.92334C-85.178192,-13.782241,-84.596352,-13.517811,-84.084473,-13.145996C-83.605156,-12.811335,-83.169647,-12.417983,-82.788086,-11.975098L-82.746094,-12.319824C-82.724068,-12.744521,-82.544655,-13.146367,-82.243164,-13.446289C-81.8507,-13.787231,-81.352646,-13.981929,-80.833008,-13.997559C-79.459602,-14.088332,-78.099411,-13.680137,-77.00293,-12.848145C-75.302475,-11.593716,-74.051094,-9.825531,-73.433594,-7.804688C-72.358871,-4.029288,-73.754326,0.015914,-76.928223,2.325684C-78.443336,3.37057,-80.200851,4.00986,-82.033203,4.182617C-84.021568,4.402979,-86.034042,4.195372,-87.935547,3.57373C-90.017914,2.854959,-91.821762,1.499677,-93.091797,-0.300293C-95.383385,-3.52876,-96.154892,-7.595015,-95.205078,-11.438477C-94.898102,-12.701745,-94.339912,-13.89053,-93.563965,-14.933594C-92.353455,-16.516697,-90.699493,-17.704268,-88.8125,-18.345215C-86.79055,-19.023098,-84.659821,-19.317696,-82.529785,-19.213867zM-10.017578,-14.256836C-8.839716,-14.18148,-7.711149,-13.755865,-6.776855,-13.034668C-6.028182,-12.460329,-5.435633,-11.707092,-5.053711,-10.844238C-4.508686,-9.535222,-4.478692,-8.068979,-4.969727,-6.73877C-5.428507,-5.588718,-6.394754,-4.716084,-7.585449,-4.376465L-7.971191,-4.272461L-7.675293,-4.125977C-5.951824,-3.274812,-5.100946,-1.296467,-5.668457,0.540039C-6.057948,1.89457,-7.049538,2.994776,-8.356445,3.522461C-9.88048,4.167349,-11.599611,4.169813,-13.125488,3.529297C-14.282326,3.003845,-15.195562,2.057256,-15.679199,0.882324C-15.883605,0.394681,-16.033281,-0.11412,-16.125488,-0.634766L-13.928223,-1.025391L-13.857422,-0.635254C-13.739449,0.028653,-13.456152,0.652173,-13.033691,1.177734C-12.445593,1.850778,-11.586714,2.224936,-10.693359,2.197266C-9.716482,2.240806,-8.784624,1.781878,-8.223633,0.980957C-7.849216,0.404761,-7.692391,-0.285894,-7.78125,-0.967285C-7.840208,-1.854158,-8.371554,-2.641662,-9.171875,-3.02832C-9.9634,-3.464465,-10.868026,-3.651313,-11.767578,-3.564453L-12.011719,-5.493164L-11.566895,-5.38623C-10.742967,-5.167688,-9.871714,-5.20551,-9.069824,-5.494629C-7.754463,-6.018911,-6.909348,-7.312863,-6.958008,-8.728027C-6.934745,-9.717051,-7.315193,-10.672394,-8.010114,-11.376518C-8.705032,-12.080642,-9.655287,-12.473626,-10.644531,-12.463379C-11.937101,-12.495152,-13.120635,-11.740186,-13.636719,-10.554688C-13.872238,-10.041981,-14.043932,-9.5023,-14.147949,-8.947754L-16.345215,-9.240723C-16.262836,-10.284496,-15.887983,-11.283989,-15.263672,-12.124512C-14.418721,-13.242115,-13.170008,-13.985035,-11.784668,-14.194336C-11.200153,-14.284784,-10.607019,-14.305763,-10.017578,-14.256836zM-52.453613,3.930664L-54.650879,3.930664L-54.650879,1.403809L-52.453613,1.403809L-52.453613,3.930664zM-33.056641,3.930664L-35.253906,3.930664L-35.253906,-13.964844L-33.056641,-13.964844L-33.056641,3.930664zM82.60498,-14.123535C83.036011,-14.092758,83.464317,-14.031569,83.886719,-13.94043L83.569336,-11.999512L83.284668,-12.037109C82.85836,-12.117056,82.419769,-12.102892,81.999512,-11.995605C81.62011,-11.843964,81.375893,-11.470886,81.388672,-11.0625C81.367401,-10.805752,81.357788,-10.548148,81.359863,-10.290527L81.359863,-2.709961L83.569336,-2.709961L83.569336,-1.000977L81.359863,-1.000977L81.359863,3.527832L79.174805,2.209473L79.174805,-1.000977L77.563477,-1.000977L77.563477,-2.709961L79.174805,-2.709961L79.174805,-10.168457C79.155594,-10.905135,79.206108,-11.641984,79.325684,-12.369141C79.416931,-12.842035,79.680771,-13.264059,80.065918,-13.553223C80.531502,-13.892521,81.086571,-14.086926,81.662109,-14.112305C81.9757,-14.139234,82.29084,-14.142979,82.60498,-14.123535zM-66.101074,-14.123535C-65.822891,-14.105185,-65.545837,-14.07259,-65.270996,-14.025879L-64.819336,-13.94043L-65.136719,-11.999512L-65.421387,-12.037109C-65.847694,-12.117058,-66.286285,-12.102896,-66.706543,-11.995605C-67.086227,-11.844341,-67.33062,-11.470994,-67.317383,-11.0625C-67.338661,-10.805743,-67.348274,-10.548159,-67.346191,-10.290527L-67.346191,-2.709961L-65.136719,-2.709961L-65.136719,-1.000977L-67.346191,-1.000977L-67.346191,3.527832L-69.53125,2.209473L-69.53125,-1.000977L-71.142578,-1.000977L-71.142578,-2.709961L-69.53125,-2.709961L-69.53125,-10.168457C-69.550537,-10.905131,-69.500015,-11.641994,-69.380371,-12.369141C-69.289131,-12.842039,-69.025299,-13.264073,-68.640137,-13.553223C-68.174545,-13.892516,-67.619484,-14.086931,-67.043945,-14.112305C-66.730354,-14.139217,-66.415215,-14.142973,-66.101074,-14.123535zM44.209473,-14.238281C46.37545,-14.110453,48.228279,-12.63542,48.838379,-10.553223C48.946453,-10.207752,49.028709,-9.854727,49.084473,-9.49707L46.923828,-9.216309L46.855957,-9.614746C46.745674,-10.286537,46.461514,-10.917822,46.031738,-11.445801C45.428848,-12.112597,44.563023,-12.480326,43.664551,-12.451172C42.207302,-12.485955,40.898479,-11.562696,40.442383,-10.178223C40.160976,-9.304003,40.028778,-8.388826,40.05127,-7.470703C40.038532,-6.719337,40.125721,-5.969604,40.310547,-5.241211C40.475044,-4.546954,40.839226,-3.915698,41.35791,-3.425781C42.088955,-2.75667,43.069756,-2.429201,44.056152,-2.524902C45.116055,-2.59836,46.042686,-3.267488,46.445801,-4.250488C46.572468,-4.536535,46.671234,-4.834137,46.740723,-5.13916L48.876953,-4.80957C48.726444,-3.91227,48.343815,-3.069909,47.76709,-2.366211C47.093956,-1.591202,46.18309,-1.060992,45.176758,-0.858398C43.76157,-0.544478,42.282436,-0.703489,40.966309,-1.311035C39.716347,-1.88615,38.760139,-2.95375,38.325684,-4.259277C37.653469,-6.245461,37.60865,-8.389311,38.197266,-10.401855C38.849957,-12.56617,40.783524,-14.094814,43.040039,-14.230469C43.429024,-14.264074,43.820068,-14.266685,44.209473,-14.238281zM56.960449,-14.240723C57.942207,-14.201309,58.898746,-13.918038,59.743652,-13.416504C60.79454,-12.750933,61.579144,-11.738086,61.960938,-10.554199L62.109375,-10.070801L59.838867,-9.790039L59.708008,-10.125977C59.461254,-10.790167,59.037937,-11.374742,58.483887,-11.816406C57.768669,-12.320238,56.891785,-12.540203,56.023438,-12.433594C54.719887,-12.318179,53.578037,-11.512898,53.031738,-10.32373C52.710629,-9.604939,52.530945,-8.831175,52.502441,-8.044434L62.17041,-8.044434C62.259422,-6.775509,62.086044,-5.501703,61.661133,-4.302734C60.8274,-2.075345,58.663589,-0.62809,56.286621,-0.708008C54.952023,-0.668645,53.644192,-1.08993,52.583496,-1.900879C51.497452,-2.766277,50.7491,-3.985137,50.46875,-5.345215C50.091587,-7.018213,50.153477,-8.759848,50.648438,-10.401855C51.328716,-12.497322,53.189964,-13.988897,55.383301,-14.196289C55.906532,-14.259618,56.434486,-14.274491,56.960449,-14.240723zM67.06543,-12.62207L67.365723,-12.960938C67.988541,-13.603933,68.797997,-14.034801,69.679199,-14.192383C71.942825,-14.525051,74.167313,-13.385761,75.220215,-11.354492C75.83812,-10.123989,76.147919,-8.761959,76.123047,-7.385254C76.149666,-5.939332,75.801994,-4.511157,75.11377,-3.239258C74.19812,-1.635669,72.475937,-0.663464,70.629883,-0.708008C69.703331,-0.670774,68.790474,-0.942535,68.035156,-1.480469C67.585167,-1.817616,67.191872,-2.224427,66.870117,-2.685547L66.870117,-1.000977L64.868164,-1.000977L64.868164,-18.933105L67.06543,-18.933105L67.06543,-12.62207zM26.757813,-6.884766L26.773926,-6.287109C26.792343,-5.639724,26.921488,-5.000271,27.155762,-4.396484C27.386272,-3.851675,27.792862,-3.400044,28.310547,-3.11377C29.243677,-2.562324,30.374756,-2.46015,31.391602,-2.835449C31.962282,-3.054988,32.415577,-3.503146,32.641602,-4.071289C32.84156,-4.720897,32.928276,-5.400091,32.897949,-6.079102L32.897949,-13.964844L35.095215,-13.964844C35.109375,-11.189322,35.108765,-8.401875,35.093262,-5.626465C35.103413,-5.034462,35.063225,-4.442612,34.973145,-3.857422C34.854252,-3.202547,34.574696,-2.587229,34.159668,-2.066895C33.791092,-1.65504,33.332203,-1.334187,32.818848,-1.129395C31.543585,-0.608722,30.123762,-0.565734,28.819336,-1.008301C27.878899,-1.354782,27.077635,-1.999636,26.538086,-2.844238L26.538086,-1.000977L24.560547,-1.000977L24.560547,-13.964844L26.757813,-13.964844L26.757813,-6.884766zM-60.81543,-7.177734C-60.824226,-6.309612,-60.700737,-5.445197,-60.449219,-4.614258C-60.250584,-3.902842,-59.717503,-3.332768,-59.020996,-3.086914C-58.535137,-2.938251,-58.0154,-2.941998,-57.531738,-3.097656C-57.24939,-3.182674,-56.978745,-3.302578,-56.726074,-3.45459L-55.969238,-1.416016C-56.640877,-0.973279,-57.423351,-0.727962,-58.227539,-0.708008C-59.061916,-0.713433,-59.840206,-1.130262,-60.307129,-1.821777C-60.578262,-2.184418,-60.821632,-2.56702,-61.035156,-2.966309L-61.035156,-1.000977L-63.012695,-1.000977L-63.012695,-13.964844L-60.81543,-13.964844L-60.81543,-7.177734zM16.337891,-14.245605C17.965931,-14.171818,19.494396,-13.441929,20.575195,-12.222168C21.214516,-11.451302,21.636461,-10.523627,21.797363,-9.535156C22.047243,-8.20238,22.054688,-6.835416,21.819336,-5.5C21.507925,-3.649378,20.312035,-2.066951,18.616699,-1.262207C17.584238,-0.80603,16.45174,-0.622913,15.328125,-0.730469C13.814937,-0.818527,12.39543,-1.493156,11.371582,-2.61084C10.604042,-3.515225,10.115046,-4.622803,9.963867,-5.799316C9.714527,-7.32968,9.815184,-8.896454,10.258301,-10.382324C10.964828,-12.576208,12.952363,-14.107218,15.253906,-14.230469C15.614429,-14.260855,15.976657,-14.265912,16.337891,-14.245605zM3.901855,-14.238281C6.067828,-14.110455,7.920659,-12.635422,8.530762,-10.553223C8.638837,-10.207752,8.721095,-9.854725,8.776855,-9.49707L6.616211,-9.216309L6.54834,-9.614746C6.438061,-10.286537,6.153897,-10.917825,5.724121,-11.445801C5.12123,-12.112597,4.255404,-12.480324,3.356934,-12.451172C1.899677,-12.485971,0.590845,-11.562708,0.134766,-10.178223C-0.146562,-9.303988,-0.278762,-8.388819,-0.256348,-7.470703C-0.269084,-6.719337,-0.181893,-5.969602,0.00293,-5.241211C0.167423,-4.546953,0.531609,-3.915697,1.050293,-3.425781C1.781336,-2.756669,2.76214,-2.429202,3.748535,-2.524902C4.808438,-2.59836,5.735068,-3.267489,6.138184,-4.250488C6.264852,-4.536537,6.363615,-4.834136,6.433105,-5.13916L8.569336,-4.80957C8.418827,-3.912269,8.036197,-3.069909,7.459473,-2.366211C6.78634,-1.591202,5.87547,-1.060992,4.869141,-0.858398C3.45395,-0.544477,1.974822,-0.703488,0.658691,-1.311035C-0.591269,-1.886148,-1.547477,-2.953749,-1.981934,-4.259277C-2.654146,-6.245459,-2.698967,-8.389312,-2.110352,-10.401855C-1.457679,-12.566187,0.475899,-14.094839,2.732422,-14.230469C3.12141,-14.264078,3.512454,-14.266691,3.901855,-14.238281zM-46.911621,-12.62207C-46.312393,-13.375033,-45.481571,-13.909291,-44.547852,-14.14209C-43.200825,-14.426357,-41.795967,-14.162816,-40.643555,-13.409668C-39.59906,-12.738057,-38.809551,-11.736086,-38.400879,-10.563477C-37.577347,-8.294078,-37.674767,-5.793657,-38.672363,-3.595215C-39.523506,-1.794253,-41.355724,-0.662658,-43.347168,-0.708008C-44.273716,-0.670772,-45.186577,-0.942534,-45.941895,-1.480469C-46.391884,-1.817616,-46.785179,-2.224425,-47.106934,-2.685547L-47.106934,-1.000977L-49.108887,-1.000977L-49.108887,-18.933105L-46.911621,-18.933105L-46.911621,-12.62207zM90.757324,-14.249512C91.890015,-14.226917,92.993515,-13.886328,93.941895,-13.266602C95.434631,-12.259743,96.00769,-10.337656,95.310059,-8.677734C94.914322,-7.889956,94.220062,-7.293096,93.381836,-7.02002C92.271057,-6.625065,91.141823,-6.284176,89.998047,-5.998535L89.352539,-5.818359C88.945526,-5.729424,88.549599,-5.595264,88.172363,-5.418457C87.749283,-5.229059,87.442085,-4.848913,87.345703,-4.395508C87.275154,-3.852801,87.51973,-3.31723,87.976074,-3.015137C88.318108,-2.780881,88.711792,-2.633295,89.123535,-2.584961C89.837463,-2.462444,90.56897,-2.4862,91.273438,-2.654785C92.196922,-2.897434,92.873047,-3.688649,92.96875,-4.638672L95.117188,-4.345703C95.024765,-3.626623,94.765594,-2.939053,94.360352,-2.337891C93.920189,-1.784482,93.328606,-1.370868,92.657715,-1.147461C91.043518,-0.572372,89.283524,-0.558786,87.660645,-1.108887C86.359222,-1.531718,85.41468,-2.662203,85.22998,-4.018066C85.020088,-5.544555,85.909164,-7.010454,87.359863,-7.529785C88.50914,-7.95853,89.685738,-8.310059,90.881836,-8.582031L91.267578,-8.6875C91.765022,-8.804226,92.246208,-8.98184,92.700195,-9.216309C93.229858,-9.547093,93.475555,-10.190384,93.30127,-10.790039C93.110237,-11.454321,92.608566,-11.983832,91.955566,-12.210449C90.912102,-12.547878,89.788155,-12.536921,88.751465,-12.179199C87.960518,-11.862148,87.364967,-11.191156,87.144043,-10.368164C87.084625,-10.166848,87.04039,-9.961353,87.011719,-9.753418L84.838867,-10.095215C84.958031,-10.873689,85.241707,-11.618004,85.670898,-12.27832C86.256096,-13.140043,87.141914,-13.752471,88.154785,-13.995605C89.005501,-14.205633,89.882057,-14.291155,90.757324,-14.249512zM-23.654785,-14.240723C-22.673046,-14.20118,-21.716537,-13.917921,-20.871582,-13.416504C-19.820694,-12.75093,-19.036091,-11.738084,-18.654297,-10.554199L-18.505859,-10.070801L-20.776367,-9.790039L-20.907227,-10.125977C-21.15398,-10.790166,-21.577297,-11.374742,-22.131348,-11.816406C-22.846569,-12.320236,-23.723454,-12.540198,-24.591797,-12.433594C-25.895344,-12.318174,-27.037193,-11.512897,-27.583496,-10.32373C-27.904604,-9.604939,-28.08429,-8.831175,-28.112793,-8.044434L-18.444824,-8.044434C-18.355812,-6.775515,-18.52919,-5.501703,-18.954102,-4.302734C-19.787844,-2.07535,-21.951647,-0.628097,-24.328613,-0.708008C-25.663212,-0.668659,-26.971039,-1.089943,-28.031738,-1.900879C-29.117809,-2.766254,-29.866169,-3.985124,-30.146484,-5.345215C-30.523643,-7.018214,-30.461754,-8.759848,-29.966797,-10.401855C-29.286535,-12.497333,-27.425278,-13.988909,-25.231934,-14.196289C-24.708706,-14.259617,-24.180744,-14.274492,-23.654785,-14.240723zM-52.453613,-1.000977L-54.650879,-1.000977L-54.650879,-13.964844L-52.453613,-13.964844L-52.453613,-1.000977zM69.971191,-12.432617L69.631348,-12.376465C68.666664,-12.131147,67.860039,-11.4718,67.427734,-10.575195C67.085014,-9.815063,66.896667,-8.994633,66.873535,-8.161133C66.80423,-7.216888,66.890182,-6.267516,67.12793,-5.351074C67.406227,-4.254864,68.117821,-3.318767,69.099609,-2.757324C70.271088,-2.152913,71.70208,-2.404863,72.59668,-3.373047C73.095871,-3.881867,73.449875,-4.514849,73.62207,-5.206543C73.968925,-6.662011,73.966919,-8.17827,73.616211,-9.632813C73.392052,-10.589579,72.810616,-11.424862,71.991211,-11.967285C71.39209,-12.351617,70.678078,-12.5161,69.971191,-12.432617zM-44.005859,-12.432617C-44.83371,-12.331964,-45.588356,-11.908764,-46.105957,-11.254883C-46.562042,-10.671286,-46.861629,-9.981217,-46.976563,-9.249512C-47.211182,-7.955686,-47.16774,-6.62682,-46.849121,-5.351074C-46.571125,-4.254728,-45.859444,-3.318507,-44.877441,-2.757324C-43.705959,-2.152915,-42.274971,-2.404868,-41.380371,-3.373047C-40.881229,-3.881901,-40.527237,-4.514875,-40.35498,-5.206543C-40.008125,-6.662004,-40.010132,-8.178263,-40.36084,-9.632813C-40.585323,-10.589447,-41.166668,-11.424606,-41.98584,-11.967285C-42.584961,-12.351617,-43.298969,-12.516094,-44.005859,-12.432617zM52.624512,-6.237793L52.666504,-5.824219C52.78236,-4.71273,53.384926,-3.709169,54.311523,-3.084473C55.594482,-2.26752,57.246109,-2.324932,58.469238,-3.229004C59.07935,-3.702427,59.506519,-4.37295,59.677734,-5.125977C59.769783,-5.490906,59.831837,-5.862747,59.863281,-6.237793L52.624512,-6.237793zM-27.990723,-6.237793C-27.961155,-5.469323,-27.725183,-4.72295,-27.307617,-4.077148C-26.552799,-2.960525,-25.232929,-2.363778,-23.895996,-2.534668C-22.454084,-2.670153,-21.261772,-3.714483,-20.9375,-5.125977C-20.845451,-5.490913,-20.783398,-5.862745,-20.751953,-6.237793L-27.990723,-6.237793zM15.514648,-12.431641C14.878227,-12.37554,14.270542,-12.140759,13.761719,-11.754395C13.077204,-11.23094,12.586862,-10.493795,12.368652,-9.660156C12.001607,-8.232145,12.001607,-6.735136,12.368652,-5.307129C12.617542,-4.347945,13.230482,-3.523217,14.077148,-3.008301C15.329127,-2.286898,16.887907,-2.371285,18.054688,-3.223633C18.735149,-3.742848,19.226654,-4.471098,19.453613,-5.296387C19.691093,-6.18586,19.777575,-7.108749,19.709473,-8.026855C19.682871,-8.731153,19.545443,-9.426865,19.302246,-10.088379C18.881401,-11.243399,17.901207,-12.104703,16.70166,-12.373535C16.311014,-12.451334,15.911025,-12.470915,15.514648,-12.431641zM-86.336914,-12.180176C-86.956604,-12.087551,-87.517006,-11.760785,-87.902832,-11.26709C-88.322128,-10.749117,-88.580658,-10.119696,-88.646484,-9.456543C-88.74572,-8.626201,-88.68808,-7.784641,-88.476563,-6.975586C-88.291306,-6.172154,-87.987694,-5.400711,-87.575684,-4.686523C-87.236298,-4.108632,-86.795113,-3.596979,-86.273438,-3.17627C-85.450752,-2.520178,-84.334396,-2.368119,-83.366211,-2.780273C-82.520439,-3.191112,-81.918854,-3.977954,-81.744141,-4.901855C-81.590233,-5.68901,-81.588249,-6.498226,-81.738281,-7.286133C-81.914406,-8.305486,-82.298882,-9.277552,-82.867676,-10.141602C-83.329651,-10.815377,-83.936333,-11.377191,-84.643555,-11.786133C-85.082138,-12.040254,-85.577293,-12.180742,-86.083984,-12.194824L-86.336914,-12.180176z"/>
</svg>
