<?xml version="1.0" encoding="UTF-8" standalone="no"?>
<svg xmlns="http://www.w3.org/2000/svg" xmlns:xlink="http://www.w3.org/1999/xlink" width="230.515mm" height="96.065mm" viewBox="24.742676 -135.565353 230.514633 96.065353">
    <path transform="matrix(1,0,0,-1,140.001465,-117.332642)" style="stroke:#000000;stroke-width:0.050000mm;fill:none" d="M-62.876465,-5.249023L-62.181152,-5.212891C-60.401863,-5.126593,-58.662346,-4.653467,-57.084473,-3.82666C-55.532692,-3.018665,-54.199814,-1.847263,-53.199219,-0.412109C-53.063118,-0.20554,-52.940464,0.009591,-52.832031,0.231934L-55.041504,0.231934L-55.327148,-0.145508C-56.005352,-0.945425,-56.828545,-1.610077,-57.753418,-2.104492C-58.874397,-2.73444,-60.106716,-3.141676,-61.382324,-3.303711C-63.535427,-3.614709,-65.729965,-3.468461,-67.822754,-2.874512C-68.87571,-2.583681,-69.871628,-2.115688,-70.767578,-1.490723C-72.127899,-0.500409,-73.134094,0.900862,-73.637695,2.506348C-74.606354,5.650256,-74.194252,9.057127,-72.503906,11.879395C-71.452751,13.613283,-69.859726,14.952847,-67.971191,15.690918C-65.565071,16.64159,-62.898293,16.696512,-60.455078,15.845703C-59.228554,15.413694,-58.117435,14.70586,-57.20752,13.776855C-55.093624,11.489312,-54.63105,8.12635,-56.048828,5.353027C-56.706093,3.965195,-57.81855,2.843952,-59.201172,2.175781C-59.483307,2.028879,-59.803005,1.96919,-60.119141,2.004395C-60.534813,2.071105,-60.829773,2.445491,-60.797363,2.865234C-60.697289,3.476443,-60.577103,4.084215,-60.437012,4.6875L-58.679199,12.878418L-60.864258,12.878418L-61.279297,10.986328L-61.45752,11.26123C-62.172276,12.386796,-63.372921,13.113073,-64.70166,13.223633C-65.535568,13.262715,-66.364479,13.075985,-67.101074,12.683105C-68.199707,12.1306,-69.125977,11.28727,-69.778809,10.245117C-70.642075,8.959342,-71.160942,7.473351,-71.285645,5.929688C-71.413811,4.413883,-71.002953,2.901329,-70.125488,1.658691C-69.225349,0.390063,-67.671303,-0.240775,-66.141602,0.041504C-65.524887,0.182646,-64.943047,0.447074,-64.431152,0.818848C-63.951836,1.153513,-63.516331,1.546863,-63.134766,1.989746L-63.092773,1.64502C-63.070946,1.220419,-62.891495,0.818656,-62.589844,0.519043C-62.197598,0.17767,-61.699448,-0.017242,-61.179688,-0.032715C-59.806278,-0.123484,-58.446091,0.284712,-57.349609,1.116699C-55.649155,2.371127,-54.397781,4.139311,-53.780273,6.160156C-52.705452,9.935551,-54.100933,13.980822,-57.274902,16.290527C-58.790016,17.335411,-60.547527,17.974705,-62.379883,18.147461C-64.368248,18.367823,-66.38073,18.160213,-68.282227,17.538574C-70.364586,16.819801,-72.168442,15.464521,-73.438477,13.664551C-75.730064,10.436083,-76.501564,6.369829,-75.551758,2.526367C-75.244781,1.263101,-74.686592,0.074312,-73.910645,-0.96875C-72.700127,-2.551848,-71.046173,-3.739417,-69.15918,-4.380371C-67.137222,-5.058256,-65.006493,-5.35285,-62.876465,-5.249023zM-99.684082,-0.294434L-99.200684,-0.26123C-97.196899,-0.055569,-95.280968,0.667662,-93.641113,1.837402C-93.340286,2.044671,-93.046806,2.262422,-92.76123,2.490234L-92.76123,9.130859L-100.341797,9.118652L-100.341797,7.019043L-95.080566,7.019043L-95.080566,3.686523C-95.854462,3.070541,-96.730713,2.595888,-97.669434,2.28418C-99.766701,1.524194,-102.091385,1.720266,-104.031738,2.820801C-105.164177,3.51445,-106.008316,4.593326,-106.40918,5.859375C-107.056641,7.923559,-107.035622,10.138902,-106.349121,12.19043C-105.99353,13.270446,-105.334511,14.225069,-104.450684,14.94043C-103.483154,15.656395,-102.327621,16.074551,-101.125977,16.143555C-100.023087,16.265903,-98.906891,16.115143,-97.875977,15.70459C-96.76313,15.271238,-95.893471,14.373581,-95.495605,13.247559C-95.369675,12.93911,-95.259674,12.624418,-95.166016,12.304688L-93.029785,12.890625C-93.271729,13.951146,-93.733315,14.94919,-94.384766,15.820313C-95.036613,16.610224,-95.885109,17.214502,-96.844727,17.572266C-98.173225,18.076191,-99.595444,18.284794,-101.012695,18.183594C-102.431389,18.130136,-103.820404,17.760611,-105.078125,17.102051C-106.278526,16.454884,-107.269043,15.478251,-107.933105,14.287109C-109.058167,12.240776,-109.516792,9.894551,-109.245117,7.575195C-109.088295,5.962405,-108.522072,4.416514,-107.600098,3.083984C-106.784119,1.972379,-105.684418,1.100513,-104.416016,0.55957C-102.926407,-0.088603,-101.306305,-0.380996,-99.684082,-0.294434zM9.635742,-0.291992C10.813635,-0.216797,11.942254,0.208837,12.876465,0.930176C13.625096,1.504558,14.217638,2.257786,14.599609,3.120605C15.144684,4.429615,15.174679,5.895872,14.683594,7.226074C14.224888,8.376185,13.258617,9.248839,12.067871,9.588379L11.682129,9.692383L11.978027,9.838867C13.701497,10.690031,14.552376,12.668377,13.984863,14.504883C13.5954,15.859431,12.603802,16.959644,11.296875,17.487305C9.772842,18.132193,8.053712,18.134657,6.527832,17.494141C5.370996,16.968689,4.457757,16.022099,3.974121,14.847168C3.769715,14.359522,3.620039,13.850722,3.527832,13.330078L5.725098,12.939453L5.795898,13.32959C5.913478,13.993611,6.196823,14.617237,6.619629,15.142578C7.207728,15.815622,8.066607,16.189779,8.959961,16.162109C9.936839,16.20565,10.868697,15.746723,11.429688,14.945801C11.804124,14.369613,11.960951,13.678953,11.87207,12.997559C11.813111,12.110687,11.281766,11.323183,10.481445,10.936523C9.689919,10.500377,8.785295,10.31353,7.885742,10.400391L7.641602,8.47168L8.086426,8.578613C8.910354,8.797155,9.781607,8.759335,10.583496,8.470215C11.898877,7.945953,12.743999,6.651991,12.695313,5.236816C12.718513,4.2478,12.338167,3.292401,11.643252,2.588283C10.948339,1.884164,9.998028,1.49128,9.008789,1.501465C7.71624,1.469746,6.532725,2.224699,6.016602,3.410156C5.781084,3.922861,5.609388,4.462546,5.505371,5.01709L3.308105,4.724121C3.390485,3.680348,3.765337,2.680856,4.389648,1.840332C5.234622,0.722757,6.483327,-0.020156,7.868652,-0.229492C8.453167,-0.319942,9.046306,-0.340919,9.635742,-0.291992zM-112.890625,17.895508L-115.258789,17.895508L-115.258789,0L-112.890625,0L-112.890625,17.895508zM-32.800293,17.895508L-34.997559,17.895508L-34.997559,15.368652L-32.800293,15.368652L-32.800293,17.895508zM-13.40332,17.895508L-15.600586,17.895508L-15.600586,0L-13.40332,0L-13.40332,17.895508zM102.258301,-0.158691C102.689331,-0.127914,103.11763,-0.066729,103.540039,0.024414L103.222656,1.965332L102.937988,1.927734C102.511681,1.847786,102.073097,1.86195,101.652832,1.969238C101.273422,2.120879,101.02919,2.493956,101.041992,2.902344C101.020721,3.159096,101.011108,3.416691,101.013184,3.674316L101.013184,11.254883L103.222656,11.254883L103.222656,12.963867L101.013184,12.963867L101.013184,17.492676L98.828125,16.174316L98.828125,12.963867L97.216797,12.963867L97.216797,11.254883L98.828125,11.254883L98.828125,3.796387C98.808914,3.059714,98.859428,2.322858,98.979004,1.595703C99.070282,1.12282,99.334106,0.700798,99.719238,0.411621C100.18483,0.072329,100.739891,-0.122087,101.31543,-0.147461C101.629021,-0.174379,101.94416,-0.178133,102.258301,-0.158691zM-46.447754,-0.158691L-46.044922,-0.12207C-45.749893,-0.086477,-45.456638,-0.037601,-45.166016,0.024414L-45.483398,1.965332L-45.768066,1.927734C-46.194374,1.847784,-46.632961,1.861948,-47.053223,1.969238C-47.432911,2.120503,-47.677311,2.493849,-47.664063,2.902344C-47.685337,3.159105,-47.69495,3.416685,-47.692871,3.674316L-47.692871,11.254883L-45.483398,11.254883L-45.483398,12.963867L-47.692871,12.963867L-47.692871,17.492676L-49.87793,16.174316L-49.87793,12.963867L-51.489258,12.963867L-51.489258,11.254883L-49.87793,11.254883L-49.87793,3.796387C-49.897209,3.059705,-49.846695,2.322853,-49.727051,1.595703C-49.635773,1.122821,-49.371944,0.700799,-48.986816,0.411621C-48.521225,0.072329,-47.966164,-0.122087,-47.390625,-0.147461C-47.077034,-0.174378,-46.76189,-0.178132,-46.447754,-0.158691zM-27.258301,1.342773C-26.659069,0.589811,-25.828251,0.055554,-24.894531,-0.177246C-23.547441,-0.461699,-22.142458,-0.197957,-20.990234,0.555664C-19.945616,1.226923,-19.156055,2.228788,-18.747559,3.401367C-17.924015,5.670769,-18.021435,8.171191,-19.019043,10.369629C-19.870167,12.170612,-21.702393,13.302214,-23.693848,13.256836C-24.620405,13.294107,-25.533268,13.022344,-26.288574,12.484375C-26.738567,12.147226,-27.131859,11.740418,-27.453613,11.279297L-27.453613,12.963867L-29.455566,12.963867L-29.455566,-4.968262L-27.258301,-4.968262L-27.258301,1.342773zM110.410645,-0.284668C111.54332,-0.262,112.646805,0.07859,113.595215,0.698242C115.087952,1.705101,115.661018,3.627192,114.963379,5.287109C114.567696,6.074933,113.873428,6.671809,113.035156,6.944824C111.9244,7.339779,110.795135,7.680676,109.651367,7.966309L109.005859,8.146484C108.598846,8.235428,108.202927,8.369585,107.825684,8.546387C107.402611,8.73579,107.095413,9.115932,106.999023,9.569336C106.928459,10.112042,107.17305,10.647617,107.629395,10.949707C107.971436,11.183958,108.36512,11.331531,108.776855,11.379883C109.490784,11.502406,110.22229,11.478644,110.926758,11.310059C111.850243,11.067411,112.526367,10.276194,112.62207,9.326172L114.770508,9.619141C114.67794,10.338334,114.418777,11.02603,114.013672,11.627441C113.573257,12.180475,112.981743,12.593868,112.311035,12.817383C110.696846,13.392501,108.936844,13.406089,107.313965,12.855957C106.012527,12.433146,105.067993,11.302649,104.883301,9.946777C104.673653,8.420323,105.56263,6.95458,107.013184,6.435059C108.16246,6.006315,109.339058,5.654787,110.535156,5.382813L110.920898,5.277344C111.41835,5.160625,111.899529,4.983009,112.353516,4.748535C112.883194,4.417757,113.128899,3.774462,112.95459,3.174805C112.763512,2.510548,112.261864,1.981048,111.608887,1.754395C110.565422,1.416958,109.441475,1.427922,108.404785,1.785645C107.613846,2.102705,107.018295,2.773694,106.797363,3.59668C106.737938,3.797996,106.69371,4.003489,106.665039,4.211426L104.492188,3.869629C104.611351,3.091155,104.895035,2.34684,105.324219,1.686523C105.909409,0.824799,106.795235,0.212368,107.808105,-0.030762C108.658821,-0.240792,109.535378,-0.32631,110.410645,-0.284668zM86.71875,1.342773L87.019043,1.003906C87.641861,0.360911,88.451324,-0.069954,89.33252,-0.227539C91.596138,-0.560195,93.820618,0.579096,94.873535,2.610352C95.491425,3.84086,95.801224,5.202888,95.776367,6.57959C95.803001,8.025514,95.455338,9.45369,94.76709,10.725586C93.851463,12.329205,92.129272,13.301411,90.283203,13.256836C89.356644,13.294121,88.443779,13.022347,87.688477,12.484375C87.238487,12.147228,86.8452,11.740414,86.523438,11.279297L86.523438,12.963867L84.521484,12.963867L84.521484,-4.968262L86.71875,-4.968262L86.71875,1.342773zM23.555176,-0.273438C25.721064,-0.145322,27.573721,1.329573,28.184082,3.411621C28.292156,3.757092,28.374414,4.110117,28.430176,4.467773L26.269531,4.748535L26.20166,4.350098C26.091194,3.67836,25.807055,3.047125,25.377441,2.519043C24.774551,1.852247,23.908724,1.484521,23.010254,1.513672C21.553005,1.47889,20.244179,2.402148,19.788086,3.786621C19.50668,4.660841,19.374477,5.576022,19.396973,6.494141C19.384235,7.245512,19.471424,7.995239,19.65625,8.723633C19.820694,9.417911,20.184885,10.049175,20.703613,10.539063C21.434654,11.208176,22.415461,11.535643,23.401855,11.439941C24.461773,11.366517,25.388414,10.697379,25.791504,9.714355C25.918171,9.428304,26.016933,9.130709,26.086426,8.825684L28.222656,9.155273C28.072149,10.052574,27.689518,10.894936,27.112793,11.598633C26.43969,12.373681,25.528812,12.903895,24.522461,13.106445C23.107271,13.420365,21.628139,13.261353,20.312012,12.653809C19.062023,12.078722,18.105812,11.011114,17.671387,9.705566C16.999176,7.719385,16.954353,5.575532,17.542969,3.562988C18.195667,1.398679,20.129234,-0.129965,22.385742,-0.265625C22.774727,-0.299235,23.165779,-0.301847,23.555176,-0.273438zM35.991211,-0.280762C37.619156,-0.207149,39.147533,0.522779,40.228027,1.742676C40.867748,2.51335,41.28989,3.441089,41.450684,4.429688C41.700565,5.762458,41.708008,7.12943,41.472656,8.464844C41.161232,10.315458,39.965347,11.897883,38.27002,12.702637C37.237534,13.158739,36.105057,13.341852,34.981445,13.234375C33.468246,13.146362,32.048729,12.471729,31.024902,11.354004C30.257359,10.449617,29.768364,9.342038,29.617188,8.165527C29.367847,6.635167,29.468504,5.06839,29.911621,3.58252C30.618149,1.388636,32.605682,-0.142375,34.907227,-0.265625C35.267765,-0.296012,35.629974,-0.301069,35.991211,-0.280762zM46.411133,7.080078L46.427246,7.677734C46.445663,8.325119,46.57481,8.964568,46.809082,9.568359C47.039589,10.113172,47.446182,10.564799,47.963867,10.851074C48.896999,11.402519,50.028076,11.50469,51.044922,11.129395C51.615627,10.91016,52.068981,10.462126,52.294922,9.894043C52.494812,9.244251,52.581528,8.56491,52.55127,7.885742L52.55127,0L54.748535,0C54.762695,2.775519,54.762085,5.562981,54.746582,8.338379C54.756733,8.930379,54.716545,9.52223,54.626465,10.107422C54.507568,10.762297,54.228016,11.377612,53.812988,11.897949C53.444221,12.309706,52.985397,12.630683,52.472168,12.835938C51.196781,13.356139,49.777069,13.398952,48.472656,12.956543C47.532219,12.610063,46.730953,11.965209,46.191406,11.120605L46.191406,12.963867L44.213867,12.963867L44.213867,0L46.411133,0L46.411133,7.080078zM63.862793,-0.273438C66.028679,-0.145324,67.881332,1.329571,68.491699,3.411621C68.599777,3.757091,68.682037,4.110119,68.737793,4.467773L66.577148,4.748535L66.509277,4.350098C66.398811,3.678358,66.11467,3.047123,65.685059,2.519043C65.082169,1.852246,64.216339,1.484519,63.317871,1.513672C61.860622,1.478889,60.551796,2.402147,60.095703,3.786621C59.814293,4.660843,59.682095,5.576021,59.70459,6.494141C59.691849,7.245505,59.779041,7.995239,59.963867,8.723633C60.128311,9.417913,60.492504,10.049176,61.01123,10.539063C61.742275,11.208173,62.723076,11.535643,63.709473,11.439941C64.769394,11.366515,65.696045,10.697385,66.099121,9.714355C66.225784,9.428306,66.324547,9.130705,66.394043,8.825684L68.530273,9.155273C68.379761,10.052574,67.997131,10.894936,67.42041,11.598633C66.747299,12.373676,65.836426,12.903896,64.830078,13.106445C63.414886,13.420366,61.935757,13.261354,60.619629,12.653809C59.369644,12.078726,58.413425,11.011116,57.979004,9.705566C57.306793,7.719383,57.261971,5.575533,57.850586,3.562988C58.503288,1.398682,60.436852,-0.129961,62.693359,-0.265625C63.082352,-0.299235,63.473392,-0.301847,63.862793,-0.273438zM-4.001465,-0.275879L-3.474609,-0.224121C-2.36801,-0.105819,-1.3257,0.355154,-0.493652,1.094238C0.313297,1.84869,0.883429,2.821359,1.147461,3.894043L-1.123047,4.174805L-1.253906,3.838867C-1.500689,3.174694,-1.924004,2.590124,-2.478027,2.148438C-3.193249,1.644608,-4.070132,1.424648,-4.938477,1.53125C-6.242026,1.646667,-7.383876,2.451944,-7.930176,3.641113C-8.251257,4.359911,-8.430939,5.133676,-8.459473,5.92041L1.208496,5.92041C1.29752,7.189333,1.124144,8.463142,0.699219,9.662109C-0.134523,11.889494,-2.298326,13.336746,-4.675293,13.256836C-6.009893,13.296198,-7.317723,12.874913,-8.378418,12.063965C-9.464634,11.198725,-10.213036,9.979784,-10.493164,8.619629C-10.870332,6.946632,-10.808442,5.204999,-10.313477,3.562988C-9.633202,1.467523,-7.771951,-0.024049,-5.578613,-0.231445C-5.055384,-0.294774,-4.527428,-0.309648,-4.001465,-0.275879zM76.61377,-0.275879C77.595528,-0.236468,78.552071,0.046803,79.396973,0.54834C80.447861,1.213914,81.23246,2.226759,81.614258,3.410645L81.762695,3.894043L79.492188,4.174805L79.361328,3.838867C79.114548,3.174693,78.691231,2.590125,78.137207,2.148438C77.421989,1.644609,76.545105,1.424649,75.676758,1.53125C74.373207,1.646668,73.231361,2.451947,72.685059,3.641113C72.363976,4.359911,72.184296,5.133674,72.155762,5.92041L81.82373,5.92041C81.91275,7.189331,81.739372,8.463141,81.314453,9.662109C80.480713,11.889498,78.31691,13.336752,75.939941,13.256836C74.605347,13.296178,73.297516,12.874897,72.236816,12.063965C71.150627,11.198706,70.402237,9.979771,70.12207,8.619629C69.744904,6.946633,69.806793,5.205,70.301758,3.562988C70.982048,1.467534,72.843292,-0.024034,75.036621,-0.231445C75.559845,-0.294775,76.087807,-0.309649,76.61377,-0.275879zM-41.162109,6.787109C-41.170979,7.655237,-41.047489,8.519659,-40.795898,9.350586C-40.597317,10.062035,-40.06422,10.632122,-39.367676,10.87793C-38.881817,11.02659,-38.362083,11.02284,-37.878418,10.867188C-37.596069,10.782167,-37.325424,10.662266,-37.072754,10.510254L-36.315918,12.548828C-36.987373,12.991926,-37.769978,13.237284,-38.574219,13.256836C-39.408596,13.251418,-40.186886,12.834585,-40.653809,12.143066C-40.924946,11.780425,-41.168316,11.397822,-41.381836,10.998535L-41.381836,12.963867L-43.359375,12.963867L-43.359375,0L-41.162109,0L-41.162109,6.787109zM-86.437988,12.963867L-88.94043,12.963867L-88.94043,10.461426L-86.437988,10.461426L-86.437988,12.963867zM-32.800293,12.963867L-34.997559,12.963867L-34.997559,0L-32.800293,0L-32.800293,12.963867zM89.624512,1.532227L89.284668,1.588379C88.320007,1.833735,87.513397,2.493075,87.081055,3.389648C86.738335,4.149779,86.549988,4.970211,86.526855,5.803711C86.457558,6.747952,86.543503,7.697321,86.78125,8.61377C87.059303,9.71009,87.770973,10.646285,88.75293,11.20752C89.924416,11.81192,91.3554,11.559975,92.25,10.591797C92.749039,10.083053,93.10302,9.450272,93.275391,8.758789C93.622231,7.303156,93.620224,5.786747,93.269531,4.332031C93.045105,3.375374,92.463745,2.540194,91.644531,1.997559C91.04541,1.613232,90.331398,1.448753,89.624512,1.532227zM-24.352539,1.532227C-25.18037,1.632925,-25.935005,2.056123,-26.452637,2.709961C-26.908726,3.293556,-27.208311,3.983626,-27.323242,4.715332C-27.557856,6.009159,-27.514416,7.338021,-27.195801,8.61377C-26.918056,9.710225,-26.206295,10.646548,-25.224121,11.20752C-24.052637,11.81193,-22.621653,11.559977,-21.727051,10.591797C-21.228062,10.083021,-20.874084,9.450246,-20.70166,8.758789C-20.35482,7.30316,-20.356827,5.786746,-20.70752,4.332031C-20.932274,3.375509,-21.513544,2.540455,-22.33252,1.997559C-22.931644,1.613231,-23.645649,1.448753,-24.352539,1.532227zM72.277832,7.727051L72.319824,8.140625C72.435677,9.252115,73.038246,10.255678,73.964844,10.880371C75.247787,11.697144,76.899216,11.639929,78.122559,10.736328C78.732559,10.262602,79.159691,9.591964,79.331055,8.838867C79.423111,8.473932,79.485161,8.1021,79.516602,7.727051L72.277832,7.727051zM-8.337402,7.727051C-8.307835,8.495522,-8.071863,9.241893,-7.654297,9.887695C-6.89948,11.004317,-5.57961,11.601065,-4.242676,11.430176C-2.800729,11.294755,-1.608393,10.250402,-1.28418,8.838867C-1.192132,8.473933,-1.130077,8.102097,-1.098633,7.727051L-8.337402,7.727051zM35.167969,1.533203L34.782227,1.591309C33.585686,1.857631,32.605061,2.710076,32.174805,3.85791C31.873245,4.699116,31.72942,5.588554,31.750488,6.481934C31.73823,7.216347,31.829626,7.948831,32.021973,8.657715C32.270859,9.616899,32.883804,10.441627,33.730469,10.956543C34.982449,11.677943,36.541225,11.593557,37.708008,10.741211C38.388504,10.222026,38.880016,9.493768,39.106934,8.668457C39.344414,7.778983,39.430893,6.856095,39.362793,5.937988C39.336189,5.233688,39.198761,4.537979,38.955566,3.876465C38.534683,2.721476,37.554504,1.860183,36.35498,1.591309C35.964336,1.513506,35.564346,1.493927,35.167969,1.533203zM-66.683594,1.784668C-67.303284,1.877289,-67.863686,2.204058,-68.249512,2.697754C-68.6688,3.215729,-68.927322,3.845149,-68.993164,4.508301C-69.0924,5.338642,-69.03476,6.1802,-68.823242,6.989258C-68.637985,7.792688,-68.334381,8.564132,-67.922363,9.27832C-67.582977,9.856213,-67.141792,10.367866,-66.620117,10.788574C-65.797447,11.444696,-64.681076,11.596757,-63.712891,11.18457C-62.867123,10.773726,-62.265537,9.986887,-62.09082,9.062988C-61.93692,8.275834,-61.934929,7.466617,-62.084961,6.678711C-62.261105,5.659362,-62.645576,4.687299,-63.214355,3.823242C-63.676163,3.149452,-64.28289,2.587767,-64.990234,2.179199C-65.428658,1.92463,-65.923882,1.783951,-66.430664,1.77002L-66.683594,1.784668zM-86.437988,2.502441L-88.94043,2.502441L-88.94043,0L-86.437988,0L-86.437988,2.502441zM-49.013184,-28.22168C-48.223186,-28.165573,-47.451344,-27.958023,-46.739746,-27.610352C-45.545692,-27.016144,-44.594864,-26.026134,-44.049316,-24.809082C-43.504143,-23.500086,-43.474148,-22.033806,-43.965332,-20.703613C-44.423771,-19.553328,-45.39016,-18.680561,-46.581055,-18.341309L-46.966797,-18.237305L-46.670898,-18.09082C-44.947281,-17.239767,-44.096363,-15.261339,-44.664063,-13.424805C-45.053299,-12.070308,-46.044758,-10.970047,-47.351563,-10.442383C-48.875603,-9.797522,-50.594723,-9.795057,-52.120605,-10.435547C-53.277733,-10.960594,-54.191093,-11.907314,-54.674316,-13.08252C-54.878593,-13.57025,-55.028423,-14.079008,-55.121094,-14.599609L-52.923828,-14.990234L-52.853027,-14.600098C-52.734844,-13.93617,-52.451382,-13.312655,-52.028809,-12.787109C-51.440727,-12.1143,-50.582142,-11.740191,-49.688965,-11.767578C-48.712067,-11.723969,-47.780186,-12.182907,-47.219238,-12.983887C-46.844517,-13.559953,-46.687496,-14.250679,-46.776367,-14.932129C-46.835785,-15.818849,-47.366985,-16.606133,-48.166992,-16.993164C-48.958683,-17.429348,-49.863468,-17.616196,-50.763184,-17.529297L-51.007324,-19.458008L-50.5625,-19.351074C-49.738579,-19.132479,-48.86731,-19.1703,-48.06543,-19.459473C-46.749981,-19.983665,-45.904839,-21.277666,-45.953613,-22.692871C-45.930157,-23.681953,-46.310532,-24.637419,-47.005493,-25.341591C-47.700455,-26.045761,-48.650833,-26.438679,-49.640137,-26.428223C-50.932674,-26.459917,-52.116188,-25.704971,-52.632324,-24.519531C-52.867306,-24.006617,-53.038979,-23.467003,-53.143555,-22.912598L-55.34082,-23.205566C-55.257824,-24.249203,-54.883034,-25.248529,-54.259277,-26.089355C-53.414246,-27.20686,-52.165565,-27.949762,-50.780273,-28.15918C-50.195759,-28.249617,-49.602627,-28.270594,-49.013184,-28.22168zM-91.449219,-10.03418L-93.646484,-10.03418L-93.646484,-12.561035L-91.449219,-12.561035L-91.449219,-10.03418zM-72.052246,-10.03418L-74.249512,-10.03418L-74.249512,-27.929688L-72.052246,-27.929688L-72.052246,-10.03418zM-105.09668,-28.088379C-104.665649,-28.057598,-104.23735,-27.996418,-103.814941,-27.905273L-104.132324,-25.964355L-104.416504,-26.001953C-104.842812,-26.081902,-105.281403,-26.06776,-105.70166,-25.960449C-106.081474,-25.809292,-106.325897,-25.435909,-106.3125,-25.027344C-106.334229,-24.770618,-106.344009,-24.513004,-106.341797,-24.255371L-106.341797,-16.674805L-104.132324,-16.674805L-104.132324,-14.96582L-106.341797,-14.96582L-106.341797,-10.437012L-108.526855,-11.755371L-108.526855,-14.96582L-110.138184,-14.96582L-110.138184,-16.674805L-108.526855,-16.674805L-108.526855,-24.133301C-108.545792,-24.869987,-108.495117,-25.606827,-108.375488,-26.333984C-108.284683,-26.806929,-108.020958,-27.229046,-107.635742,-27.518066C-107.17009,-27.857246,-106.615067,-28.051649,-106.039551,-28.077148C-105.72596,-28.104065,-105.41082,-28.107809,-105.09668,-28.088379zM43.609375,-28.088379C44.040562,-28.057529,44.469013,-27.996346,44.891602,-27.905273L44.574219,-25.964355L44.289551,-26.001953C43.863243,-26.081913,43.424656,-26.067749,43.004395,-25.960449C42.624535,-25.809372,42.380062,-25.435921,42.393555,-25.027344C42.37167,-24.770626,42.362061,-24.513008,42.364746,-24.255371L42.364746,-16.674805L44.574219,-16.674805L44.574219,-14.96582L42.364746,-14.96582L42.364746,-10.437012L40.179688,-11.755371L40.179688,-14.96582L38.568359,-14.96582L38.568359,-16.674805L40.179688,-16.674805L40.179688,-24.133301C40.160263,-24.869978,40.210785,-25.606853,40.330566,-26.333984C40.421803,-26.806883,40.685646,-27.228909,41.070801,-27.518066C41.536243,-27.857294,42.091122,-28.051718,42.666504,-28.077148C42.980091,-28.104069,43.295242,-28.107822,43.609375,-28.088379zM94.769531,-21.203613L94.774902,-20.773926C94.76593,-19.999962,94.88372,-19.229582,95.123535,-18.493652C95.569603,-17.311108,96.716606,-16.541527,97.97998,-16.577148C98.49456,-16.54904,99.003792,-16.694136,99.42627,-16.989258C99.797554,-17.308348,100.049438,-17.744104,100.140625,-18.225098C100.235771,-18.64555,100.280846,-19.07579,100.274902,-19.506836L100.274902,-27.929688L102.472168,-27.929688L102.472168,-20.397949C102.44696,-19.689323,102.566948,-18.982834,102.824707,-18.322266C103.265648,-17.326506,104.224136,-16.659218,105.311035,-16.591309C105.88459,-16.51454,106.467583,-16.634378,106.964355,-16.931152C107.477783,-17.255537,107.812004,-17.799232,107.869629,-18.403809C107.930138,-18.854336,107.958038,-19.308638,107.953125,-19.763184L107.953125,-27.929688L110.138184,-27.929688L110.138184,-19.030762C110.164803,-18.235605,110.026634,-17.443304,109.732422,-16.704102C109.322174,-15.745847,108.473595,-15.045025,107.455078,-14.823242C106.541901,-14.595023,105.583832,-14.61966,104.683594,-14.894531C103.731461,-15.224386,102.906815,-15.844922,102.326172,-16.668457L102.130371,-16.943359L102.026855,-16.682129C101.565598,-15.643332,100.601067,-14.915455,99.475586,-14.756836C98.443893,-14.556942,97.375534,-14.682697,96.418457,-15.116699C95.650154,-15.489279,94.999344,-16.066406,94.537598,-16.784668L94.537598,-14.96582L92.572266,-14.96582L92.572266,-27.929688L94.769531,-27.929688L94.769531,-21.203613zM-35.093262,-28.203125C-34.127026,-28.142624,-33.196629,-27.814453,-32.40625,-27.255371C-31.475456,-26.581379,-30.792927,-25.619282,-30.464355,-24.518066C-30.356144,-24.172665,-30.274044,-23.819622,-30.21875,-23.461914L-32.379395,-23.181152L-32.447266,-23.57959C-32.557129,-24.251415,-32.841156,-24.882767,-33.270996,-25.410645C-33.874073,-26.077456,-34.740067,-26.445183,-35.638672,-26.416016C-37.095829,-26.45046,-38.404469,-25.52734,-38.86084,-24.143066C-39.141544,-23.268688,-39.273731,-22.353624,-39.251953,-21.435547C-39.264797,-20.684145,-39.177437,-19.934378,-38.992188,-19.206055C-38.828144,-18.511625,-38.463879,-17.880243,-37.944824,-17.390625C-37.213799,-16.721476,-36.232986,-16.394011,-35.246582,-16.489746C-34.186749,-16.563068,-33.260189,-17.232273,-32.857422,-18.215332C-32.730644,-18.501341,-32.631878,-18.798946,-32.5625,-19.104004L-30.42627,-18.774414C-30.576197,-17.876936,-30.958893,-17.034433,-31.536133,-16.331055C-32.209167,-15.556168,-33.119835,-15.025974,-34.125977,-14.823242C-35.541325,-14.509307,-37.020618,-14.668318,-38.336914,-15.275879C-39.586834,-15.850895,-40.542931,-16.918564,-40.977051,-18.224121C-41.49511,-19.768963,-41.642937,-21.413416,-41.408691,-23.025879C-41.28091,-24.206316,-40.823277,-25.327202,-40.088379,-26.259766C-39.134308,-27.404079,-37.750271,-28.104397,-36.263184,-28.195313C-35.874031,-28.22892,-35.482826,-28.231535,-35.093262,-28.203125zM-99.811035,-21.142578C-99.819336,-20.274481,-99.695862,-19.410149,-99.444824,-18.579102C-99.246101,-17.867739,-98.713058,-17.297668,-98.016602,-17.051758C-97.530739,-16.903109,-97.011002,-16.906839,-96.527344,-17.0625C-96.244995,-17.147526,-95.974358,-17.267435,-95.72168,-17.419434L-94.964844,-15.380859C-95.636475,-14.938101,-96.418953,-14.692781,-97.223145,-14.672852C-98.057449,-14.678585,-98.835602,-15.095333,-99.302734,-15.786621C-99.573456,-16.149553,-99.816803,-16.532124,-100.030762,-16.931152L-100.030762,-14.96582L-102.008301,-14.96582L-102.008301,-27.929688L-99.811035,-27.929688L-99.811035,-21.142578zM-22.657227,-28.210449C-21.029346,-28.13657,-19.501072,-27.406693,-18.42041,-26.187012C-17.780895,-25.416254,-17.358932,-24.488543,-17.198242,-23.5C-16.947908,-22.167274,-16.940464,-20.800211,-17.17627,-19.464844C-17.487301,-17.614069,-18.683319,-16.031475,-20.378906,-15.227051C-21.411203,-14.770897,-22.543537,-14.58778,-23.666992,-14.695313C-25.18022,-14.783241,-26.59976,-15.457886,-27.623535,-16.575684C-28.391289,-17.47995,-28.880302,-18.587574,-29.03125,-19.76416C-29.281174,-21.294491,-29.180506,-22.861401,-28.736816,-24.347168C-28.030649,-26.541096,-26.043182,-28.072206,-23.741699,-28.195313C-23.38101,-28.225698,-23.018623,-28.230753,-22.657227,-28.210449zM-12.237793,-20.849609C-12.253343,-20.144226,-12.167504,-19.440254,-11.98291,-18.759277C-11.854761,-18.265495,-11.589689,-17.817951,-11.218262,-17.468262C-10.227566,-16.598289,-8.840203,-16.341885,-7.604004,-16.800293C-7.033289,-17.019785,-6.579983,-17.467955,-6.354004,-18.036133C-6.153884,-18.685709,-6.067165,-19.364922,-6.097656,-20.043945L-6.097656,-27.929688L-3.900391,-27.929688C-3.889648,-25.139629,-3.890137,-22.380419,-3.901855,-19.591309C-3.891557,-18.999283,-3.931909,-18.40741,-4.022461,-17.822266C-4.141526,-17.167532,-4.420873,-16.552296,-4.835449,-16.031738C-5.204329,-15.620008,-5.663344,-15.299182,-6.176758,-15.094238C-7.45202,-14.573557,-8.871843,-14.530569,-10.17627,-14.973145C-11.116507,-15.319975,-11.917669,-15.964746,-12.45752,-16.809082L-12.45752,-14.96582L-14.435059,-14.96582L-14.435059,-27.929688L-12.237793,-27.929688L-12.237793,-20.849609zM5.214355,-28.203125C7.380212,-28.074966,9.232862,-26.600075,9.843262,-24.518066C9.951336,-24.172592,10.033593,-23.819571,10.089355,-23.461914L7.928711,-23.181152L7.860352,-23.57959C7.750092,-24.251305,7.466118,-24.882545,7.036621,-25.410645C6.433688,-26.07737,5.567883,-26.445086,4.669434,-26.416016C3.212117,-26.450642,1.90324,-25.527487,1.446777,-24.143066C1.16587,-23.268747,1.033839,-22.353619,1.056152,-21.435547C1.042816,-20.684153,1.130014,-19.934338,1.31543,-19.206055C1.479533,-18.511652,1.843786,-17.880278,2.362793,-17.390625C3.093818,-16.721478,4.074632,-16.394007,5.061035,-16.489746C6.120868,-16.56307,7.04742,-17.232277,7.450195,-18.215332C7.576748,-18.501478,7.675663,-18.79904,7.745605,-19.104004L9.881836,-18.774414C9.731419,-17.876995,9.348591,-17.034569,8.771484,-16.331055C8.098474,-15.556135,7.187799,-15.02594,6.181641,-14.823242C4.766292,-14.509307,3.286998,-14.668318,1.970703,-15.275879C0.720785,-15.850895,-0.235308,-16.918564,-0.669434,-18.224121C-1.187493,-19.768959,-1.335317,-21.413414,-1.101074,-23.025879C-0.973291,-24.206316,-0.515661,-25.327202,0.219238,-26.259766C1.173309,-27.404079,2.557345,-28.104401,4.044434,-28.195313C4.433586,-28.228918,4.824791,-28.231531,5.214355,-28.203125zM-85.907227,-26.586914C-85.307785,-27.339651,-84.477058,-27.873844,-83.543457,-28.106934C-82.196266,-28.391157,-80.791275,-28.12763,-79.638672,-27.374512C-78.594254,-26.702827,-77.804741,-25.70088,-77.395996,-24.52832C-76.572449,-22.2589,-76.670052,-19.75839,-77.667969,-17.560059C-78.518906,-15.758914,-80.351257,-14.627228,-82.342773,-14.672852C-83.269318,-14.635651,-84.182167,-14.907413,-84.9375,-15.445313C-85.387207,-15.782779,-85.780449,-16.189543,-86.102539,-16.650391L-86.102539,-14.96582L-88.104492,-14.96582L-88.104492,-32.897949L-85.907227,-32.897949L-85.907227,-26.586914zM17.965332,-28.205566C18.947063,-28.165985,19.903563,-27.882725,20.748535,-27.381348C21.799238,-26.715672,22.583645,-25.702856,22.965332,-24.519043L23.114258,-24.035645L20.84375,-23.754883L20.712891,-24.09082C20.465744,-24.754805,20.0425,-25.339275,19.48877,-25.78125C18.773378,-26.285103,17.896328,-26.505064,17.027832,-26.398438C15.724391,-26.282711,14.582686,-25.477537,14.036133,-24.288574C13.715422,-23.569672,13.535916,-22.795956,13.507324,-22.009277L23.175293,-22.009277C23.264221,-20.740358,23.090845,-19.46656,22.666016,-18.267578C21.832136,-16.040325,19.668404,-14.593119,17.291504,-14.672852C15.956758,-14.633476,14.64876,-15.054758,13.587891,-15.865723C12.501835,-16.73102,11.753607,-17.949959,11.473633,-19.310059C11.096308,-20.983047,11.158197,-22.72471,11.65332,-24.366699C12.333469,-26.462269,14.194772,-27.953884,16.388184,-28.161133C16.911413,-28.224461,17.439375,-28.239334,17.965332,-28.205566zM28.070313,-26.586914C28.669443,-27.339764,29.500061,-27.874001,30.433594,-28.106934C31.780779,-28.391174,33.185776,-28.12764,34.338379,-27.374512C35.382801,-26.702827,36.172298,-25.700876,36.581055,-24.52832C37.404652,-22.258904,37.307056,-19.758379,36.309082,-17.560059C35.458263,-15.759038,33.626122,-14.627374,31.634766,-14.672852C30.708061,-14.635576,29.795031,-14.90734,29.039551,-15.445313C28.589825,-15.7826,28.196712,-16.189392,27.875,-16.650391L27.875,-14.96582L25.873047,-14.96582L25.873047,-32.897949L28.070313,-32.897949L28.070313,-26.586914zM84.349609,-28.210449C85.977493,-28.136583,87.50576,-27.406691,88.586426,-26.187012C89.225945,-25.416256,89.647888,-24.488541,89.808594,-23.5C90.058975,-22.167282,90.066422,-20.800205,89.830566,-19.464844C89.519554,-17.614059,88.323532,-16.031462,86.62793,-15.227051C85.595634,-14.770901,84.463303,-14.587786,83.339844,-14.695313C81.82663,-14.783287,80.407104,-15.457926,79.383301,-16.575684C78.615593,-17.479973,78.126579,-18.587585,77.975586,-19.76416C77.725708,-21.294493,77.82637,-22.861399,78.27002,-24.347168C78.976181,-26.541094,80.963654,-28.072197,83.265137,-28.195313C83.625832,-28.225706,83.988213,-28.230764,84.349609,-28.210449zM-62.649902,-28.205566C-61.980457,-28.170494,-61.320538,-28.031456,-60.693848,-27.793457C-59.395897,-27.280951,-58.361427,-26.263742,-57.827148,-24.974609C-57.695847,-24.669983,-57.586994,-24.356152,-57.501465,-24.035645L-59.771973,-23.754883L-59.902344,-24.09082C-60.14938,-24.754992,-60.572842,-25.339529,-61.126953,-25.78125C-61.842113,-26.285208,-62.719051,-26.505188,-63.587402,-26.398438C-64.890854,-26.282742,-66.03257,-25.477558,-66.579102,-24.288574C-66.899612,-23.569582,-67.079269,-22.795935,-67.108398,-22.009277L-57.44043,-22.009277C-57.351017,-20.740383,-57.524235,-19.46652,-57.949219,-18.267578C-58.783176,-16.040171,-60.947151,-14.592934,-63.324219,-14.672852C-64.658806,-14.633579,-65.966614,-15.054859,-67.027344,-15.865723C-68.113419,-16.731003,-68.861649,-17.949947,-69.141602,-19.310059C-69.518959,-20.983049,-69.457069,-22.724716,-68.961914,-24.366699C-68.281952,-26.462381,-66.420532,-27.954103,-64.227051,-28.161133C-63.703827,-28.224459,-63.175865,-28.23933,-62.649902,-28.205566zM51.762207,-28.214355C52.894741,-28.191721,53.998062,-27.85113,54.946289,-27.231445C56.439278,-26.2248,57.012581,-24.302591,56.314941,-22.642578C55.918869,-21.854874,55.224506,-21.258076,54.38623,-20.984863C53.275654,-20.589813,52.146564,-20.248917,51.00293,-19.963379L50.357422,-19.783203C49.950245,-19.6943,49.55415,-19.560141,49.176758,-19.383301C48.753876,-19.193758,48.446888,-18.813654,48.350586,-18.360352C48.280071,-17.817629,48.524632,-17.28212,48.980957,-16.97998C49.322842,-16.745775,49.716354,-16.598198,50.12793,-16.549805C50.842022,-16.427046,51.573769,-16.45097,52.27832,-16.620117C53.20179,-16.862461,53.878002,-17.653578,53.973633,-18.603516L56.12207,-18.310547C56.029453,-17.591524,55.77029,-16.903986,55.365234,-16.302734C54.924828,-15.749358,54.333115,-15.335767,53.662109,-15.112305C52.047916,-14.537195,50.287914,-14.523605,48.665039,-15.07373C47.363712,-15.496675,46.419216,-16.627121,46.234375,-17.98291C46.024582,-19.509508,46.913895,-20.97546,48.364746,-21.494629C49.513836,-21.923464,50.690258,-22.274988,51.88623,-22.546875L52.271973,-22.652344C52.769524,-22.769239,53.250851,-22.946842,53.705078,-23.181152C54.23436,-23.512259,54.479931,-24.155239,54.306152,-24.754883C54.114861,-25.419033,53.613304,-25.948427,52.960449,-26.175293C51.916988,-26.512751,50.79303,-26.501797,49.756348,-26.144043C48.965168,-25.827335,48.369476,-25.156189,48.148926,-24.333008C48.088894,-24.131845,48.044655,-23.92631,48.016602,-23.718262L45.84375,-24.060059C45.979137,-24.982243,46.354282,-25.852758,46.931641,-26.584473C47.5089,-27.26829,48.289299,-27.750355,49.15918,-27.960449C50.010063,-28.170483,50.88678,-28.256001,51.762207,-28.214355zM71.913574,-28.203125C74.07943,-28.074965,75.932068,-26.600067,76.54248,-24.518066C76.650558,-24.172596,76.732819,-23.819576,76.788574,-23.461914L74.62793,-23.181152L74.55957,-23.57959C74.44931,-24.251301,74.165337,-24.882542,73.73584,-25.410645C73.132896,-26.07736,72.267097,-26.445074,71.368652,-26.416016C69.911331,-26.450657,68.602463,-25.527483,68.145996,-24.143066C67.865082,-23.268742,67.733055,-22.353617,67.755371,-21.435547C67.742035,-20.684149,67.829231,-19.93434,68.014648,-19.206055C68.178741,-18.511648,68.542999,-17.880272,69.062012,-17.390625C69.793037,-16.721476,70.773849,-16.394005,71.760254,-16.489746C72.820091,-16.563061,73.746651,-17.232269,74.149414,-18.215332C74.275978,-18.501471,74.374893,-18.799038,74.444824,-19.104004L76.581055,-18.774414C76.430634,-17.876995,76.047813,-17.034569,75.470703,-16.331055C74.797684,-15.556145,73.887016,-15.025948,72.880859,-14.823242C71.465515,-14.509312,69.986221,-14.668321,68.669922,-15.275879C67.420029,-15.850931,66.463943,-16.918589,66.029785,-18.224121C65.511765,-19.768967,65.363945,-21.413416,65.598145,-23.025879C65.725922,-24.206316,66.183556,-25.327202,66.918457,-26.259766C67.872528,-27.404076,69.256561,-28.104391,70.743652,-28.195313C71.132805,-28.228905,71.52401,-28.231522,71.913574,-28.203125zM-91.449219,-14.96582L-93.646484,-14.96582L-93.646484,-27.929688L-91.449219,-27.929688L-91.449219,-14.96582zM-83.000977,-26.397461C-83.828918,-26.296656,-84.583641,-25.873489,-85.101563,-25.219727C-85.557587,-24.636097,-85.857185,-23.946043,-85.972168,-23.214355C-86.206848,-21.920515,-86.163239,-20.591591,-85.844238,-19.315918C-85.566277,-18.219692,-84.854813,-17.283524,-83.873047,-16.722168C-82.701584,-16.117653,-81.270523,-16.369623,-80.375977,-17.337891C-79.876923,-17.846889,-79.522797,-18.479786,-79.350098,-19.171387C-79.003571,-20.626921,-79.005745,-22.143122,-79.356445,-23.597656C-79.580635,-24.554287,-80.161842,-25.3895,-80.980957,-25.932129C-81.580086,-26.316437,-82.29409,-26.480934,-83.000977,-26.397461zM30.976074,-26.397461C30.401354,-26.336048,29.856909,-26.1087,29.40918,-25.743164C28.763512,-25.223057,28.308483,-24.503155,28.115723,-23.696777C27.767759,-22.256315,27.773623,-20.753624,28.132813,-19.315918C28.410772,-18.219688,29.122238,-17.283518,30.104004,-16.722168C31.275469,-16.11767,32.706528,-16.369627,33.601074,-17.337891C34.100143,-17.846882,34.454266,-18.479782,34.626953,-19.171387C34.973911,-20.626858,34.971737,-22.143183,34.620605,-23.597656C34.396435,-24.554293,33.81522,-25.389509,32.996094,-25.932129C32.396954,-26.316418,31.682961,-26.480894,30.976074,-26.397461zM-66.986328,-20.202637C-66.956451,-19.434143,-66.720322,-18.687824,-66.302734,-18.041992C-65.548065,-16.9252,-64.228081,-16.328398,-62.891113,-16.499512C-61.449352,-16.635365,-60.257244,-17.679529,-59.932617,-19.09082C-59.840889,-19.455803,-59.779007,-19.827621,-59.747559,-20.202637L-66.986328,-20.202637zM13.629395,-20.202637L13.670898,-19.789063C13.787088,-18.677553,14.389784,-17.674072,15.316406,-17.049316C16.599356,-16.232321,18.251001,-16.289734,19.474121,-17.193848C20.084112,-17.667368,20.511265,-18.33786,20.682617,-19.09082C20.774084,-19.455875,20.836132,-19.827665,20.868164,-20.202637L13.629395,-20.202637zM83.526367,-26.396484L83.140625,-26.338379C81.944023,-26.072155,80.963379,-25.219681,80.533203,-24.071777C80.231483,-23.230608,80.087654,-22.341148,80.108887,-21.447754C80.096436,-20.713327,80.187836,-19.980827,80.380371,-19.271973C80.629158,-18.312731,81.242119,-17.487974,82.088867,-16.973145C83.340668,-16.251705,84.899338,-16.336088,86.065918,-17.188477C86.74646,-17.707626,87.237968,-18.435896,87.464844,-19.26123C87.70282,-20.150616,87.789467,-21.073557,87.721191,-21.991699C87.694588,-22.696041,87.556992,-23.391783,87.313477,-24.053223C86.893036,-25.208519,85.912659,-26.069975,84.712891,-26.338379C84.322411,-26.416176,83.922577,-26.435776,83.526367,-26.396484zM-23.480469,-26.396484C-24.839586,-26.255108,-26.000286,-25.353626,-26.473633,-24.071777C-26.775146,-23.230541,-26.91913,-22.341156,-26.898438,-21.447754C-26.910397,-20.713316,-26.81884,-19.980867,-26.626465,-19.271973C-26.377979,-18.312599,-25.764933,-17.487728,-24.917969,-16.973145C-23.666172,-16.251696,-22.107502,-16.336088,-20.940918,-17.188477C-20.26037,-17.707619,-19.768854,-18.43589,-19.541992,-19.26123C-19.304092,-20.150629,-19.217443,-21.073561,-19.285645,-21.991699C-19.312243,-22.696041,-19.449842,-23.391781,-19.693359,-24.053223C-20.113861,-25.208481,-21.094208,-26.069918,-22.293945,-26.338379C-22.684423,-26.416183,-23.084255,-26.435759,-23.480469,-26.396484zM62.347656,-25.427246L59.845215,-25.427246L59.845215,-27.929688L62.347656,-27.929688L62.347656,-25.427246z"/>
    <path transform="matrix(1.2,0,0,-0.88,100.999992,-50.5)" style="stroke:#000000;stroke-width:0.056818mm;fill:none" d="M62.5,-9.5C62.5,-11.156853,61.15686,-12.5,59.5,-12.5L-59.5,-12.5C-61.15686,-12.5,-62.5,-11.156853,-62.5,-9.5L-62.5,9.5C-62.5,11.156853,-61.15686,12.5,-59.5,12.5L59.5,12.5C61.15686,12.5,62.5,11.156853,62.5,9.5L62.5,-9.5z"/>
    <circle transform="matrix(1,0,0,-1,93.745377,-54.5)" style="stroke:#000000;stroke-width:0.050000mm;fill:none" r="1" cx="0" cy="0"/>
    <circle transform="matrix(1,0,0,-1,93.745377,-50.5)" style="stroke:#000000;stroke-width:0.050000mm;fill:none" r="1" cx="0" cy="0"/>
    <circle transform="matrix(1,0,0,-1,93.745377,-46.5)" style="stroke:#000000;stroke-width:0.050000mm;fill:none" r="1" cx="0" cy="0"/>
    <circle transform="matrix(1,0,0,-1,89.730133,-56.5)" style="stroke:#000000;stroke-width:0.050000mm;fill:none" r="1" cx="0" cy="0"/>
    <circle transform="matrix(1,0,0,-1,89.730133,-52.5)" style="stroke:#000000;stroke-width:0.050000mm;fill:none" r="1" cx="0" cy="0"/>
    <circle transform="matrix(1,0,0,-1,89.730133,-48.5)" style="stroke:#000000;stroke-width:0.050000mm;fill:none" r="1" cx="0" cy="0"/>
    <circle transform="matrix(1,0,0,-1,89.730133,-44.5)" style="stroke:#000000;stroke-width:0.050000mm;fill:none" r="1" cx="0" cy="0"/>
    <circle transform="matrix(1,0,0,-1,85.730133,-54.5)" style="stroke:#000000;stroke-width:0.050000mm;fill:none" r="1" cx="0" cy="0"/>
    <circle transform="matrix(1,0,0,-1,85.730133,-50.5)" style="stroke:#000000;stroke-width:0.050000mm;fill:none" r="1" cx="0" cy="0"/>
    <circle transform="matrix(1,0,0,-1,85.730133,-46.5)" style="stroke:#000000;stroke-width:0.050000mm;fill:none" r="1" cx="0" cy="0"/>
    <circle transform="matrix(1,0,0,-1,81.730133,-56.5)" style="stroke:#000000;stroke-width:0.050000mm;fill:none" r="1" cx="0" cy="0"/>
    <circle transform="matrix(1,0,0,-1,81.730133,-52.5)" style="stroke:#000000;stroke-width:0.050000mm;fill:none" r="1" cx="0" cy="0"/>
    <circle transform="matrix(1,0,0,-1,81.730133,-48.5)" style="stroke:#000000;stroke-width:0.050000mm;fill:none" r="1" cx="0" cy="0"/>
    <circle transform="matrix(1,0,0,-1,81.730133,-44.5)" style="stroke:#000000;stroke-width:0.050000mm;fill:none" r="1" cx="0" cy="0"/>
    <circle transform="matrix(1,0,0,-1,77.730133,-54.5)" style="stroke:#000000;stroke-width:0.050000mm;fill:none" r="1" cx="0" cy="0"/>
    <circle transform="matrix(1,0,0,-1,77.730133,-50.499985)" style="stroke:#000000;stroke-width:0.050000mm;fill:none" r="1" cx="0" cy="0"/>
    <circle transform="matrix(1,0,0,-1,77.730133,-46.499992)" style="stroke:#000000;stroke-width:0.050000mm;fill:none" r="1" cx="0" cy="0"/>
    <circle transform="matrix(1,0,0,-1,123.745392,-54.499992)" style="stroke:#000000;stroke-width:0.050000mm;fill:none" r="1" cx="0" cy="0"/>
    <circle transform="matrix(1,0,0,-1,123.745392,-50.499992)" style="stroke:#000000;stroke-width:0.050000mm;fill:none" r="1" cx="0" cy="0"/>
    <circle transform="matrix(1,0,0,-1,123.745392,-46.499992)" style="stroke:#000000;stroke-width:0.050000mm;fill:none" r="1" cx="0" cy="0"/>
    <circle transform="matrix(1,0,0,-1,119.730133,-56.499992)" style="stroke:#000000;stroke-width:0.050000mm;fill:none" r="1" cx="0" cy="0"/>
    <circle transform="matrix(1,0,0,-1,119.730133,-52.499992)" style="stroke:#000000;stroke-width:0.050000mm;fill:none" r="1" cx="0" cy="0"/>
    <circle transform="matrix(1,0,0,-1,119.730133,-48.499992)" style="stroke:#000000;stroke-width:0.050000mm;fill:none" r="1" cx="0" cy="0"/>
    <circle transform="matrix(1,0,0,-1,119.730133,-44.499992)" style="stroke:#000000;stroke-width:0.050000mm;fill:none" r="1" cx="0" cy="0"/>
    <circle transform="matrix(1,0,0,-1,115.730133,-54.499992)" style="stroke:#000000;stroke-width:0.050000mm;fill:none" r="1" cx="0" cy="0"/>
    <circle transform="matrix(1,0,0,-1,115.730133,-50.499992)" style="stroke:#000000;stroke-width:0.050000mm;fill:none" r="1" cx="0" cy="0"/>
    <circle transform="matrix(1,0,0,-1,115.730133,-46.499985)" style="stroke:#000000;stroke-width:0.050000mm;fill:none" r="1" cx="0" cy="0"/>
    <circle transform="matrix(1,0,0,-1,111.730133,-56.499992)" style="stroke:#000000;stroke-width:0.050000mm;fill:none" r="1" cx="0" cy="0"/>
    <circle transform="matrix(1,0,0,-1,111.730133,-52.499985)" style="stroke:#000000;stroke-width:0.050000mm;fill:none" r="1" cx="0" cy="0"/>
    <circle transform="matrix(1,0,0,-1,111.730133,-48.499985)" style="stroke:#000000;stroke-width:0.050000mm;fill:none" r="1" cx="0" cy="0"/>
    <circle transform="matrix(1,0,0,-1,111.730133,-44.499985)" style="stroke:#000000;stroke-width:0.050000mm;fill:none" r="1" cx="0" cy="0"/>
    <circle transform="matrix(1,0,0,-1,107.730133,-54.499992)" style="stroke:#000000;stroke-width:0.050000mm;fill:none" r="1" cx="0" cy="0"/>
    <circle transform="matrix(1,0,0,-1,107.730133,-50.499977)" style="stroke:#000000;stroke-width:0.050000mm;fill:none" r="1" cx="0" cy="0"/>
    <circle transform="matrix(1,0,0,-1,107.730133,-46.499985)" style="stroke:#000000;stroke-width:0.050000mm;fill:none" r="1" cx="0" cy="0"/>
</svg>
