<?xml version="1.0" encoding="UTF-8" standalone="no"?>
<svg xmlns="http://www.w3.org/2000/svg" xmlns:xlink="http://www.w3.org/1999/xlink" width="36.100mm" height="65.000mm" viewBox="6.950001 -68.500000 36.100006 65.000000">
    <path transform="matrix(1,0,0,-1,-59.999981,49)" style="stroke:#000000;stroke-width:0.050000mm;fill:none" d="M93.5,97.5L93.5,114.5C93.5,116.156853,92.156853,117.5,90.5,117.5L79.5,117.5C77.843147,117.5,76.5,116.156853,76.5,114.5L76.5,97.5L68.665184,93.312881C67.617744,92.816467,66.949997,91.761055,66.949997,90.601929L66.949997,55.5C66.949997,53.843147,68.293144,52.5,69.949997,52.5L100.050003,52.5C101.706863,52.5,103.050003,53.843147,103.050003,55.5L103.050003,90.601929C103.050003,91.761055,102.382263,92.816467,101.334808,93.312881L93.5,97.5z"/>
</svg>
